# Blender 3.4.1
# www.blender.org
mtllib spear.mtl
o Cylinder
v -0.000000 0.120696 3.263816
v 0.085345 0.085345 3.263816
v 0.120696 0.000000 3.263816
v 0.085345 -0.085345 3.263816
v -0.000000 -0.120696 3.263816
v -0.085345 -0.085345 3.263816
v -0.120696 0.000000 3.263816
v -0.085345 0.085345 3.263816
v -0.000000 0.104939 2.932875
v 0.074203 0.074203 2.932875
v 0.104939 0.000000 2.932875
v 0.074203 -0.074203 2.932875
v -0.000000 -0.104939 2.932875
v -0.074203 -0.074203 2.932875
v -0.104939 0.000000 2.932875
v -0.074203 0.074203 2.932875
v -0.000000 0.120696 2.932875
v 0.085345 0.085345 2.932875
v 0.120696 0.000000 2.932875
v 0.085345 -0.085345 2.932875
v -0.000000 -0.120696 2.932875
v -0.085345 -0.085345 2.932875
v -0.120696 0.000000 2.932875
v -0.085345 0.085345 2.932875
v -0.000000 0.104939 -3.300267
v 0.074203 0.074203 -3.300267
v 0.104939 -0.000000 -3.300267
v 0.074203 -0.074203 -3.300267
v -0.000000 -0.104939 -3.300267
v -0.074203 -0.074203 -3.300267
v -0.104939 -0.000000 -3.300267
v -0.074203 0.074203 -3.300267
v -0.084412 0.085356 2.767575
v 0.084904 -0.083959 2.621453
v -0.119478 0.000698 2.637482
v 0.000246 0.120423 2.776348
v 0.119970 0.000698 2.649089
v -0.074203 -0.074203 2.556181
v 0.084904 0.085356 2.737745
v 0.000246 -0.119026 2.551540
v -0.074203 0.074203 2.649938
v -0.000000 0.104939 2.630625
v 0.084904 -0.083959 2.490872
v -0.119478 0.000698 2.542581
v 0.119970 0.000698 2.521532
v -0.084412 -0.083959 2.449230
v 0.084904 0.085356 2.598292
v 0.000246 -0.119026 2.433086
v 0.000246 -0.119026 2.706572
v -0.074203 -0.074203 2.730259
v -0.000000 -0.104939 2.785939
v 0.084904 -0.083959 2.824997
v 0.119970 0.000698 2.788134
v 0.092718 0.029506 2.684341
v 0.084904 -0.083959 2.746491
v 0.119970 0.000698 2.707264
v -0.099859 0.048063 2.602645
v -0.084412 0.085356 2.585552
v -0.000000 0.104939 2.506160
v -0.084412 0.085356 2.483326
v -0.119478 0.000698 2.468234
v -0.088120 -0.040606 2.491496
v 0.074203 -0.074203 2.621453
v 0.104939 0.000000 2.649089
v -0.084412 -0.083959 2.556181
v -0.000000 -0.104939 2.551540
v -0.000000 0.104939 2.776348
v -0.074203 0.074203 2.767575
v 0.074203 0.074203 2.737745
v -0.104939 0.000000 2.637482
v 0.104939 0.000000 2.521532
v 0.074203 -0.074203 2.490872
v 0.074203 0.074203 2.598292
v -0.000000 -0.104939 2.433086
v -0.074203 -0.074203 2.449230
v -0.084412 0.085356 2.649938
v 0.000246 0.120423 2.630625
v -0.087743 0.041515 2.602645
v -0.000000 -0.104939 2.706572
v 0.074203 -0.074203 2.824997
v 0.104939 0.000000 2.788134
v -0.084412 -0.083959 2.730259
v 0.000246 -0.119026 2.785939
v 0.106027 0.034361 2.684341
v 0.104939 0.000000 2.707264
v 0.074203 -0.074203 2.746491
v -0.074203 0.074203 2.585552
v -0.100289 -0.045629 2.491496
v -0.104939 0.000000 2.468234
v -0.074203 0.074203 2.483326
v 0.000246 0.120423 2.506160
vn 0.3827 0.9239 -0.0000
vn 0.9239 0.3827 -0.0000
vn 0.9239 -0.3827 -0.0000
vn 0.3827 -0.9239 -0.0000
vn -0.3827 -0.9239 -0.0000
vn -0.9239 -0.3827 -0.0000
vn -0.0000 -0.0000 1.0000
vn -0.9239 0.3827 -0.0000
vn -0.3827 0.9239 -0.0000
vn -0.0000 -0.0000 -1.0000
vn -0.1017 -0.2890 0.9519
vn 0.0497 -0.0208 0.9985
vn -0.0951 -0.0356 0.9948
vn 0.3789 -0.1557 0.9123
vn -0.5736 -0.2634 0.7756
vn -0.3605 -0.7528 0.5508
vn 0.1117 0.3173 -0.9417
vn -0.2787 0.6052 -0.7457
vn -0.1703 0.0712 -0.9828
vn -0.2054 -0.0768 -0.9757
vn 0.5072 0.2329 -0.8298
vn 0.4922 0.6208 -0.6102
vn 0.8010 -0.3347 -0.4963
vn 0.1310 0.3722 0.9189
vn -0.2522 0.6891 0.6794
vn -0.2117 0.4595 0.8626
vn -0.3761 -0.1727 0.9103
vn -0.5016 0.2096 0.8393
vn 0.1394 -0.7113 0.6890
vn 0.1086 -0.5540 -0.8254
vn 0.3829 0.1758 -0.9069
vn -0.1380 -0.3920 -0.9095
vn 0.2639 0.3329 0.9053
vn -0.4351 -0.1627 0.8856
vn -0.4088 0.6189 -0.6707
vn 0.0748 0.1561 -0.9849
vn 0.0724 -0.4471 -0.8915
vn 0.2406 0.0900 -0.9665
vn 0.6762 -0.2779 -0.6823
vt 1.000000 1.000000
vt 0.250000 0.490000
vt 0.000000 1.000000
vt 0.875000 1.000000
vt 0.419706 0.419706
vt 0.750000 1.000000
vt 0.490000 0.250000
vt 0.625000 1.000000
vt 0.419706 0.080294
vt 0.500000 1.000000
vt 0.250000 0.010000
vt 0.375000 1.000000
vt 0.080294 0.080294
vt 0.010000 0.250000
vt 0.250000 1.000000
vt 0.080294 0.419706
vt 0.125000 1.000000
vt 0.000000 0.974651
vt 1.000000 0.974651
vt 0.875000 0.974651
vt 0.750000 0.974651
vt 0.625000 0.974651
vt 0.500000 0.974651
vt 0.375000 0.974651
vt 0.250000 0.974651
vt 0.125000 0.974651
vt 0.000000 0.974651
vt 1.000000 0.974651
vt 0.875000 0.974651
vt 0.750000 0.974651
vt 0.625000 0.974651
vt 0.500000 0.974651
vt 0.375000 0.974651
vt 0.250000 0.974651
vt 0.125000 0.974651
vt 1.000000 0.768094
vt 0.000000 0.768094
vt 0.875000 0.768094
vt 0.750000 0.768094
vt 0.625000 0.768094
vt 0.500000 0.768094
vt 0.375000 0.768094
vt 0.250000 0.768094
vt 0.125000 0.768094
vt 0.125000 0.960978
vt 0.625000 0.948892
vt 0.250000 0.950217
vt 0.000000 0.961704
vt 1.000000 0.961704
vt 0.750000 0.951178
vt 0.375000 0.935597
vt 0.875000 0.958511
vt 0.500000 0.943109
vt 0.125000 0.951248
vt 0.000000 0.949650
vt 0.625000 0.938091
vt 0.250000 0.942368
vt 0.750000 0.940627
vt 0.375000 0.927148
vt 0.875000 0.946976
vt 0.500000 0.933311
vt 0.500000 0.955932
vt 0.375000 0.953644
vt 0.500000 0.962497
vt 0.625000 0.965728
vt 0.750000 0.962679
vt 0.799704 0.954093
vt 0.625000 0.959234
vt 0.750000 0.955989
vt 0.180065 0.947336
vt 0.125000 0.945922
vt 0.000000 0.939355
vt 1.000000 0.939355
vt 0.125000 0.937466
vt 0.250000 0.936218
vt 0.318404 0.934039
vt 0.625000 0.948892
vt 0.750000 0.951178
vt 0.375000 0.935597
vt 0.500000 0.943109
vt 0.000000 0.961704
vt 1.000000 0.961704
vt 0.125000 0.960978
vt 0.875000 0.958511
vt 0.250000 0.950217
vt 0.750000 0.940627
vt 0.625000 0.938091
vt 0.875000 0.946976
vt 0.500000 0.933311
vt 0.375000 0.927148
vt 0.125000 0.951248
vt 1.000000 0.949650
vt 0.000000 0.949650
vt 0.180065 0.947336
vt 0.500000 0.955932
vt 0.625000 0.965728
vt 0.750000 0.962679
vt 0.375000 0.953644
vt 0.500000 0.962497
vt 0.799704 0.954093
vt 0.750000 0.955989
vt 0.625000 0.959234
vt 0.125000 0.945922
vt 0.318404 0.934039
vt 0.250000 0.936218
vt 0.125000 0.937466
vt 0.000000 0.939355
vt 1.000000 0.939355
s 0
f 17/28/1 1/1/1 2/4/1 18/29/1
f 18/29/2 2/4/2 3/6/2 19/30/2
f 19/30/3 3/6/3 4/8/3 20/31/3
f 20/31/4 4/8/4 5/10/4 21/32/4
f 21/32/5 5/10/5 6/12/5 22/33/5
f 22/33/6 6/12/6 7/15/6 23/34/6
f 2/5/7 1/2/7 8/16/7 7/14/7 6/13/7 5/11/7 4/9/7 3/7/7
f 23/34/8 7/15/8 8/17/8 24/35/8
f 24/35/9 8/17/9 1/3/9 17/27/9
f 32/44/9 90/106/9 59/72/9 25/37/9
f 31/43/8 89/105/8 90/106/8 32/44/8
f 30/42/6 75/90/6 62/76/6 89/105/6 31/43/6
f 29/41/5 74/89/5 75/90/5 30/42/5
f 28/40/4 72/87/4 74/89/4 29/41/4
f 27/39/3 71/86/3 72/87/3 28/40/3
f 26/38/2 73/88/2 71/86/2 27/39/2
f 25/36/1 59/73/1 73/88/1 26/38/1
f 16/26/10 24/35/10 17/27/10 9/18/10
f 15/25/10 23/34/10 24/35/10 16/26/10
f 14/24/10 22/33/10 23/34/10 15/25/10
f 13/23/10 21/32/10 22/33/10 14/24/10
f 12/22/10 20/31/10 21/32/10 13/23/10
f 11/21/10 19/30/10 20/31/10 12/22/10
f 10/20/10 18/29/10 19/30/10 11/21/10
f 9/19/10 17/28/10 18/29/10 10/20/10
f 25/37/10 26/38/10 27/39/10 28/40/10 29/41/10 30/42/10 31/43/10 32/44/10
f 63/77/3 64/78/3 85/101/3 86/102/3
f 35/47/6 65/79/6 82/98/6
f 64/78/2 54/67/2 85/101/2
f 38/51/5 66/80/5 79/95/5
f 67/81/9 68/83/9 16/26/9 9/18/9
f 69/84/1 67/82/1 9/19/1 10/20/1
f 66/80/4 63/77/4 86/102/4 79/95/4
f 68/83/8 70/85/8 15/25/8 16/26/8
f 43/56/3 45/58/3 37/50/3 34/46/3
f 44/57/6 88/104/6 46/59/6 65/79/6 35/47/6
f 45/58/2 47/60/2 39/52/2 84/100/2 37/50/2
f 46/59/5 48/61/5 40/53/5 65/79/5
f 77/93/9 76/91/9 33/45/9 36/48/9
f 47/60/1 77/92/1 36/49/1 39/52/1
f 48/61/4 43/56/4 34/46/4 40/53/4
f 76/91/8 57/70/8 44/57/8 35/47/8 33/45/8
f 49/62/5 83/99/5 82/98/5 65/79/5
f 80/96/3 81/97/3 11/21/3 12/22/3
f 50/63/6 14/24/6 15/25/6 70/85/6
f 81/97/2 69/84/2 10/20/2 11/21/2
f 51/64/4 80/96/4 12/22/4 13/23/4
f 50/63/5 51/64/5 13/23/5 14/24/5
f 56/69/2 84/100/2 39/52/2 53/66/2
f 49/62/4 55/68/4 52/65/4 83/99/4
f 55/68/3 56/69/3 53/66/3 52/65/3
f 87/103/8 78/94/8 41/54/8
f 42/55/9 87/103/9 41/54/9
f 60/74/8 61/75/8 44/57/8 57/70/8 58/71/8
f 61/75/6 88/104/6 44/57/6
f 91/107/9 60/74/9 58/71/9 77/93/9
f 47/60/1 91/108/1 77/92/1
f 34/46/11 37/50/11 64/78/11 63/77/11
f 65/79/12 40/53/12 66/80/12 38/51/12
f 36/48/13 33/45/13 68/83/13 67/81/13
f 39/52/14 36/49/14 67/82/14 69/84/14
f 40/53/15 34/46/15 63/77/15 66/80/15
f 33/45/16 35/47/16 70/85/16 68/83/16
f 45/58/17 43/56/17 72/87/17 71/86/17
f 47/60/18 45/58/18 71/86/18 73/88/18
f 48/61/19 46/59/19 75/90/19 74/89/19
f 76/91/20 77/93/20 42/55/20 41/54/20
f 43/56/21 48/61/21 74/89/21 72/87/21
f 57/70/22 76/91/22 41/54/22 78/94/22
f 49/62/23 65/79/23 38/51/23 79/95/23
f 52/65/24 53/66/24 81/97/24 80/96/24
f 35/47/25 82/98/25 50/63/25 70/85/25
f 53/66/26 39/52/26 69/84/26 81/97/26
f 83/99/27 52/65/27 80/96/27 51/64/27
f 82/98/28 83/99/28 51/64/28 50/63/28
f 37/50/29 84/100/29 54/67/29 64/78/29
f 84/100/30 56/69/30 85/101/30 54/67/30
f 55/68/31 49/62/31 79/95/31 86/102/31
f 56/69/32 55/68/32 86/102/32 85/101/32
f 58/71/33 57/70/33 78/94/33 87/103/33
f 77/93/34 58/71/34 87/103/34 42/55/34
f 46/59/35 88/104/35 62/76/35 75/90/35
f 61/75/36 60/74/36 90/106/36 89/105/36
f 88/104/37 61/75/37 89/105/37 62/76/37
f 60/74/38 91/107/38 59/72/38 90/106/38
f 91/108/39 47/60/39 73/88/39 59/73/39
o Cylinder.001
v -0.283875 0.283875 3.119893
v -0.000000 -0.000000 3.973589
v 0.283875 0.283875 3.119893
v 0.283875 -0.283875 3.119893
v -0.283875 -0.283875 3.119893
v 0.000000 0.129914 3.220845
v -0.000000 -0.129914 3.220845
v 0.129914 -0.000000 3.220845
v -0.129914 -0.000000 3.220845
v 0.000000 -0.000000 3.220845
vn -0.4283 0.8905 0.1537
vn 0.8905 0.4283 0.1537
vn 0.4283 -0.8905 0.1537
vn -0.8905 -0.4283 0.1537
vn -0.0000 0.3351 -0.9422
vn 0.3351 -0.0000 -0.9422
vn -0.4283 -0.8905 0.1537
vn 0.4283 0.8905 0.1537
vn -0.0000 -0.3351 -0.9422
vn -0.8905 0.4283 0.1537
vn 0.8905 -0.4283 0.1537
vn -0.3351 -0.0000 -0.9422
vt 0.000000 0.500000
vt 1.000000 0.500000
vt 0.750000 0.490000
vt 0.750000 1.000000
vt 0.500000 1.000000
vt 0.250000 1.000000
vt 0.000000 1.000000
vt 0.375000 1.000000
vt 0.875000 1.000000
vt 0.125000 1.000000
vt 0.625000 1.000000
vt 0.750000 0.500000
vt 0.990000 0.250000
vt 0.500000 0.500000
vt 0.750000 0.010000
vt 0.250000 0.500000
vt 0.510000 0.250000
vt 0.875000 0.500000
vt 0.870000 0.370000
vt 0.375000 0.500000
vt 0.630000 0.130000
vt 0.870000 0.130000
vt 0.625000 0.500000
vt 0.125000 0.500000
vt 0.630000 0.370000
vt 0.750000 0.250000
s 0
f 97/126/40 93/112/40 94/120/40
f 99/131/41 93/113/41 95/122/41
f 98/128/42 93/114/42 96/124/42
f 100/132/43 93/115/43 92/109/43
f 101/134/44 99/130/44 95/123/44
f 101/134/45 98/129/45 96/125/45
f 95/122/46 93/116/46 98/128/46
f 92/110/47 93/117/47 97/126/47
f 92/111/45 97/127/45 101/134/45
f 94/121/48 99/130/48 101/134/48
f 96/124/49 93/118/49 100/132/49
f 94/120/50 93/119/50 99/131/50
f 100/133/44 101/134/44 96/125/44
f 97/127/51 94/121/51 101/134/51
f 98/129/51 101/134/51 95/123/51
f 100/133/48 92/111/48 101/134/48
