# MagicaVoxel @ Ephtracy

# group
o 

# material
mtllib bulletpack.mtl
usemtl palette

# normals
vn -1 0 0
vn 1 0 0
vn 0 0 1
vn 0 0 -1
vn 0 -1 0
vn 0 1 0

# texcoords
vt 0.916016 0.5
vt 0.919922 0.5
vt 0.923828 0.5
vt 0.927734 0.5
vt 0.931641 0.5
vt 0.935547 0.5
vt 0.947266 0.5
vt 0.951172 0.5

# verts
v 0 0.1 0
v 0 0.1 -0.8
v 0 1.3 0
v 0 1.3 -0.8
v 0 1.4 0
v 0 1.4 -0.8
v 0 1.7 0
v 0 1.7 -0.8
v 1.6 0.1 0
v 1.6 0.1 -0.8
v 1.6 1.3 0
v 1.6 1.3 -0.8
v 1.6 1.4 0
v 1.6 1.4 -0.8
v 1.6 1.7 0
v 1.6 1.7 -0.8
v 0 0.1 0
v 0 1.3 0
v 0 1.4 0
v 0 1.7 0
v 0.2 0.7 0
v 0.2 0.9 0
v 0.2 1.1 0
v 0.5 0.7 0
v 0.5 0.9 0
v 0.5 1.1 0
v 1.4 0.7 0
v 1.4 0.9 0
v 1.4 1.1 0
v 1.6 0.1 0
v 1.6 1.3 0
v 1.6 1.4 0
v 1.6 1.7 0
v 0 0.1 -0.8
v 0 1.3 -0.8
v 0 1.4 -0.8
v 0 1.7 -0.8
v 0.2 0.7 -0.8
v 0.2 0.9 -0.8
v 0.2 1.1 -0.8
v 1.1 0.7 -0.8
v 1.1 0.9 -0.8
v 1.1 1.1 -0.8
v 1.4 0.7 -0.8
v 1.4 0.9 -0.8
v 1.4 1.1 -0.8
v 1.6 0.1 -0.8
v 1.6 1.3 -0.8
v 1.6 1.4 -0.8
v 1.6 1.7 -0.8
v 0 0.1 0
v 1.6 0.1 0
v 0.1 0.1 -0.1
v 1.5 0.1 -0.1
v 0.1 0.1 -0.7
v 1.5 0.1 -0.7
v 0 0.1 -0.8
v 1.6 0.1 -0.8
v 0 1.7 0
v 1.6 1.7 0
v 0 1.7 -0.8
v 1.6 1.7 -0.8

# faces
f 3/5/1 2/5/1 1/5/1
f 4/5/1 2/5/1 3/5/1
f 5/6/1 4/6/1 3/6/1
f 6/6/1 4/6/1 5/6/1
f 7/5/1 6/5/1 5/5/1
f 8/5/1 6/5/1 7/5/1
f 9/5/2 10/5/2 11/5/2
f 11/5/2 10/5/2 12/5/2
f 11/6/2 12/6/2 13/6/2
f 13/6/2 12/6/2 14/6/2
f 13/5/2 14/5/2 15/5/2
f 15/5/2 14/5/2 16/5/2
f 21/5/3 18/5/3 17/5/3
f 22/5/3 18/5/3 21/5/3
f 23/5/3 18/5/3 22/5/3
f 24/5/3 21/5/3 17/5/3
f 24/4/3 22/4/3 21/4/3
f 25/3/3 23/3/3 22/3/3
f 25/4/3 22/4/3 24/4/3
f 26/5/3 18/5/3 23/5/3
f 26/3/3 23/3/3 25/3/3
f 27/2/3 25/2/3 24/2/3
f 27/5/3 24/5/3 17/5/3
f 28/1/3 26/1/3 25/1/3
f 28/2/3 25/2/3 27/2/3
f 29/5/3 18/5/3 26/5/3
f 29/1/3 26/1/3 28/1/3
f 30/5/3 28/5/3 27/5/3
f 30/5/3 27/5/3 17/5/3
f 30/5/3 29/5/3 28/5/3
f 31/6/3 19/6/3 18/6/3
f 31/5/3 29/5/3 30/5/3
f 31/5/3 18/5/3 29/5/3
f 32/5/3 20/5/3 19/5/3
f 32/6/3 19/6/3 31/6/3
f 33/5/3 20/5/3 32/5/3
f 34/5/4 35/5/4 38/5/4
f 38/5/4 35/5/4 39/5/4
f 39/5/4 35/5/4 40/5/4
f 34/5/4 38/5/4 41/5/4
f 38/2/4 39/2/4 41/2/4
f 39/1/4 40/1/4 42/1/4
f 41/2/4 39/2/4 42/2/4
f 40/5/4 35/5/4 43/5/4
f 42/1/4 40/1/4 43/1/4
f 41/4/4 42/4/4 44/4/4
f 34/5/4 41/5/4 44/5/4
f 42/3/4 43/3/4 45/3/4
f 44/4/4 42/4/4 45/4/4
f 43/5/4 35/5/4 46/5/4
f 45/3/4 43/3/4 46/3/4
f 44/5/4 45/5/4 47/5/4
f 34/5/4 44/5/4 47/5/4
f 45/5/4 46/5/4 47/5/4
f 35/6/4 36/6/4 48/6/4
f 47/5/4 46/5/4 48/5/4
f 46/5/4 35/5/4 48/5/4
f 36/5/4 37/5/4 49/5/4
f 48/6/4 36/6/4 49/6/4
f 49/5/4 37/5/4 50/5/4
f 53/5/5 52/5/5 51/5/5
f 54/5/5 52/5/5 53/5/5
f 55/5/5 53/5/5 51/5/5
f 55/6/5 54/6/5 53/6/5
f 56/5/5 52/5/5 54/5/5
f 56/6/5 54/6/5 55/6/5
f 57/5/5 55/5/5 51/5/5
f 57/5/5 56/5/5 55/5/5
f 58/5/5 52/5/5 56/5/5
f 58/5/5 56/5/5 57/5/5
f 59/5/6 60/5/6 61/5/6
f 61/5/6 60/5/6 62/5/6
