# MagicaVoxel @ Ephtracy

# group
o 

# material
mtllib box.mtl
usemtl palette

# normals
vn -1 0 0
vn 1 0 0
vn 0 0 1
vn 0 0 -1
vn 0 -1 0
vn 0 1 0

# texcoords
vt 0.970703 0.5
vt 0.974609 0.5
vt 0.978516 0.5

# verts
v 0 0.1 0
v 0 0.1 -3.2
v 0 0.3 -0.2
v 0 0.3 -3
v 0 3.1 -0.2
v 0 3.1 -3
v 0 3.3 0
v 0 3.3 -3.2
v 0.1 0.3 -0.2
v 0.1 0.3 -0.8
v 0.1 0.3 -0.9
v 0.1 0.3 -1.6
v 0.1 0.3 -1.7
v 0.1 0.3 -2.3
v 0.1 0.3 -2.4
v 0.1 0.3 -3
v 0.1 3.1 -0.2
v 0.1 3.1 -0.8
v 0.1 3.1 -0.9
v 0.1 3.1 -1.6
v 0.1 3.1 -1.7
v 0.1 3.1 -2.3
v 0.1 3.1 -2.4
v 0.1 3.1 -3
v 3 0.1 -0.2
v 3 0.1 -3
v 3 0.2 -0.2
v 3 0.2 -3
v 3 0.3 0
v 3 0.3 -0.1
v 3 0.3 -3.1
v 3 0.3 -3.2
v 3 3.1 0
v 3 3.1 -0.1
v 3 3.1 -3.1
v 3 3.1 -3.2
v 3 3.2 -0.2
v 3 3.2 -0.9
v 3 3.2 -1
v 3 3.2 -1.6
v 3 3.2 -1.7
v 3 3.2 -2.4
v 3 3.2 -2.5
v 3 3.2 -3
v 3 3.3 -0.2
v 3 3.3 -3
v 0.2 0.1 -0.2
v 0.2 0.1 -3
v 0.2 0.2 -0.2
v 0.2 0.2 -3
v 0.2 0.3 0
v 0.2 0.3 -0.1
v 0.2 0.3 -3.1
v 0.2 0.3 -3.2
v 0.2 3.1 0
v 0.2 3.1 -0.1
v 0.2 3.1 -3.1
v 0.2 3.1 -3.2
v 0.2 3.2 -0.2
v 0.2 3.2 -0.9
v 0.2 3.2 -1
v 0.2 3.2 -1.6
v 0.2 3.2 -1.7
v 0.2 3.2 -2.4
v 0.2 3.2 -2.5
v 0.2 3.2 -3
v 0.2 3.3 -0.2
v 0.2 3.3 -3
v 3.1 0.3 -0.2
v 3.1 0.3 -0.8
v 3.1 0.3 -0.9
v 3.1 0.3 -1.5
v 3.1 0.3 -1.6
v 3.1 0.3 -2.3
v 3.1 0.3 -2.4
v 3.1 0.3 -3
v 3.1 3.1 -0.2
v 3.1 3.1 -0.8
v 3.1 3.1 -0.9
v 3.1 3.1 -1.5
v 3.1 3.1 -1.6
v 3.1 3.1 -2.3
v 3.1 3.1 -2.4
v 3.1 3.1 -3
v 3.2 0.1 0
v 3.2 0.1 -3.2
v 3.2 0.3 -0.2
v 3.2 0.3 -3
v 3.2 3.1 -0.2
v 3.2 3.1 -3
v 3.2 3.3 0
v 3.2 3.3 -3.2
v 0 0.1 0
v 0 3.3 0
v 0.2 0.3 0
v 0.2 3.1 0
v 3 0.3 0
v 3 3.1 0
v 3.2 0.1 0
v 3.2 3.3 0
v 0.2 0.3 -0.1
v 0.2 3.1 -0.1
v 0.7 0.3 -0.1
v 0.7 3.1 -0.1
v 0.8 0.3 -0.1
v 0.8 3.1 -0.1
v 1.5 0.3 -0.1
v 1.5 3.1 -0.1
v 1.6 0.3 -0.1
v 1.6 3.1 -0.1
v 2.3 0.3 -0.1
v 2.3 3.1 -0.1
v 2.4 0.3 -0.1
v 2.4 3.1 -0.1
v 3 0.3 -0.1
v 3 3.1 -0.1
v 0 0.3 -3
v 0 3.1 -3
v 0.1 0.3 -3
v 0.1 3.1 -3
v 0.2 0.1 -3
v 0.2 0.2 -3
v 0.2 3.2 -3
v 0.2 3.3 -3
v 0.7 0.2 -3
v 0.8 0.2 -3
v 1.6 0.2 -3
v 1.7 0.2 -3
v 2.4 0.2 -3
v 2.5 0.2 -3
v 3 0.1 -3
v 3 0.2 -3
v 3 3.2 -3
v 3 3.3 -3
v 3.1 0.3 -3
v 3.1 3.1 -3
v 3.2 0.3 -3
v 3.2 3.1 -3
v 0 0.3 -0.2
v 0 3.1 -0.2
v 0.1 0.3 -0.2
v 0.1 3.1 -0.2
v 0.2 0.1 -0.2
v 0.2 0.2 -0.2
v 0.2 3.2 -0.2
v 0.2 3.3 -0.2
v 0.7 0.2 -0.2
v 0.8 0.2 -0.2
v 1.6 0.2 -0.2
v 1.7 0.2 -0.2
v 2.4 0.2 -0.2
v 2.5 0.2 -0.2
v 3 0.1 -0.2
v 3 0.2 -0.2
v 3 3.2 -0.2
v 3 3.3 -0.2
v 3.1 0.3 -0.2
v 3.1 3.1 -0.2
v 3.2 0.3 -0.2
v 3.2 3.1 -0.2
v 0.2 0.3 -3.1
v 0.2 3.1 -3.1
v 0.8 0.3 -3.1
v 0.8 3.1 -3.1
v 0.9 0.3 -3.1
v 0.9 3.1 -3.1
v 1.5 0.3 -3.1
v 1.5 3.1 -3.1
v 1.6 0.3 -3.1
v 1.6 3.1 -3.1
v 2.3 0.3 -3.1
v 2.3 3.1 -3.1
v 2.4 0.3 -3.1
v 2.4 3.1 -3.1
v 3 0.3 -3.1
v 3 3.1 -3.1
v 0 0.1 -3.2
v 0 3.3 -3.2
v 0.2 0.3 -3.2
v 0.2 3.1 -3.2
v 3 0.3 -3.2
v 3 3.1 -3.2
v 3.2 0.1 -3.2
v 3.2 3.3 -3.2
v 0 0.1 0
v 3.2 0.1 0
v 0.2 0.1 -0.2
v 3 0.1 -0.2
v 0.2 0.1 -3
v 3 0.1 -3
v 0 0.1 -3.2
v 3.2 0.1 -3.2
v 0.2 0.2 -0.2
v 0.7 0.2 -0.2
v 0.8 0.2 -0.2
v 1.6 0.2 -0.2
v 1.7 0.2 -0.2
v 2.4 0.2 -0.2
v 2.5 0.2 -0.2
v 3 0.2 -0.2
v 0.2 0.2 -3
v 0.7 0.2 -3
v 0.8 0.2 -3
v 1.6 0.2 -3
v 1.7 0.2 -3
v 2.4 0.2 -3
v 2.5 0.2 -3
v 3 0.2 -3
v 0.2 3.1 0
v 3 3.1 0
v 0.2 3.1 -0.1
v 0.7 3.1 -0.1
v 0.8 3.1 -0.1
v 1.5 3.1 -0.1
v 1.6 3.1 -0.1
v 2.3 3.1 -0.1
v 2.4 3.1 -0.1
v 3 3.1 -0.1
v 0 3.1 -0.2
v 0.1 3.1 -0.2
v 3.1 3.1 -0.2
v 3.2 3.1 -0.2
v 0.1 3.1 -0.8
v 3.1 3.1 -0.8
v 0.1 3.1 -0.9
v 3.1 3.1 -0.9
v 3.1 3.1 -1.5
v 0.1 3.1 -1.6
v 3.1 3.1 -1.6
v 0.1 3.1 -1.7
v 0.1 3.1 -2.3
v 3.1 3.1 -2.3
v 0.1 3.1 -2.4
v 3.1 3.1 -2.4
v 0 3.1 -3
v 0.1 3.1 -3
v 3.1 3.1 -3
v 3.2 3.1 -3
v 0.2 3.1 -3.1
v 0.8 3.1 -3.1
v 0.9 3.1 -3.1
v 1.5 3.1 -3.1
v 1.6 3.1 -3.1
v 2.3 3.1 -3.1
v 2.4 3.1 -3.1
v 3 3.1 -3.1
v 0.2 3.1 -3.2
v 3 3.1 -3.2
v 0.2 0.3 0
v 3 0.3 0
v 0.2 0.3 -0.1
v 0.7 0.3 -0.1
v 0.8 0.3 -0.1
v 1.5 0.3 -0.1
v 1.6 0.3 -0.1
v 2.3 0.3 -0.1
v 2.4 0.3 -0.1
v 3 0.3 -0.1
v 0 0.3 -0.2
v 0.1 0.3 -0.2
v 3.1 0.3 -0.2
v 3.2 0.3 -0.2
v 0.1 0.3 -0.8
v 3.1 0.3 -0.8
v 0.1 0.3 -0.9
v 3.1 0.3 -0.9
v 3.1 0.3 -1.5
v 0.1 0.3 -1.6
v 3.1 0.3 -1.6
v 0.1 0.3 -1.7
v 0.1 0.3 -2.3
v 3.1 0.3 -2.3
v 0.1 0.3 -2.4
v 3.1 0.3 -2.4
v 0 0.3 -3
v 0.1 0.3 -3
v 3.1 0.3 -3
v 3.2 0.3 -3
v 0.2 0.3 -3.1
v 0.8 0.3 -3.1
v 0.9 0.3 -3.1
v 1.5 0.3 -3.1
v 1.6 0.3 -3.1
v 2.3 0.3 -3.1
v 2.4 0.3 -3.1
v 3 0.3 -3.1
v 0.2 0.3 -3.2
v 3 0.3 -3.2
v 0.2 3.2 -0.2
v 3 3.2 -0.2
v 0.2 3.2 -0.9
v 3 3.2 -0.9
v 0.2 3.2 -1
v 3 3.2 -1
v 0.2 3.2 -1.6
v 3 3.2 -1.6
v 0.2 3.2 -1.7
v 3 3.2 -1.7
v 0.2 3.2 -2.4
v 3 3.2 -2.4
v 0.2 3.2 -2.5
v 3 3.2 -2.5
v 0.2 3.2 -3
v 3 3.2 -3
v 0 3.3 0
v 3.2 3.3 0
v 0.2 3.3 -0.2
v 3 3.3 -0.2
v 0.2 3.3 -3
v 3 3.3 -3
v 0 3.3 -3.2
v 3.2 3.3 -3.2

# faces
f 3/1/1 2/1/1 1/1/1
f 4/1/1 2/1/1 3/1/1
f 5/1/1 3/1/1 1/1/1
f 6/1/1 2/1/1 4/1/1
f 7/1/1 5/1/1 1/1/1
f 7/1/1 6/1/1 5/1/1
f 8/1/1 2/1/1 6/1/1
f 8/1/1 6/1/1 7/1/1
f 17/2/1 10/2/1 9/2/1
f 18/3/1 11/3/1 10/3/1
f 18/2/1 10/2/1 17/2/1
f 19/2/1 12/2/1 11/2/1
f 19/3/1 11/3/1 18/3/1
f 20/3/1 13/3/1 12/3/1
f 20/2/1 12/2/1 19/2/1
f 21/2/1 14/2/1 13/2/1
f 21/3/1 13/3/1 20/3/1
f 22/3/1 15/3/1 14/3/1
f 22/2/1 14/2/1 21/2/1
f 23/2/1 16/2/1 15/2/1
f 23/3/1 15/3/1 22/3/1
f 24/2/1 16/2/1 23/2/1
f 27/1/1 26/1/1 25/1/1
f 28/1/1 26/1/1 27/1/1
f 33/1/1 30/1/1 29/1/1
f 34/1/1 30/1/1 33/1/1
f 35/1/1 32/1/1 31/1/1
f 36/1/1 32/1/1 35/1/1
f 45/1/1 38/1/1 37/1/1
f 45/1/1 44/1/1 43/1/1
f 45/1/1 43/1/1 42/1/1
f 45/1/1 42/1/1 41/1/1
f 45/1/1 41/1/1 40/1/1
f 45/1/1 40/1/1 39/1/1
f 45/1/1 39/1/1 38/1/1
f 46/1/1 44/1/1 45/1/1
f 47/1/2 48/1/2 49/1/2
f 49/1/2 48/1/2 50/1/2
f 51/1/2 52/1/2 55/1/2
f 55/1/2 52/1/2 56/1/2
f 53/1/2 54/1/2 57/1/2
f 57/1/2 54/1/2 58/1/2
f 59/1/2 60/1/2 67/1/2
f 65/1/2 66/1/2 67/1/2
f 64/1/2 65/1/2 67/1/2
f 63/1/2 64/1/2 67/1/2
f 62/1/2 63/1/2 67/1/2
f 61/1/2 62/1/2 67/1/2
f 60/1/2 61/1/2 67/1/2
f 67/1/2 66/1/2 68/1/2
f 69/2/2 70/2/2 77/2/2
f 70/3/2 71/3/2 78/3/2
f 77/2/2 70/2/2 78/2/2
f 71/2/2 72/2/2 79/2/2
f 78/3/2 71/3/2 79/3/2
f 72/3/2 73/3/2 80/3/2
f 79/2/2 72/2/2 80/2/2
f 73/2/2 74/2/2 81/2/2
f 80/3/2 73/3/2 81/3/2
f 74/3/2 75/3/2 82/3/2
f 81/2/2 74/2/2 82/2/2
f 75/2/2 76/2/2 83/2/2
f 82/3/2 75/3/2 83/3/2
f 83/2/2 76/2/2 84/2/2
f 85/1/2 86/1/2 87/1/2
f 87/1/2 86/1/2 88/1/2
f 85/1/2 87/1/2 89/1/2
f 88/1/2 86/1/2 90/1/2
f 85/1/2 89/1/2 91/1/2
f 89/1/2 90/1/2 91/1/2
f 90/1/2 86/1/2 92/1/2
f 91/1/2 90/1/2 92/1/2
f 95/1/3 94/1/3 93/1/3
f 96/1/3 94/1/3 95/1/3
f 97/1/3 95/1/3 93/1/3
f 98/1/3 94/1/3 96/1/3
f 99/1/3 97/1/3 93/1/3
f 99/1/3 98/1/3 97/1/3
f 100/1/3 94/1/3 98/1/3
f 100/1/3 98/1/3 99/1/3
f 103/2/3 102/2/3 101/2/3
f 104/2/3 102/2/3 103/2/3
f 105/3/3 104/3/3 103/3/3
f 106/3/3 104/3/3 105/3/3
f 107/2/3 106/2/3 105/2/3
f 108/2/3 106/2/3 107/2/3
f 109/3/3 108/3/3 107/3/3
f 110/3/3 108/3/3 109/3/3
f 111/2/3 110/2/3 109/2/3
f 112/2/3 110/2/3 111/2/3
f 113/3/3 112/3/3 111/3/3
f 114/3/3 112/3/3 113/3/3
f 115/2/3 114/2/3 113/2/3
f 116/2/3 114/2/3 115/2/3
f 119/1/3 118/1/3 117/1/3
f 120/1/3 118/1/3 119/1/3
f 125/1/3 122/1/3 121/1/3
f 126/1/3 125/1/3 121/1/3
f 127/1/3 126/1/3 121/1/3
f 128/1/3 127/1/3 121/1/3
f 129/1/3 128/1/3 121/1/3
f 130/1/3 129/1/3 121/1/3
f 131/1/3 130/1/3 121/1/3
f 132/1/3 130/1/3 131/1/3
f 133/1/3 124/1/3 123/1/3
f 134/1/3 124/1/3 133/1/3
f 137/1/3 136/1/3 135/1/3
f 138/1/3 136/1/3 137/1/3
f 139/1/4 140/1/4 141/1/4
f 141/1/4 140/1/4 142/1/4
f 143/1/4 144/1/4 147/1/4
f 143/1/4 147/1/4 148/1/4
f 143/1/4 148/1/4 149/1/4
f 143/1/4 149/1/4 150/1/4
f 143/1/4 150/1/4 151/1/4
f 143/1/4 151/1/4 152/1/4
f 143/1/4 152/1/4 153/1/4
f 153/1/4 152/1/4 154/1/4
f 145/1/4 146/1/4 155/1/4
f 155/1/4 146/1/4 156/1/4
f 157/1/4 158/1/4 159/1/4
f 159/1/4 158/1/4 160/1/4
f 161/2/4 162/2/4 163/2/4
f 163/2/4 162/2/4 164/2/4
f 163/3/4 164/3/4 165/3/4
f 165/3/4 164/3/4 166/3/4
f 165/2/4 166/2/4 167/2/4
f 167/2/4 166/2/4 168/2/4
f 167/3/4 168/3/4 169/3/4
f 169/3/4 168/3/4 170/3/4
f 169/2/4 170/2/4 171/2/4
f 171/2/4 170/2/4 172/2/4
f 171/3/4 172/3/4 173/3/4
f 173/3/4 172/3/4 174/3/4
f 173/2/4 174/2/4 175/2/4
f 175/2/4 174/2/4 176/2/4
f 177/1/4 178/1/4 179/1/4
f 179/1/4 178/1/4 180/1/4
f 177/1/4 179/1/4 181/1/4
f 180/1/4 178/1/4 182/1/4
f 177/1/4 181/1/4 183/1/4
f 181/1/4 182/1/4 183/1/4
f 182/1/4 178/1/4 184/1/4
f 183/1/4 182/1/4 184/1/4
f 187/1/5 186/1/5 185/1/5
f 188/1/5 186/1/5 187/1/5
f 189/1/5 187/1/5 185/1/5
f 190/1/5 186/1/5 188/1/5
f 191/1/5 189/1/5 185/1/5
f 191/1/5 190/1/5 189/1/5
f 192/1/5 186/1/5 190/1/5
f 192/1/5 190/1/5 191/1/5
f 201/2/5 194/2/5 193/2/5
f 202/3/5 195/3/5 194/3/5
f 202/2/5 194/2/5 201/2/5
f 203/2/5 196/2/5 195/2/5
f 203/3/5 195/3/5 202/3/5
f 204/3/5 197/3/5 196/3/5
f 204/2/5 196/2/5 203/2/5
f 205/2/5 198/2/5 197/2/5
f 205/3/5 197/3/5 204/3/5
f 206/3/5 199/3/5 198/3/5
f 206/2/5 198/2/5 205/2/5
f 207/2/5 200/2/5 199/2/5
f 207/3/5 199/3/5 206/3/5
f 208/2/5 200/2/5 207/2/5
f 211/1/5 210/1/5 209/1/5
f 212/1/5 210/1/5 211/1/5
f 213/1/5 210/1/5 212/1/5
f 214/1/5 210/1/5 213/1/5
f 215/1/5 210/1/5 214/1/5
f 216/1/5 210/1/5 215/1/5
f 217/1/5 210/1/5 216/1/5
f 218/1/5 210/1/5 217/1/5
f 223/1/5 220/1/5 219/1/5
f 224/1/5 222/1/5 221/1/5
f 225/1/5 223/1/5 219/1/5
f 226/1/5 222/1/5 224/1/5
f 227/1/5 222/1/5 226/1/5
f 228/1/5 225/1/5 219/1/5
f 229/1/5 222/1/5 227/1/5
f 230/1/5 228/1/5 219/1/5
f 231/1/5 230/1/5 219/1/5
f 232/1/5 222/1/5 229/1/5
f 233/1/5 231/1/5 219/1/5
f 234/1/5 222/1/5 232/1/5
f 235/1/5 233/1/5 219/1/5
f 236/1/5 233/1/5 235/1/5
f 237/1/5 222/1/5 234/1/5
f 238/1/5 222/1/5 237/1/5
f 247/1/5 240/1/5 239/1/5
f 247/1/5 246/1/5 245/1/5
f 247/1/5 245/1/5 244/1/5
f 247/1/5 244/1/5 243/1/5
f 247/1/5 243/1/5 242/1/5
f 247/1/5 242/1/5 241/1/5
f 247/1/5 241/1/5 240/1/5
f 248/1/5 246/1/5 247/1/5
f 249/1/6 250/1/6 251/1/6
f 251/1/6 250/1/6 252/1/6
f 252/1/6 250/1/6 253/1/6
f 253/1/6 250/1/6 254/1/6
f 254/1/6 250/1/6 255/1/6
f 255/1/6 250/1/6 256/1/6
f 256/1/6 250/1/6 257/1/6
f 257/1/6 250/1/6 258/1/6
f 259/1/6 260/1/6 263/1/6
f 261/1/6 262/1/6 264/1/6
f 259/1/6 263/1/6 265/1/6
f 264/1/6 262/1/6 266/1/6
f 266/1/6 262/1/6 267/1/6
f 259/1/6 265/1/6 268/1/6
f 267/1/6 262/1/6 269/1/6
f 259/1/6 268/1/6 270/1/6
f 259/1/6 270/1/6 271/1/6
f 269/1/6 262/1/6 272/1/6
f 259/1/6 271/1/6 273/1/6
f 272/1/6 262/1/6 274/1/6
f 259/1/6 273/1/6 275/1/6
f 275/1/6 273/1/6 276/1/6
f 274/1/6 262/1/6 277/1/6
f 277/1/6 262/1/6 278/1/6
f 279/1/6 280/1/6 287/1/6
f 285/1/6 286/1/6 287/1/6
f 284/1/6 285/1/6 287/1/6
f 283/1/6 284/1/6 287/1/6
f 282/1/6 283/1/6 287/1/6
f 281/1/6 282/1/6 287/1/6
f 280/1/6 281/1/6 287/1/6
f 287/1/6 286/1/6 288/1/6
f 289/2/6 290/2/6 291/2/6
f 291/2/6 290/2/6 292/2/6
f 291/3/6 292/3/6 293/3/6
f 293/3/6 292/3/6 294/3/6
f 293/2/6 294/2/6 295/2/6
f 295/2/6 294/2/6 296/2/6
f 295/3/6 296/3/6 297/3/6
f 297/3/6 296/3/6 298/3/6
f 297/2/6 298/2/6 299/2/6
f 299/2/6 298/2/6 300/2/6
f 299/3/6 300/3/6 301/3/6
f 301/3/6 300/3/6 302/3/6
f 301/2/6 302/2/6 303/2/6
f 303/2/6 302/2/6 304/2/6
f 305/1/6 306/1/6 307/1/6
f 307/1/6 306/1/6 308/1/6
f 305/1/6 307/1/6 309/1/6
f 308/1/6 306/1/6 310/1/6
f 305/1/6 309/1/6 311/1/6
f 309/1/6 310/1/6 311/1/6
f 310/1/6 306/1/6 312/1/6
f 311/1/6 310/1/6 312/1/6
