# MagicaVoxel @ Ephtracy

# group
o 

# material
mtllib nastyl.mtl
usemtl palette

# normals
vn -1 0 0
vn 1 0 0
vn 0 0 1
vn 0 0 -1
vn 0 -1 0
vn 0 1 0

# texcoords
vt 0.306641 0.5
vt 0.970703 0.5
vt 0.974609 0.5

# verts
v 0 1.7 -0.5
v 0 1.7 -1
v 0 1.7 -1.1
v 0 1.7 -1.6
v 0 1.7 -1.7
v 0 1.7 -2.1
v 0 1.7 -2.2
v 0 1.7 -2.7
v 0 1.8 -0.5
v 0 1.8 -1
v 0 1.8 -1.1
v 0 1.8 -1.6
v 0 1.8 -1.7
v 0 1.8 -2.1
v 0 1.8 -2.2
v 0 1.8 -2.7
v 0.1 0.8 -0.1
v 0.1 0.8 -0.5
v 0.1 0.8 -2.7
v 0.1 0.8 -3.1
v 0.1 1.2 -2.7
v 0.1 1.2 -2.9
v 0.1 1.4 -0.3
v 0.1 1.4 -0.5
v 0.1 1.5 -0.3
v 0.1 1.5 -0.5
v 0.1 1.5 -2.7
v 0.1 1.5 -2.9
v 0.1 1.7 -0.5
v 0.1 1.7 -2.7
v 0.1 1.8 -0.5
v 0.1 1.8 -2.7
v 0.1 2 -3
v 0.1 2 -3.1
v 0.1 2.1 -0.2
v 0.1 2.1 -0.3
v 0.1 2.2 -0.1
v 0.1 2.2 -0.2
v 0.1 2.2 -3
v 0.1 2.2 -3.1
v 0.1 2.3 -0.3
v 0.1 2.3 -0.5
v 0.1 2.4 -2.7
v 0.1 2.4 -3.1
v 0.2 1.2 -2.7
v 0.2 1.2 -2.9
v 0.2 1.4 -0.3
v 0.2 1.4 -0.5
v 0.2 1.5 -0.3
v 0.2 1.5 -0.5
v 0.2 1.5 -2.7
v 0.2 1.5 -2.9
v 0.2 2 -3
v 0.2 2 -3.1
v 0.2 2.1 -0.2
v 0.2 2.1 -0.3
v 0.2 2.2 -0.2
v 0.2 2.2 -0.3
v 0.2 2.2 -3
v 0.2 2.2 -3.1
v 0.5 1.5 0
v 0.5 1.5 -0.1
v 0.5 1.5 -0.5
v 0.5 1.5 -2.7
v 0.5 1.5 -3.1
v 0.5 1.5 -3.2
v 0.5 1.7 0
v 0.5 1.7 -0.1
v 0.5 1.7 -0.5
v 0.5 1.7 -1
v 0.5 1.7 -1.1
v 0.5 1.7 -1.6
v 0.5 1.7 -1.7
v 0.5 1.7 -2.1
v 0.5 1.7 -2.2
v 0.5 1.7 -2.7
v 0.5 1.7 -3.1
v 0.5 1.7 -3.2
v 2.5 1.5 0
v 2.5 1.5 -3.2
v 2.5 1.7 0
v 2.5 1.7 -0.5
v 2.5 1.7 -1
v 2.5 1.7 -1.1
v 2.5 1.7 -1.6
v 2.5 1.7 -1.7
v 2.5 1.7 -2.1
v 2.5 1.7 -2.2
v 2.5 1.7 -2.7
v 2.5 1.7 -3.2
v 2.7 0.8 -0.1
v 2.7 0.8 -0.5
v 2.7 0.8 -2.7
v 2.7 0.8 -3
v 2.7 1 -3
v 2.7 1 -3.1
v 2.7 1.5 -0.1
v 2.7 1.5 -0.5
v 2.7 1.5 -2.7
v 2.7 1.5 -3.1
v 2.7 1.7 -0.1
v 2.7 1.7 -0.5
v 2.7 1.7 -2.7
v 2.7 1.7 -3.1
v 2.7 1.8 -0.5
v 2.7 1.8 -2.7
v 2.7 2.1 -2.7
v 2.7 2.1 -3.1
v 2.7 2.2 -0.1
v 2.7 2.2 -0.5
v 2.8 0.8 -3
v 2.8 0.8 -3.1
v 2.8 1 -3
v 2.8 1 -3.1
v 3 2 -2.8
v 3 2 -3
v 3 2.1 -2.8
v 3 2.1 -3
v 0.5 0.8 -0.1
v 0.5 0.8 -0.5
v 0.5 0.8 -2.7
v 0.5 0.8 -3.1
v 0.5 1.5 -0.1
v 0.5 1.5 -0.5
v 0.5 1.5 -2.7
v 0.5 1.5 -3.1
v 0.5 1.7 -0.1
v 0.5 1.7 -0.5
v 0.5 1.7 -2.7
v 0.5 1.7 -3.1
v 0.5 1.8 -0.5
v 0.5 1.8 -2.7
v 0.5 2.2 -0.1
v 0.5 2.2 -0.3
v 0.5 2.3 -0.3
v 0.5 2.3 -0.5
v 0.5 2.4 -2.7
v 0.5 2.4 -3.1
v 0.7 1.5 0
v 0.7 1.5 -3.2
v 0.7 1.7 0
v 0.7 1.7 -0.5
v 0.7 1.7 -1
v 0.7 1.7 -1.1
v 0.7 1.7 -1.6
v 0.7 1.7 -1.7
v 0.7 1.7 -2.1
v 0.7 1.7 -2.2
v 0.7 1.7 -2.7
v 0.7 1.7 -3.2
v 2.7 1.5 0
v 2.7 1.5 -0.1
v 2.7 1.5 -0.5
v 2.7 1.5 -2.7
v 2.7 1.5 -3.1
v 2.7 1.5 -3.2
v 2.7 1.7 0
v 2.7 1.7 -0.1
v 2.7 1.7 -0.5
v 2.7 1.7 -1
v 2.7 1.7 -1.1
v 2.7 1.7 -1.6
v 2.7 1.7 -1.7
v 2.7 1.7 -2.1
v 2.7 1.7 -2.2
v 2.7 1.7 -2.7
v 2.7 1.7 -3.1
v 2.7 1.7 -3.2
v 2.8 2 -2.8
v 2.8 2 -3
v 2.8 2.1 -2.8
v 2.8 2.1 -3
v 3 1 -2.7
v 3 1 -2.8
v 3 1.3 -2.7
v 3 1.3 -2.8
v 3 1.4 -3
v 3 1.4 -3.1
v 3 1.6 -3
v 3 1.6 -3.1
v 3 1.7 -0.2
v 3 1.7 -0.3
v 3 2.2 -0.2
v 3 2.2 -0.3
v 3.1 0.8 -0.1
v 3.1 0.8 -0.5
v 3.1 0.8 -2.7
v 3.1 0.8 -3.1
v 3.1 1 -2.7
v 3.1 1 -2.8
v 3.1 1.3 -2.7
v 3.1 1.3 -2.8
v 3.1 1.4 -3
v 3.1 1.4 -3.1
v 3.1 1.6 -3
v 3.1 1.6 -3.1
v 3.1 1.7 -0.2
v 3.1 1.7 -0.3
v 3.1 1.7 -0.5
v 3.1 1.7 -2.7
v 3.1 1.8 -0.5
v 3.1 1.8 -2.7
v 3.1 2.1 -2.7
v 3.1 2.1 -3.1
v 3.1 2.2 -0.1
v 3.1 2.2 -0.2
v 3.1 2.2 -0.3
v 3.1 2.2 -0.5
v 3.2 1.7 -0.5
v 3.2 1.7 -1
v 3.2 1.7 -1.1
v 3.2 1.7 -1.6
v 3.2 1.7 -1.7
v 3.2 1.7 -2.1
v 3.2 1.7 -2.2
v 3.2 1.7 -2.7
v 3.2 1.8 -0.5
v 3.2 1.8 -1
v 3.2 1.8 -1.1
v 3.2 1.8 -1.6
v 3.2 1.8 -1.7
v 3.2 1.8 -2.1
v 3.2 1.8 -2.2
v 3.2 1.8 -2.7
v 0.5 1.5 0
v 0.5 1.7 0
v 0.7 1.5 0
v 0.7 1.7 0
v 2.5 1.5 0
v 2.5 1.7 0
v 2.7 1.5 0
v 2.7 1.7 0
v 0.1 0.8 -0.1
v 0.1 2.2 -0.1
v 0.5 0.8 -0.1
v 0.5 1.5 -0.1
v 0.5 1.7 -0.1
v 0.5 2.2 -0.1
v 2.7 0.8 -0.1
v 2.7 1.5 -0.1
v 2.7 1.7 -0.1
v 2.7 2.2 -0.1
v 3.1 0.8 -0.1
v 3.1 2.2 -0.1
v 0.1 2.1 -0.3
v 0.1 2.3 -0.3
v 0.2 2.1 -0.3
v 0.2 2.2 -0.3
v 0.2 2.3 -0.3
v 0.4 2.2 -0.3
v 0.4 2.3 -0.3
v 0.5 2.2 -0.3
v 0.5 2.3 -0.3
v 3 1.7 -0.3
v 3 2.2 -0.3
v 3.1 1.7 -0.3
v 3.1 2.2 -0.3
v 0 1.7 -0.5
v 0 1.8 -0.5
v 0.1 1.7 -0.5
v 0.1 1.8 -0.5
v 0.5 1.7 -0.5
v 0.5 1.8 -0.5
v 0.7 1.7 -0.5
v 2.5 1.7 -0.5
v 2.7 1.7 -0.5
v 2.7 1.8 -0.5
v 3.1 1.7 -0.5
v 3.1 1.8 -0.5
v 3.2 1.7 -0.5
v 3.2 1.8 -0.5
v 0 1.7 -1.1
v 0 1.8 -1.1
v 0.5 1.7 -1.1
v 0.7 1.7 -1.1
v 2.5 1.7 -1.1
v 2.7 1.7 -1.1
v 3.2 1.7 -1.1
v 3.2 1.8 -1.1
v 0 1.7 -1.7
v 0 1.8 -1.7
v 0.5 1.7 -1.7
v 0.7 1.7 -1.7
v 2.5 1.7 -1.7
v 2.7 1.7 -1.7
v 3.2 1.7 -1.7
v 3.2 1.8 -1.7
v 0 1.7 -2.2
v 0 1.8 -2.2
v 0.5 1.7 -2.2
v 0.7 1.7 -2.2
v 2.5 1.7 -2.2
v 2.7 1.7 -2.2
v 3.2 1.7 -2.2
v 3.2 1.8 -2.2
v 0.1 0.8 -2.7
v 0.1 1.2 -2.7
v 0.1 1.5 -2.7
v 0.1 1.7 -2.7
v 0.1 1.8 -2.7
v 0.1 2.4 -2.7
v 0.2 1.2 -2.7
v 0.2 1.5 -2.7
v 0.5 0.8 -2.7
v 0.5 1.5 -2.7
v 0.5 1.7 -2.7
v 0.5 1.8 -2.7
v 0.5 2.4 -2.7
v 2.7 0.8 -2.7
v 2.7 1.5 -2.7
v 2.7 1.7 -2.7
v 2.7 1.8 -2.7
v 2.7 2.1 -2.7
v 3 1 -2.7
v 3 1.3 -2.7
v 3.1 0.8 -2.7
v 3.1 1 -2.7
v 3.1 1.3 -2.7
v 3.1 1.7 -2.7
v 3.1 1.8 -2.7
v 3.1 2.1 -2.7
v 3 1 -2.8
v 3 1.3 -2.8
v 3.1 1 -2.8
v 3.1 1.3 -2.8
v 0.1 1.2 -2.9
v 0.1 1.5 -2.9
v 0.2 1.2 -2.9
v 0.2 1.5 -2.9
v 2.8 2 -3
v 2.8 2.1 -3
v 3 2 -3
v 3 2.1 -3
v 0.1 2.1 -0.2
v 0.1 2.2 -0.2
v 0.2 2.1 -0.2
v 0.2 2.2 -0.2
v 3 1.7 -0.2
v 3 2.2 -0.2
v 3.1 1.7 -0.2
v 3.1 2.2 -0.2
v 0.1 1.4 -0.3
v 0.1 1.5 -0.3
v 0.2 1.4 -0.3
v 0.2 1.5 -0.3
v 0.1 0.8 -0.5
v 0.1 1.4 -0.5
v 0.1 1.5 -0.5
v 0.1 1.7 -0.5
v 0.1 1.8 -0.5
v 0.1 2.3 -0.5
v 0.2 1.4 -0.5
v 0.2 1.5 -0.5
v 0.5 0.8 -0.5
v 0.5 1.5 -0.5
v 0.5 1.7 -0.5
v 0.5 1.8 -0.5
v 0.5 2.3 -0.5
v 2.7 0.8 -0.5
v 2.7 1.5 -0.5
v 2.7 1.7 -0.5
v 2.7 1.8 -0.5
v 2.7 2.2 -0.5
v 3.1 0.8 -0.5
v 3.1 1.7 -0.5
v 3.1 1.8 -0.5
v 3.1 2.2 -0.5
v 0 1.7 -1
v 0 1.8 -1
v 0.5 1.7 -1
v 0.7 1.7 -1
v 2.5 1.7 -1
v 2.7 1.7 -1
v 3.2 1.7 -1
v 3.2 1.8 -1
v 0 1.7 -1.6
v 0 1.8 -1.6
v 0.5 1.7 -1.6
v 0.7 1.7 -1.6
v 2.5 1.7 -1.6
v 2.7 1.7 -1.6
v 3.2 1.7 -1.6
v 3.2 1.8 -1.6
v 0 1.7 -2.1
v 0 1.8 -2.1
v 0.5 1.7 -2.1
v 0.7 1.7 -2.1
v 2.5 1.7 -2.1
v 2.7 1.7 -2.1
v 3.2 1.7 -2.1
v 3.2 1.8 -2.1
v 0 1.7 -2.7
v 0 1.8 -2.7
v 0.1 1.7 -2.7
v 0.1 1.8 -2.7
v 0.5 1.7 -2.7
v 0.5 1.8 -2.7
v 0.7 1.7 -2.7
v 2.5 1.7 -2.7
v 2.7 1.7 -2.7
v 2.7 1.8 -2.7
v 3.1 1.7 -2.7
v 3.1 1.8 -2.7
v 3.2 1.7 -2.7
v 3.2 1.8 -2.7
v 2.8 2 -2.8
v 2.8 2.1 -2.8
v 3 2 -2.8
v 3 2.1 -2.8
v 0.1 2 -3
v 0.1 2.2 -3
v 0.2 2 -3
v 0.2 2.2 -3
v 2.7 0.8 -3
v 2.7 1 -3
v 2.8 0.8 -3
v 2.8 1 -3
v 3 1.4 -3
v 3 1.6 -3
v 3.1 1.4 -3
v 3.1 1.6 -3
v 0.1 0.8 -3.1
v 0.1 2 -3.1
v 0.1 2.2 -3.1
v 0.1 2.4 -3.1
v 0.2 2 -3.1
v 0.2 2.2 -3.1
v 0.5 0.8 -3.1
v 0.5 1.5 -3.1
v 0.5 1.7 -3.1
v 0.5 2.4 -3.1
v 2.7 1 -3.1
v 2.7 1.5 -3.1
v 2.7 1.7 -3.1
v 2.7 2.1 -3.1
v 2.8 0.8 -3.1
v 2.8 1 -3.1
v 3 1.4 -3.1
v 3 1.6 -3.1
v 3.1 0.8 -3.1
v 3.1 1.4 -3.1
v 3.1 1.6 -3.1
v 3.1 2.1 -3.1
v 0.5 1.5 -3.2
v 0.5 1.7 -3.2
v 0.7 1.5 -3.2
v 0.7 1.7 -3.2
v 2.5 1.5 -3.2
v 2.5 1.7 -3.2
v 2.7 1.5 -3.2
v 2.7 1.7 -3.2
v 0.1 0.8 -0.1
v 0.5 0.8 -0.1
v 2.7 0.8 -0.1
v 3.1 0.8 -0.1
v 0.1 0.8 -0.5
v 0.5 0.8 -0.5
v 2.7 0.8 -0.5
v 3.1 0.8 -0.5
v 0.1 0.8 -2.7
v 0.5 0.8 -2.7
v 2.7 0.8 -2.7
v 3.1 0.8 -2.7
v 2.7 0.8 -3
v 2.8 0.8 -3
v 0.1 0.8 -3.1
v 0.5 0.8 -3.1
v 2.8 0.8 -3.1
v 3.1 0.8 -3.1
v 2.7 1 -3
v 2.8 1 -3
v 2.7 1 -3.1
v 2.8 1 -3.1
v 3 1.3 -2.7
v 3.1 1.3 -2.7
v 3 1.3 -2.8
v 3.1 1.3 -2.8
v 0.5 1.5 0
v 0.7 1.5 0
v 2.5 1.5 0
v 2.7 1.5 0
v 0.5 1.5 -0.1
v 2.7 1.5 -0.1
v 0.1 1.5 -0.3
v 0.2 1.5 -0.3
v 0.1 1.5 -0.5
v 0.2 1.5 -0.5
v 0.5 1.5 -0.5
v 2.7 1.5 -0.5
v 0.1 1.5 -2.7
v 0.2 1.5 -2.7
v 0.5 1.5 -2.7
v 2.7 1.5 -2.7
v 0.1 1.5 -2.9
v 0.2 1.5 -2.9
v 0.5 1.5 -3.1
v 2.7 1.5 -3.1
v 0.5 1.5 -3.2
v 0.7 1.5 -3.2
v 2.5 1.5 -3.2
v 2.7 1.5 -3.2
v 3 1.6 -3
v 3.1 1.6 -3
v 3 1.6 -3.1
v 3.1 1.6 -3.1
v 0 1.7 -0.5
v 0.1 1.7 -0.5
v 0.5 1.7 -0.5
v 0.7 1.7 -0.5
v 2.5 1.7 -0.5
v 2.7 1.7 -0.5
v 3.1 1.7 -0.5
v 3.2 1.7 -0.5
v 0 1.7 -1
v 0.5 1.7 -1
v 0.7 1.7 -1
v 2.5 1.7 -1
v 2.7 1.7 -1
v 3.2 1.7 -1
v 0 1.7 -1.1
v 0.5 1.7 -1.1
v 0.7 1.7 -1.1
v 2.5 1.7 -1.1
v 2.7 1.7 -1.1
v 3.2 1.7 -1.1
v 0 1.7 -1.6
v 0.5 1.7 -1.6
v 0.7 1.7 -1.6
v 2.5 1.7 -1.6
v 2.7 1.7 -1.6
v 3.2 1.7 -1.6
v 0 1.7 -1.7
v 0.5 1.7 -1.7
v 0.7 1.7 -1.7
v 2.5 1.7 -1.7
v 2.7 1.7 -1.7
v 3.2 1.7 -1.7
v 0 1.7 -2.1
v 0.5 1.7 -2.1
v 0.7 1.7 -2.1
v 2.5 1.7 -2.1
v 2.7 1.7 -2.1
v 3.2 1.7 -2.1
v 0 1.7 -2.2
v 0.5 1.7 -2.2
v 0.7 1.7 -2.2
v 2.5 1.7 -2.2
v 2.7 1.7 -2.2
v 3.2 1.7 -2.2
v 0 1.7 -2.7
v 0.1 1.7 -2.7
v 0.5 1.7 -2.7
v 0.7 1.7 -2.7
v 2.5 1.7 -2.7
v 2.7 1.7 -2.7
v 3.1 1.7 -2.7
v 3.2 1.7 -2.7
v 0.1 2.2 -3
v 0.2 2.2 -3
v 0.1 2.2 -3.1
v 0.2 2.2 -3.1
v 3 1 -2.7
v 3.1 1 -2.7
v 3 1 -2.8
v 3.1 1 -2.8
v 0.1 1.2 -2.7
v 0.2 1.2 -2.7
v 0.1 1.2 -2.9
v 0.2 1.2 -2.9
v 0.1 1.4 -0.3
v 0.2 1.4 -0.3
v 0.1 1.4 -0.5
v 0.2 1.4 -0.5
v 3 1.4 -3
v 3.1 1.4 -3
v 3 1.4 -3.1
v 3.1 1.4 -3.1
v 0.5 1.7 0
v 0.7 1.7 0
v 2.5 1.7 0
v 2.7 1.7 0
v 0.5 1.7 -0.1
v 2.7 1.7 -0.1
v 3 1.7 -0.2
v 3.1 1.7 -0.2
v 3 1.7 -0.3
v 3.1 1.7 -0.3
v 0.5 1.7 -0.5
v 0.7 1.7 -0.5
v 2.5 1.7 -0.5
v 2.7 1.7 -0.5
v 0.5 1.7 -1
v 0.7 1.7 -1
v 2.5 1.7 -1
v 2.7 1.7 -1
v 0.5 1.7 -1.1
v 0.7 1.7 -1.1
v 2.5 1.7 -1.1
v 2.7 1.7 -1.1
v 0.5 1.7 -1.6
v 0.7 1.7 -1.6
v 2.5 1.7 -1.6
v 2.7 1.7 -1.6
v 0.5 1.7 -1.7
v 0.7 1.7 -1.7
v 2.5 1.7 -1.7
v 2.7 1.7 -1.7
v 0.5 1.7 -2.1
v 0.7 1.7 -2.1
v 2.5 1.7 -2.1
v 2.7 1.7 -2.1
v 0.5 1.7 -2.2
v 0.7 1.7 -2.2
v 2.5 1.7 -2.2
v 2.7 1.7 -2.2
v 0.5 1.7 -2.7
v 0.7 1.7 -2.7
v 2.5 1.7 -2.7
v 2.7 1.7 -2.7
v 0.5 1.7 -3.1
v 2.7 1.7 -3.1
v 0.5 1.7 -3.2
v 0.7 1.7 -3.2
v 2.5 1.7 -3.2
v 2.7 1.7 -3.2
v 0 1.8 -0.5
v 0.1 1.8 -0.5
v 0.5 1.8 -0.5
v 2.7 1.8 -0.5
v 3.1 1.8 -0.5
v 3.2 1.8 -0.5
v 0 1.8 -1
v 3.2 1.8 -1
v 0 1.8 -1.1
v 3.2 1.8 -1.1
v 0 1.8 -1.6
v 3.2 1.8 -1.6
v 0 1.8 -1.7
v 3.2 1.8 -1.7
v 0 1.8 -2.1
v 3.2 1.8 -2.1
v 0 1.8 -2.2
v 3.2 1.8 -2.2
v 0 1.8 -2.7
v 0.1 1.8 -2.7
v 0.5 1.8 -2.7
v 2.7 1.8 -2.7
v 3.1 1.8 -2.7
v 3.2 1.8 -2.7
v 2.8 2 -2.8
v 3 2 -2.8
v 0.1 2 -3
v 0.2 2 -3
v 2.8 2 -3
v 3 2 -3
v 0.1 2 -3.1
v 0.2 2 -3.1
v 0.1 2.1 -0.2
v 0.2 2.1 -0.2
v 0.1 2.1 -0.3
v 0.2 2.1 -0.3
v 2.7 2.1 -2.7
v 3.1 2.1 -2.7
v 2.8 2.1 -2.8
v 3 2.1 -2.8
v 2.8 2.1 -3
v 3 2.1 -3
v 2.7 2.1 -3.1
v 3.1 2.1 -3.1
v 0.1 2.2 -0.1
v 0.5 2.2 -0.1
v 2.7 2.2 -0.1
v 3.1 2.2 -0.1
v 0.1 2.2 -0.2
v 0.2 2.2 -0.2
v 0.4 2.2 -0.2
v 2.8 2.2 -0.2
v 3 2.2 -0.2
v 3.1 2.2 -0.2
v 0.2 2.2 -0.3
v 0.4 2.2 -0.3
v 0.5 2.2 -0.3
v 3 2.2 -0.3
v 3.1 2.2 -0.3
v 2.8 2.2 -0.4
v 3 2.2 -0.4
v 2.7 2.2 -0.5
v 3.1 2.2 -0.5
v 0.1 2.3 -0.3
v 0.2 2.3 -0.3
v 0.4 2.3 -0.3
v 0.5 2.3 -0.3
v 0.2 2.3 -0.4
v 0.4 2.3 -0.4
v 0.1 2.3 -0.5
v 0.5 2.3 -0.5
v 0.1 2.4 -2.7
v 0.5 2.4 -2.7
v 0.2 2.4 -2.8
v 0.4 2.4 -2.8
v 0.2 2.4 -3
v 0.4 2.4 -3
v 0.1 2.4 -3.1
v 0.5 2.4 -3.1

# faces
f 9/2/1 2/2/1 1/2/1
f 10/2/1 2/2/1 9/2/1
f 11/2/1 4/2/1 3/2/1
f 12/2/1 4/2/1 11/2/1
f 13/2/1 6/2/1 5/2/1
f 14/2/1 6/2/1 13/2/1
f 15/2/1 8/2/1 7/2/1
f 16/2/1 8/2/1 15/2/1
f 21/2/1 20/2/1 19/2/1
f 22/2/1 20/2/1 21/2/1
f 23/2/1 18/2/1 17/2/1
f 24/2/1 18/2/1 23/2/1
f 25/2/1 23/2/1 17/2/1
f 28/2/1 20/2/1 22/2/1
f 29/2/1 26/2/1 25/2/1
f 30/2/1 28/2/1 27/2/1
f 31/2/1 29/2/1 25/2/1
f 32/2/1 28/2/1 30/2/1
f 33/2/1 20/2/1 28/2/1
f 33/2/1 28/2/1 32/2/1
f 34/2/1 20/2/1 33/2/1
f 35/2/1 25/2/1 17/2/1
f 35/2/1 31/2/1 25/2/1
f 36/2/1 31/2/1 35/2/1
f 37/2/1 35/2/1 17/2/1
f 38/2/1 35/2/1 37/2/1
f 39/2/1 33/2/1 32/2/1
f 41/2/1 31/2/1 36/2/1
f 42/2/1 31/2/1 41/2/1
f 43/2/1 40/2/1 39/2/1
f 43/2/1 39/2/1 32/2/1
f 44/2/1 40/2/1 43/2/1
f 49/2/1 48/2/1 47/2/1
f 50/2/1 48/2/1 49/2/1
f 51/2/1 46/2/1 45/2/1
f 52/2/1 46/2/1 51/2/1
f 57/3/1 56/3/1 55/3/1
f 58/3/1 56/3/1 57/3/1
f 59/2/1 54/2/1 53/2/1
f 60/2/1 54/2/1 59/2/1
f 67/3/1 62/3/1 61/3/1
f 68/3/1 62/3/1 67/3/1
f 69/3/1 64/3/1 63/3/1
f 70/3/1 64/3/1 69/3/1
f 71/3/1 64/3/1 70/3/1
f 72/3/1 64/3/1 71/3/1
f 73/3/1 64/3/1 72/3/1
f 74/3/1 64/3/1 73/3/1
f 75/3/1 64/3/1 74/3/1
f 76/3/1 64/3/1 75/3/1
f 77/3/1 66/3/1 65/3/1
f 78/3/1 66/3/1 77/3/1
f 81/3/1 80/3/1 79/3/1
f 82/3/1 80/3/1 81/3/1
f 83/3/1 80/3/1 82/3/1
f 84/3/1 80/3/1 83/3/1
f 85/3/1 80/3/1 84/3/1
f 86/3/1 80/3/1 85/3/1
f 87/3/1 80/3/1 86/3/1
f 88/3/1 80/3/1 87/3/1
f 89/3/1 80/3/1 88/3/1
f 90/3/1 80/3/1 89/3/1
f 95/2/1 94/2/1 93/2/1
f 97/2/1 92/2/1 91/2/1
f 98/2/1 92/2/1 97/2/1
f 99/2/1 96/2/1 95/2/1
f 99/2/1 95/2/1 93/2/1
f 100/2/1 96/2/1 99/2/1
f 105/2/1 102/2/1 101/2/1
f 106/2/1 104/2/1 103/2/1
f 107/2/1 104/2/1 106/2/1
f 108/2/1 104/2/1 107/2/1
f 109/2/1 105/2/1 101/2/1
f 110/2/1 105/2/1 109/2/1
f 113/2/1 112/2/1 111/2/1
f 114/2/1 112/2/1 113/2/1
f 117/2/1 116/2/1 115/2/1
f 118/2/1 116/2/1 117/2/1
f 119/2/2 120/2/2 123/2/2
f 123/2/2 120/2/2 124/2/2
f 121/2/2 122/2/2 125/2/2
f 125/2/2 122/2/2 126/2/2
f 127/2/2 128/2/2 131/2/2
f 129/2/2 130/2/2 132/2/2
f 127/2/2 131/2/2 133/2/2
f 133/2/2 131/2/2 134/2/2
f 134/2/2 131/2/2 135/2/2
f 135/2/2 131/2/2 136/2/2
f 132/2/2 130/2/2 137/2/2
f 137/2/2 130/2/2 138/2/2
f 139/3/2 140/3/2 141/3/2
f 141/3/2 140/3/2 142/3/2
f 142/3/2 140/3/2 143/3/2
f 143/3/2 140/3/2 144/3/2
f 144/3/2 140/3/2 145/3/2
f 145/3/2 140/3/2 146/3/2
f 146/3/2 140/3/2 147/3/2
f 147/3/2 140/3/2 148/3/2
f 148/3/2 140/3/2 149/3/2
f 149/3/2 140/3/2 150/3/2
f 151/3/2 152/3/2 157/3/2
f 157/3/2 152/3/2 158/3/2
f 153/3/2 154/3/2 159/3/2
f 159/3/2 154/3/2 160/3/2
f 160/3/2 154/3/2 161/3/2
f 161/3/2 154/3/2 162/3/2
f 162/3/2 154/3/2 163/3/2
f 163/3/2 154/3/2 164/3/2
f 164/3/2 154/3/2 165/3/2
f 165/3/2 154/3/2 166/3/2
f 155/3/2 156/3/2 167/3/2
f 167/3/2 156/3/2 168/3/2
f 169/2/2 170/2/2 171/2/2
f 171/2/2 170/2/2 172/2/2
f 173/2/2 174/2/2 175/2/2
f 175/2/2 174/2/2 176/2/2
f 177/2/2 178/2/2 179/2/2
f 179/2/2 178/2/2 180/2/2
f 181/3/2 182/3/2 183/3/2
f 183/3/2 182/3/2 184/3/2
f 187/2/2 188/2/2 189/2/2
f 189/2/2 188/2/2 190/2/2
f 190/2/2 188/2/2 192/2/2
f 192/2/2 188/2/2 193/2/2
f 191/2/2 192/2/2 193/2/2
f 193/2/2 188/2/2 194/2/2
f 191/2/2 193/2/2 195/2/2
f 185/2/2 186/2/2 197/2/2
f 197/2/2 186/2/2 198/2/2
f 198/2/2 186/2/2 199/2/2
f 195/2/2 196/2/2 200/2/2
f 191/2/2 195/2/2 200/2/2
f 198/2/2 199/2/2 201/2/2
f 200/2/2 196/2/2 202/2/2
f 202/2/2 196/2/2 203/2/2
f 203/2/2 196/2/2 204/2/2
f 185/2/2 197/2/2 205/2/2
f 205/2/2 197/2/2 206/2/2
f 198/2/2 201/2/2 207/2/2
f 207/2/2 201/2/2 208/2/2
f 209/2/2 210/2/2 217/2/2
f 217/2/2 210/2/2 218/2/2
f 211/2/2 212/2/2 219/2/2
f 219/2/2 212/2/2 220/2/2
f 213/2/2 214/2/2 221/2/2
f 221/2/2 214/2/2 222/2/2
f 215/2/2 216/2/2 223/2/2
f 223/2/2 216/2/2 224/2/2
f 227/3/3 226/3/3 225/3/3
f 228/3/3 226/3/3 227/3/3
f 231/3/3 230/3/3 229/3/3
f 232/3/3 230/3/3 231/3/3
f 235/2/3 234/2/3 233/2/3
f 236/2/3 234/2/3 235/2/3
f 237/2/3 234/2/3 236/2/3
f 238/2/3 234/2/3 237/2/3
f 243/2/3 240/2/3 239/2/3
f 243/2/3 242/2/3 241/2/3
f 243/2/3 241/2/3 240/2/3
f 244/2/3 242/2/3 243/2/3
f 247/2/3 246/2/3 245/2/3
f 248/2/3 246/2/3 247/2/3
f 249/2/3 246/2/3 248/2/3
f 250/3/3 249/3/3 248/3/3
f 251/3/3 249/3/3 250/3/3
f 252/2/3 251/2/3 250/2/3
f 253/2/3 251/2/3 252/2/3
f 256/2/3 255/2/3 254/2/3
f 257/2/3 255/2/3 256/2/3
f 260/2/3 259/2/3 258/2/3
f 261/2/3 259/2/3 260/2/3
f 264/2/3 263/2/3 262/2/3
f 265/2/3 263/2/3 264/2/3
f 266/2/3 263/2/3 265/2/3
f 267/2/3 263/2/3 266/2/3
f 270/2/3 269/2/3 268/2/3
f 271/2/3 269/2/3 270/2/3
f 274/2/3 273/2/3 272/2/3
f 275/2/3 273/2/3 274/2/3
f 276/2/3 273/2/3 275/2/3
f 277/2/3 273/2/3 276/2/3
f 278/2/3 273/2/3 277/2/3
f 279/2/3 273/2/3 278/2/3
f 282/2/3 281/2/3 280/2/3
f 283/2/3 281/2/3 282/2/3
f 284/2/3 281/2/3 283/2/3
f 285/2/3 281/2/3 284/2/3
f 286/2/3 281/2/3 285/2/3
f 287/2/3 281/2/3 286/2/3
f 290/2/3 289/2/3 288/2/3
f 291/2/3 289/2/3 290/2/3
f 292/2/3 289/2/3 291/2/3
f 293/2/3 289/2/3 292/2/3
f 294/2/3 289/2/3 293/2/3
f 295/2/3 289/2/3 294/2/3
f 302/2/3 297/2/3 296/2/3
f 303/2/3 299/2/3 298/2/3
f 304/2/3 302/2/3 296/2/3
f 304/2/3 303/2/3 302/2/3
f 305/2/3 299/2/3 303/2/3
f 305/2/3 303/2/3 304/2/3
f 306/2/3 299/2/3 305/2/3
f 307/2/3 301/2/3 300/2/3
f 308/2/3 301/2/3 307/2/3
f 314/2/3 310/2/3 309/2/3
f 314/2/3 311/2/3 310/2/3
f 315/2/3 311/2/3 314/2/3
f 316/2/3 314/2/3 309/2/3
f 317/2/3 314/2/3 316/2/3
f 318/2/3 311/2/3 315/2/3
f 319/2/3 311/2/3 318/2/3
f 320/2/3 313/2/3 312/2/3
f 321/2/3 313/2/3 320/2/3
f 324/2/3 323/2/3 322/2/3
f 325/2/3 323/2/3 324/2/3
f 328/2/3 327/2/3 326/2/3
f 329/2/3 327/2/3 328/2/3
f 332/2/3 331/2/3 330/2/3
f 333/2/3 331/2/3 332/2/3
f 334/2/4 335/2/4 336/2/4
f 336/2/4 335/2/4 337/2/4
f 338/2/4 339/2/4 340/2/4
f 340/2/4 339/2/4 341/2/4
f 342/2/4 343/2/4 344/2/4
f 344/2/4 343/2/4 345/2/4
f 346/2/4 347/2/4 352/2/4
f 348/2/4 349/2/4 353/2/4
f 346/2/4 352/2/4 354/2/4
f 352/2/4 353/2/4 354/2/4
f 353/2/4 349/2/4 355/2/4
f 354/2/4 353/2/4 355/2/4
f 355/2/4 349/2/4 356/2/4
f 350/2/4 351/2/4 357/2/4
f 357/2/4 351/2/4 358/2/4
f 359/2/4 360/2/4 364/2/4
f 360/2/4 361/2/4 364/2/4
f 364/2/4 361/2/4 365/2/4
f 362/2/4 363/2/4 366/2/4
f 366/2/4 363/2/4 367/2/4
f 368/2/4 369/2/4 370/2/4
f 370/2/4 369/2/4 371/2/4
f 371/2/4 369/2/4 372/2/4
f 372/2/4 369/2/4 373/2/4
f 373/2/4 369/2/4 374/2/4
f 374/2/4 369/2/4 375/2/4
f 376/2/4 377/2/4 378/2/4
f 378/2/4 377/2/4 379/2/4
f 379/2/4 377/2/4 380/2/4
f 380/2/4 377/2/4 381/2/4
f 381/2/4 377/2/4 382/2/4
f 382/2/4 377/2/4 383/2/4
f 384/2/4 385/2/4 386/2/4
f 386/2/4 385/2/4 387/2/4
f 387/2/4 385/2/4 388/2/4
f 388/2/4 385/2/4 389/2/4
f 389/2/4 385/2/4 390/2/4
f 390/2/4 385/2/4 391/2/4
f 392/2/4 393/2/4 394/2/4
f 394/2/4 393/2/4 395/2/4
f 396/2/4 397/2/4 398/2/4
f 398/2/4 397/2/4 399/2/4
f 399/2/4 397/2/4 400/2/4
f 400/2/4 397/2/4 401/2/4
f 402/2/4 403/2/4 404/2/4
f 404/2/4 403/2/4 405/2/4
f 406/2/4 407/2/4 408/2/4
f 408/2/4 407/2/4 409/2/4
f 410/2/4 411/2/4 412/2/4
f 412/2/4 411/2/4 413/2/4
f 414/2/4 415/2/4 416/2/4
f 416/2/4 415/2/4 417/2/4
f 418/2/4 419/2/4 420/2/4
f 420/2/4 419/2/4 421/2/4
f 422/2/4 423/2/4 426/2/4
f 424/2/4 425/2/4 427/2/4
f 422/2/4 426/2/4 428/2/4
f 426/2/4 427/2/4 428/2/4
f 428/2/4 427/2/4 429/2/4
f 429/2/4 427/2/4 430/2/4
f 427/2/4 425/2/4 431/2/4
f 430/2/4 427/2/4 431/2/4
f 432/2/4 433/2/4 437/2/4
f 434/2/4 435/2/4 437/2/4
f 433/2/4 434/2/4 437/2/4
f 437/2/4 435/2/4 438/2/4
f 436/2/4 437/2/4 438/2/4
f 438/2/4 435/2/4 439/2/4
f 436/2/4 438/2/4 440/2/4
f 440/2/4 438/2/4 441/2/4
f 439/2/4 435/2/4 442/2/4
f 442/2/4 435/2/4 443/2/4
f 444/3/4 445/3/4 446/3/4
f 446/3/4 445/3/4 447/3/4
f 448/3/4 449/3/4 450/3/4
f 450/3/4 449/3/4 451/3/4
f 456/2/5 453/2/5 452/2/5
f 457/2/5 453/2/5 456/2/5
f 458/2/5 455/2/5 454/2/5
f 459/2/5 455/2/5 458/2/5
f 464/2/5 463/2/5 462/2/5
f 465/2/5 463/2/5 464/2/5
f 466/2/5 461/2/5 460/2/5
f 467/2/5 461/2/5 466/2/5
f 468/2/5 463/2/5 465/2/5
f 469/2/5 463/2/5 468/2/5
f 472/2/5 471/2/5 470/2/5
f 473/2/5 471/2/5 472/2/5
f 476/2/5 475/2/5 474/2/5
f 477/2/5 475/2/5 476/2/5
f 482/3/5 479/3/5 478/3/5
f 483/3/5 481/3/5 480/3/5
f 486/2/5 485/2/5 484/2/5
f 487/2/5 485/2/5 486/2/5
f 488/3/5 479/3/5 482/3/5
f 489/3/5 483/3/5 480/3/5
f 492/3/5 479/3/5 488/3/5
f 493/3/5 489/3/5 480/3/5
f 494/2/5 491/2/5 490/2/5
f 495/2/5 491/2/5 494/2/5
f 496/3/5 479/3/5 492/3/5
f 497/3/5 493/3/5 480/3/5
f 498/3/5 479/3/5 496/3/5
f 499/3/5 479/3/5 498/3/5
f 500/3/5 497/3/5 480/3/5
f 501/3/5 497/3/5 500/3/5
f 504/2/5 503/2/5 502/2/5
f 505/2/5 503/2/5 504/2/5
f 514/2/5 507/2/5 506/2/5
f 514/2/5 508/2/5 507/2/5
f 515/2/5 508/2/5 514/2/5
f 516/2/5 510/2/5 509/2/5
f 517/2/5 510/2/5 516/2/5
f 518/2/5 513/2/5 512/2/5
f 518/2/5 512/2/5 511/2/5
f 519/2/5 513/2/5 518/2/5
f 526/2/5 521/2/5 520/2/5
f 527/2/5 521/2/5 526/2/5
f 528/2/5 523/2/5 522/2/5
f 529/2/5 523/2/5 528/2/5
f 530/2/5 525/2/5 524/2/5
f 531/2/5 525/2/5 530/2/5
f 538/2/5 533/2/5 532/2/5
f 539/2/5 533/2/5 538/2/5
f 540/2/5 535/2/5 534/2/5
f 541/2/5 535/2/5 540/2/5
f 542/2/5 537/2/5 536/2/5
f 543/2/5 537/2/5 542/2/5
f 550/2/5 545/2/5 544/2/5
f 551/2/5 545/2/5 550/2/5
f 552/2/5 545/2/5 551/2/5
f 553/2/5 547/2/5 546/2/5
f 554/2/5 547/2/5 553/2/5
f 555/2/5 549/2/5 548/2/5
f 556/2/5 549/2/5 555/2/5
f 557/2/5 549/2/5 556/2/5
f 560/2/5 559/2/5 558/2/5
f 561/2/5 559/2/5 560/2/5
f 562/2/6 563/2/6 564/2/6
f 564/2/6 563/2/6 565/2/6
f 566/2/6 567/2/6 568/2/6
f 568/2/6 567/2/6 569/2/6
f 570/2/6 571/2/6 572/2/6
f 572/2/6 571/2/6 573/2/6
f 574/2/6 575/2/6 576/2/6
f 576/2/6 575/2/6 577/2/6
f 578/3/6 579/3/6 582/3/6
f 580/3/6 581/3/6 583/3/6
f 584/2/6 585/2/6 586/2/6
f 586/2/6 585/2/6 587/2/6
f 582/3/6 579/3/6 588/3/6
f 588/3/6 579/3/6 589/3/6
f 580/3/6 583/3/6 590/3/6
f 590/3/6 583/3/6 591/3/6
f 592/3/6 593/3/6 596/3/6
f 596/3/6 593/3/6 597/3/6
f 594/3/6 595/3/6 598/3/6
f 598/3/6 595/3/6 599/3/6
f 600/3/6 601/3/6 604/3/6
f 604/3/6 601/3/6 605/3/6
f 602/3/6 603/3/6 606/3/6
f 606/3/6 603/3/6 607/3/6
f 608/3/6 609/3/6 612/3/6
f 612/3/6 609/3/6 613/3/6
f 610/3/6 611/3/6 614/3/6
f 614/3/6 611/3/6 615/3/6
f 616/3/6 617/3/6 620/3/6
f 618/3/6 619/3/6 621/3/6
f 620/3/6 617/3/6 622/3/6
f 622/3/6 617/3/6 623/3/6
f 618/3/6 621/3/6 624/3/6
f 624/3/6 621/3/6 625/3/6
f 626/2/6 627/2/6 632/2/6
f 630/2/6 631/2/6 632/2/6
f 629/2/6 630/2/6 632/2/6
f 628/2/6 629/2/6 632/2/6
f 627/2/6 628/2/6 632/2/6
f 632/2/6 631/2/6 633/2/6
f 634/2/6 635/2/6 636/2/6
f 636/2/6 635/2/6 637/2/6
f 638/2/6 639/2/6 640/2/6
f 640/2/6 639/2/6 641/2/6
f 642/2/6 643/2/6 644/2/6
f 644/2/6 643/2/6 645/2/6
f 645/2/6 643/2/6 646/2/6
f 646/2/6 643/2/6 647/2/6
f 647/2/6 643/2/6 648/2/6
f 648/2/6 643/2/6 649/2/6
f 650/3/6 651/3/6 654/3/6
f 654/3/6 651/3/6 655/3/6
f 652/2/6 653/2/6 656/2/6
f 656/2/6 653/2/6 657/2/6
f 658/2/6 659/2/6 660/2/6
f 660/2/6 659/2/6 661/2/6
f 662/2/6 663/2/6 664/2/6
f 664/2/6 663/2/6 665/2/6
f 662/2/6 664/2/6 666/2/6
f 665/2/6 663/2/6 667/2/6
f 662/2/6 666/2/6 668/2/6
f 666/2/6 667/2/6 668/2/6
f 667/2/6 663/2/6 669/2/6
f 668/2/6 667/2/6 669/2/6
f 670/2/6 671/2/6 674/2/6
f 674/2/6 671/2/6 675/2/6
f 675/2/6 671/2/6 676/2/6
f 672/2/6 673/2/6 677/2/6
f 677/2/6 673/2/6 678/2/6
f 678/2/6 673/2/6 679/2/6
f 675/3/6 676/3/6 680/3/6
f 676/2/6 671/2/6 681/2/6
f 680/3/6 676/3/6 681/3/6
f 681/2/6 671/2/6 682/2/6
f 677/3/6 678/3/6 683/3/6
f 672/2/6 677/2/6 685/2/6
f 677/3/6 683/3/6 685/3/6
f 683/2/6 684/2/6 686/2/6
f 685/3/6 683/3/6 686/3/6
f 672/2/6 685/2/6 687/2/6
f 685/2/6 686/2/6 687/2/6
f 686/2/6 684/2/6 688/2/6
f 687/2/6 686/2/6 688/2/6
f 689/2/6 690/2/6 693/2/6
f 690/3/6 691/3/6 693/3/6
f 691/2/6 692/2/6 694/2/6
f 693/3/6 691/3/6 694/3/6
f 689/2/6 693/2/6 695/2/6
f 693/2/6 694/2/6 695/2/6
f 694/2/6 692/2/6 696/2/6
f 695/2/6 694/2/6 696/2/6
f 697/2/6 698/2/6 699/2/6
f 699/2/6 698/2/6 700/2/6
f 697/2/6 699/2/6 701/2/6
f 699/3/6 700/3/6 701/3/6
f 700/2/6 698/2/6 702/2/6
f 701/3/6 700/3/6 702/3/6
f 697/2/6 701/2/6 703/2/6
f 701/2/6 702/2/6 703/2/6
f 702/2/6 698/2/6 704/2/6
f 703/2/6 702/2/6 704/2/6
