# MagicaVoxel @ Ephtracy

# group
o 

# material
mtllib gun.mtl
usemtl palette

# normals
vn -1 0 0
vn 1 0 0
vn 0 0 1
vn 0 0 -1
vn 0 -1 0
vn 0 1 0

# texcoords
vt 0.306641 0.5
vt 0.970703 0.5
vt 0.974609 0.5
vt 0.978516 0.5
vt 0.982422 0.5
vt 0.986328 0.5

# verts
v 1.8 0 -0.6
v 1.8 0 -1
v 1.8 1.1 -0.6
v 1.8 1.1 -1
v 4.5 0.4 -0.6
v 4.5 0.4 -1
v 4.5 0.5 -0.6
v 4.5 0.5 -1
v 5.6 0.6 -0.5
v 5.6 0.6 -0.6
v 5.6 0.6 -1
v 5.6 0.6 -1.1
v 5.6 0.8 -0.6
v 5.6 0.8 -1
v 5.6 0.9 -0.6
v 5.6 0.9 -1
v 5.6 1 -0.6
v 5.6 1 -1
v 5.6 1.1 -0.5
v 5.6 1.1 -1.1
v 6 1.1 -0.6
v 6 1.1 -1
v 6 1.2 -0.6
v 6 1.2 -1
v 6.1 0.2 -0.7
v 6.1 0.2 -0.9
v 6.1 0.6 -0.7
v 6.1 0.6 -0.9
v 6.3 0.4 -0.7
v 6.3 0.4 -0.9
v 6.3 0.6 -0.7
v 6.3 0.6 -0.9
v 6.4 1.2 -0.6
v 6.4 1.2 -1
v 6.4 1.3 -0.6
v 6.4 1.3 -1
v 6.5 1.3 -0.6
v 6.5 1.3 -0.7
v 6.5 1.3 -0.9
v 6.5 1.3 -1
v 6.5 1.5 -0.6
v 6.5 1.5 -0.7
v 6.5 1.5 -0.9
v 6.5 1.5 -1
v 6.7 0.3 -0.7
v 6.7 0.3 -0.9
v 6.7 0.6 -0.7
v 6.7 0.6 -0.9
v 6.7 1.1 -0.5
v 6.7 1.1 -0.6
v 6.7 1.2 -0.5
v 6.7 1.2 -0.6
v 6.8 1.2 -0.5
v 6.8 1.2 -0.6
v 6.8 1.3 -0.6
v 6.8 1.4 -0.5
v 6.8 1.4 -0.6
v 8.2 0.6 -0.5
v 8.2 0.6 -0.6
v 8.2 0.6 -1
v 8.2 0.6 -1.1
v 8.2 0.8 -0.5
v 8.2 0.8 -0.6
v 8.2 0.8 -1
v 8.2 0.8 -1.1
v 8.2 0.9 -0.5
v 8.2 0.9 -0.6
v 8.2 0.9 -0.7
v 8.2 0.9 -0.9
v 8.2 0.9 -1
v 8.2 0.9 -1.1
v 8.2 1 -0.5
v 8.2 1 -0.6
v 8.2 1 -0.7
v 8.2 1 -0.9
v 8.2 1 -1
v 8.2 1 -1.1
v 2.6 0 -0.6
v 2.6 0 -1
v 2.6 0.1 -0.6
v 2.6 0.1 -1
v 3 0.1 -0.6
v 3 0.1 -1
v 3 0.2 -0.6
v 3 0.2 -1
v 3.4 0.2 -0.6
v 3.4 0.2 -1
v 3.4 0.3 -0.6
v 3.4 0.3 -1
v 3.8 0.3 -0.6
v 3.8 0.3 -1
v 3.8 0.4 -0.6
v 3.8 0.4 -1
v 4.2 0.4 -0.6
v 4.2 0.4 -1
v 4.2 0.5 -0.6
v 4.2 0.5 -1
v 4.7 1 -0.6
v 4.7 1 -1
v 4.7 1.1 -0.6
v 4.7 1.1 -1
v 4.9 0.4 -0.6
v 4.9 0.4 -1
v 4.9 0.6 -0.6
v 4.9 0.6 -1
v 6 0.6 -0.5
v 6 0.6 -0.6
v 6 0.6 -1
v 6 0.6 -1.1
v 6 0.8 -0.6
v 6 0.8 -1
v 6 0.9 -0.6
v 6 0.9 -0.7
v 6 0.9 -0.9
v 6 0.9 -1
v 6 1 -0.6
v 6 1 -0.7
v 6 1 -0.9
v 6 1 -1
v 6 1.1 -0.5
v 6 1.1 -0.6
v 6 1.1 -1
v 6 1.1 -1.1
v 6.2 0.3 -0.7
v 6.2 0.3 -0.9
v 6.2 0.6 -0.7
v 6.2 0.6 -0.9
v 6.4 0.4 -0.7
v 6.4 0.4 -0.9
v 6.4 0.6 -0.7
v 6.4 0.6 -0.9
v 6.6 1.4 -0.6
v 6.6 1.4 -0.7
v 6.6 1.4 -0.9
v 6.6 1.4 -1
v 6.6 1.5 -0.6
v 6.6 1.5 -0.7
v 6.6 1.5 -0.9
v 6.6 1.5 -1
v 6.7 1.3 -0.6
v 6.7 1.3 -0.7
v 6.7 1.3 -0.9
v 6.7 1.3 -1
v 6.7 1.4 -0.6
v 6.7 1.4 -0.7
v 6.7 1.4 -0.9
v 6.7 1.4 -1
v 6.8 0.2 -0.7
v 6.8 0.2 -0.9
v 6.8 0.6 -0.7
v 6.8 0.6 -0.9
v 7 1.1 -0.5
v 7 1.1 -0.6
v 7 1.3 -0.6
v 7 1.4 -0.5
v 7 1.4 -0.6
v 10.8 0.6 -0.5
v 10.8 0.6 -1.1
v 10.8 0.8 -0.5
v 10.8 0.8 -1.1
v 10.8 0.9 -0.5
v 10.8 0.9 -0.6
v 10.8 0.9 -1
v 10.8 0.9 -1.1
v 10.8 1 -0.5
v 10.8 1 -0.6
v 10.8 1 -1
v 10.8 1 -1.1
v 14.3 1 -0.7
v 14.3 1 -0.9
v 14.3 1.2 -0.7
v 14.3 1.2 -0.9
v 14.4 0.9 -0.6
v 14.4 0.9 -1
v 14.4 1 -0.7
v 14.4 1 -0.9
v 14.4 1.2 -0.7
v 14.4 1.2 -0.9
v 14.4 1.3 -0.6
v 14.4 1.3 -1
v 5.6 0.6 -0.5
v 5.6 1.1 -0.5
v 6 0.6 -0.5
v 6 1.1 -0.5
v 6.7 1.1 -0.5
v 6.7 1.2 -0.5
v 6.8 1.2 -0.5
v 6.8 1.4 -0.5
v 7 1.1 -0.5
v 7 1.4 -0.5
v 8.2 0.6 -0.5
v 8.2 0.8 -0.5
v 8.2 0.9 -0.5
v 8.2 1 -0.5
v 10.8 0.6 -0.5
v 10.8 0.8 -0.5
v 10.8 0.9 -0.5
v 10.8 1 -0.5
v 1.8 0 -0.6
v 1.8 1.1 -0.6
v 1.9 0 -0.6
v 1.9 1.1 -0.6
v 2.1 0 -0.6
v 2.1 1.1 -0.6
v 2.6 0 -0.6
v 2.6 0.1 -0.6
v 3 0.1 -0.6
v 3 0.2 -0.6
v 3.4 0.2 -0.6
v 3.4 0.3 -0.6
v 3.8 0.3 -0.6
v 3.8 0.4 -0.6
v 4.2 0.4 -0.6
v 4.2 0.5 -0.6
v 4.5 0.4 -0.6
v 4.5 0.5 -0.6
v 4.7 0.8 -0.6
v 4.7 0.9 -0.6
v 4.7 1 -0.6
v 4.7 1.1 -0.6
v 4.9 0.4 -0.6
v 4.9 0.6 -0.6
v 5.6 0.6 -0.6
v 5.6 0.8 -0.6
v 5.6 0.9 -0.6
v 5.6 1 -0.6
v 6 0.6 -0.6
v 6 0.8 -0.6
v 6 0.9 -0.6
v 6 1 -0.6
v 6 1.1 -0.6
v 6 1.2 -0.6
v 6.4 1.2 -0.6
v 6.4 1.3 -0.6
v 6.5 1.3 -0.6
v 6.5 1.5 -0.6
v 6.6 1.4 -0.6
v 6.6 1.5 -0.6
v 6.7 1.1 -0.6
v 6.7 1.2 -0.6
v 6.7 1.3 -0.6
v 6.7 1.4 -0.6
v 6.8 0.6 -0.6
v 6.8 0.8 -0.6
v 6.8 1.2 -0.6
v 6.8 1.3 -0.6
v 6.9 0.6 -0.6
v 6.9 0.8 -0.6
v 7 1.1 -0.6
v 7 1.3 -0.6
v 8.2 0.6 -0.6
v 8.2 0.8 -0.6
v 8.2 0.9 -0.6
v 8.2 1 -0.6
v 10.8 0.9 -0.6
v 10.8 1 -0.6
v 14.4 0.9 -0.6
v 14.4 1.3 -0.6
v 6 0.9 -0.7
v 6 1 -0.7
v 6.1 0.2 -0.7
v 6.1 0.6 -0.7
v 6.2 0.3 -0.7
v 6.2 0.6 -0.7
v 6.3 0.4 -0.7
v 6.3 0.6 -0.7
v 6.4 0.4 -0.7
v 6.4 0.6 -0.7
v 6.7 0.3 -0.7
v 6.7 0.6 -0.7
v 6.8 0.2 -0.7
v 6.8 0.6 -0.7
v 8.2 0.9 -0.7
v 8.2 1 -0.7
v 6.5 1.3 -0.9
v 6.5 1.5 -0.9
v 6.6 1.4 -0.9
v 6.6 1.5 -0.9
v 6.7 1.3 -0.9
v 6.7 1.4 -0.9
v 14.3 1 -0.9
v 14.3 1.2 -0.9
v 14.4 1 -0.9
v 14.4 1.2 -0.9
v 6.8 1.3 -0.6
v 6.8 1.4 -0.6
v 7 1.3 -0.6
v 7 1.4 -0.6
v 6.5 1.3 -0.7
v 6.5 1.5 -0.7
v 6.6 1.4 -0.7
v 6.6 1.5 -0.7
v 6.7 1.3 -0.7
v 6.7 1.4 -0.7
v 14.3 1 -0.7
v 14.3 1.2 -0.7
v 14.4 1 -0.7
v 14.4 1.2 -0.7
v 6 0.9 -0.9
v 6 1 -0.9
v 6.1 0.2 -0.9
v 6.1 0.6 -0.9
v 6.2 0.3 -0.9
v 6.2 0.6 -0.9
v 6.3 0.4 -0.9
v 6.3 0.6 -0.9
v 6.4 0.4 -0.9
v 6.4 0.6 -0.9
v 6.7 0.3 -0.9
v 6.7 0.6 -0.9
v 6.8 0.2 -0.9
v 6.8 0.6 -0.9
v 8.2 0.9 -0.9
v 8.2 1 -0.9
v 1.8 0 -1
v 1.8 1.1 -1
v 1.9 0 -1
v 1.9 1.1 -1
v 2.1 0 -1
v 2.1 1.1 -1
v 2.6 0 -1
v 2.6 0.1 -1
v 3 0.1 -1
v 3 0.2 -1
v 3.4 0.2 -1
v 3.4 0.3 -1
v 3.8 0.3 -1
v 3.8 0.4 -1
v 4.2 0.4 -1
v 4.2 0.5 -1
v 4.5 0.4 -1
v 4.5 0.5 -1
v 4.7 0.8 -1
v 4.7 0.9 -1
v 4.7 1 -1
v 4.7 1.1 -1
v 4.9 0.4 -1
v 4.9 0.6 -1
v 5.6 0.6 -1
v 5.6 0.8 -1
v 5.6 0.9 -1
v 5.6 1 -1
v 6 0.6 -1
v 6 0.8 -1
v 6 0.9 -1
v 6 1 -1
v 6 1.1 -1
v 6 1.2 -1
v 6.4 1.2 -1
v 6.4 1.3 -1
v 6.5 1.3 -1
v 6.5 1.5 -1
v 6.6 1.4 -1
v 6.6 1.5 -1
v 6.7 1.3 -1
v 6.7 1.4 -1
v 6.8 0.6 -1
v 6.8 0.8 -1
v 6.9 0.6 -1
v 6.9 0.8 -1
v 8.2 0.6 -1
v 8.2 0.8 -1
v 8.2 0.9 -1
v 8.2 1 -1
v 10.8 0.9 -1
v 10.8 1 -1
v 14.4 0.9 -1
v 14.4 1.3 -1
v 5.6 0.6 -1.1
v 5.6 1.1 -1.1
v 6 0.6 -1.1
v 6 1.1 -1.1
v 8.2 0.6 -1.1
v 8.2 0.8 -1.1
v 8.2 0.9 -1.1
v 8.2 1 -1.1
v 10.8 0.6 -1.1
v 10.8 0.8 -1.1
v 10.8 0.9 -1.1
v 10.8 1 -1.1
v 1.8 0 -0.6
v 1.9 0 -0.6
v 2.1 0 -0.6
v 2.6 0 -0.6
v 1.8 0 -1
v 1.9 0 -1
v 2.1 0 -1
v 2.6 0 -1
v 2.6 0.1 -0.6
v 3 0.1 -0.6
v 2.6 0.1 -1
v 3 0.1 -1
v 3 0.2 -0.6
v 3.4 0.2 -0.6
v 6.1 0.2 -0.7
v 6.8 0.2 -0.7
v 6.1 0.2 -0.9
v 6.8 0.2 -0.9
v 3 0.2 -1
v 3.4 0.2 -1
v 3.4 0.3 -0.6
v 3.8 0.3 -0.6
v 3.4 0.3 -1
v 3.8 0.3 -1
v 3.8 0.4 -0.6
v 4.2 0.4 -0.6
v 4.5 0.4 -0.6
v 4.9 0.4 -0.6
v 6.3 0.4 -0.7
v 6.4 0.4 -0.7
v 6.3 0.4 -0.9
v 6.4 0.4 -0.9
v 3.8 0.4 -1
v 4.2 0.4 -1
v 4.5 0.4 -1
v 4.9 0.4 -1
v 4.2 0.5 -0.6
v 4.5 0.5 -0.6
v 4.2 0.5 -1
v 4.5 0.5 -1
v 5.6 0.6 -0.5
v 6 0.6 -0.5
v 8.2 0.6 -0.5
v 10.8 0.6 -0.5
v 4.9 0.6 -0.6
v 5.6 0.6 -0.6
v 6 0.6 -0.6
v 6.8 0.6 -0.6
v 6.9 0.6 -0.6
v 8.2 0.6 -0.6
v 6.1 0.6 -0.7
v 6.2 0.6 -0.7
v 6.3 0.6 -0.7
v 6.4 0.6 -0.7
v 6.7 0.6 -0.7
v 6.8 0.6 -0.7
v 6.1 0.6 -0.9
v 6.2 0.6 -0.9
v 6.3 0.6 -0.9
v 6.4 0.6 -0.9
v 6.7 0.6 -0.9
v 6.8 0.6 -0.9
v 4.9 0.6 -1
v 5.6 0.6 -1
v 6 0.6 -1
v 6.8 0.6 -1
v 6.9 0.6 -1
v 8.2 0.6 -1
v 5.6 0.6 -1.1
v 6 0.6 -1.1
v 8.2 0.6 -1.1
v 10.8 0.6 -1.1
v 10.8 0.9 -0.6
v 14.4 0.9 -0.6
v 10.8 0.9 -1
v 14.4 0.9 -1
v 6 1 -0.6
v 8.2 1 -0.6
v 6 1 -0.7
v 8.2 1 -0.7
v 6 1 -0.9
v 8.2 1 -0.9
v 6 1 -1
v 8.2 1 -1
v 6.7 1.1 -0.5
v 7 1.1 -0.5
v 6.7 1.1 -0.6
v 7 1.1 -0.6
v 14.3 1.2 -0.7
v 14.4 1.2 -0.7
v 14.3 1.2 -0.9
v 14.4 1.2 -0.9
v 6.2 0.3 -0.7
v 6.7 0.3 -0.7
v 6.2 0.3 -0.9
v 6.7 0.3 -0.9
v 6 0.9 -0.6
v 8.2 0.9 -0.6
v 6 0.9 -0.7
v 8.2 0.9 -0.7
v 6 0.9 -0.9
v 8.2 0.9 -0.9
v 6 0.9 -1
v 8.2 0.9 -1
v 8.2 1 -0.5
v 10.8 1 -0.5
v 4.7 1 -0.6
v 5.6 1 -0.6
v 8.2 1 -0.6
v 10.8 1 -0.6
v 14.3 1 -0.7
v 14.4 1 -0.7
v 14.3 1 -0.9
v 14.4 1 -0.9
v 4.7 1 -1
v 5.6 1 -1
v 8.2 1 -1
v 10.8 1 -1
v 8.2 1 -1.1
v 10.8 1 -1.1
v 5.6 1.1 -0.5
v 6 1.1 -0.5
v 1.8 1.1 -0.6
v 1.9 1.1 -0.6
v 2.1 1.1 -0.6
v 4.7 1.1 -0.6
v 6 1.1 -0.6
v 1.8 1.1 -1
v 1.9 1.1 -1
v 2.1 1.1 -1
v 4.7 1.1 -1
v 6 1.1 -1
v 5.6 1.1 -1.1
v 6 1.1 -1.1
v 6.7 1.2 -0.5
v 6.8 1.2 -0.5
v 6 1.2 -0.6
v 6.4 1.2 -0.6
v 6.7 1.2 -0.6
v 6.8 1.2 -0.6
v 6 1.2 -1
v 6.4 1.2 -1
v 6.4 1.3 -0.6
v 6.5 1.3 -0.6
v 6.7 1.3 -0.6
v 6.8 1.3 -0.6
v 7 1.3 -0.6
v 14.4 1.3 -0.6
v 6.5 1.3 -0.7
v 6.7 1.3 -0.7
v 6.5 1.3 -0.9
v 6.7 1.3 -0.9
v 6.4 1.3 -1
v 6.5 1.3 -1
v 6.7 1.3 -1
v 14.4 1.3 -1
v 6.8 1.4 -0.5
v 7 1.4 -0.5
v 6.6 1.4 -0.6
v 6.7 1.4 -0.6
v 6.8 1.4 -0.6
v 7 1.4 -0.6
v 6.6 1.4 -0.7
v 6.7 1.4 -0.7
v 6.6 1.4 -0.9
v 6.7 1.4 -0.9
v 6.6 1.4 -1
v 6.7 1.4 -1
v 6.5 1.5 -0.6
v 6.6 1.5 -0.6
v 6.5 1.5 -0.7
v 6.6 1.5 -0.7
v 6.5 1.5 -0.9
v 6.6 1.5 -0.9
v 6.5 1.5 -1
v 6.6 1.5 -1

# faces
f 3/2/1 2/2/1 1/2/1
f 4/2/1 2/2/1 3/2/1
f 7/2/1 6/2/1 5/2/1
f 8/2/1 6/2/1 7/2/1
f 13/3/1 10/3/1 9/3/1
f 14/3/1 12/3/1 11/3/1
f 15/3/1 13/3/1 9/3/1
f 16/3/1 12/3/1 14/3/1
f 17/3/1 15/3/1 9/3/1
f 18/3/1 12/3/1 16/3/1
f 19/3/1 17/3/1 9/3/1
f 19/3/1 18/3/1 17/3/1
f 20/3/1 12/3/1 18/3/1
f 20/3/1 18/3/1 19/3/1
f 23/5/1 22/5/1 21/5/1
f 24/5/1 22/5/1 23/5/1
f 27/3/1 26/3/1 25/3/1
f 28/3/1 26/3/1 27/3/1
f 31/3/1 30/3/1 29/3/1
f 32/3/1 30/3/1 31/3/1
f 35/5/1 34/5/1 33/5/1
f 36/5/1 34/5/1 35/5/1
f 41/6/1 38/6/1 37/6/1
f 42/6/1 38/6/1 41/6/1
f 43/6/1 40/6/1 39/6/1
f 44/6/1 40/6/1 43/6/1
f 47/3/1 46/3/1 45/3/1
f 48/3/1 46/3/1 47/3/1
f 51/3/1 50/3/1 49/3/1
f 52/3/1 50/3/1 51/3/1
f 55/3/1 54/3/1 53/3/1
f 56/3/1 55/3/1 53/3/1
f 57/3/1 55/3/1 56/3/1
f 62/2/1 59/2/1 58/2/1
f 63/2/1 59/2/1 62/2/1
f 64/2/1 61/2/1 60/2/1
f 65/2/1 61/2/1 64/2/1
f 66/4/1 63/4/1 62/4/1
f 67/4/1 63/4/1 66/4/1
f 70/4/1 65/4/1 64/4/1
f 71/4/1 65/4/1 70/4/1
f 72/2/1 68/2/1 67/2/1
f 72/2/1 67/2/1 66/2/1
f 73/2/1 68/2/1 72/2/1
f 74/2/1 68/2/1 73/2/1
f 75/2/1 71/2/1 70/2/1
f 75/2/1 70/2/1 69/2/1
f 76/2/1 71/2/1 75/2/1
f 77/2/1 71/2/1 76/2/1
f 78/2/2 79/2/2 80/2/2
f 80/2/2 79/2/2 81/2/2
f 82/2/2 83/2/2 84/2/2
f 84/2/2 83/2/2 85/2/2
f 86/2/2 87/2/2 88/2/2
f 88/2/2 87/2/2 89/2/2
f 90/2/2 91/2/2 92/2/2
f 92/2/2 91/2/2 93/2/2
f 94/2/2 95/2/2 96/2/2
f 96/2/2 95/2/2 97/2/2
f 98/2/2 99/2/2 100/2/2
f 100/2/2 99/2/2 101/2/2
f 102/2/2 103/2/2 104/2/2
f 104/2/2 103/2/2 105/2/2
f 106/3/2 107/3/2 110/3/2
f 108/3/2 109/3/2 111/3/2
f 106/3/2 110/3/2 112/3/2
f 111/3/2 109/3/2 115/3/2
f 112/3/2 113/3/2 116/3/2
f 106/3/2 112/3/2 116/3/2
f 116/3/2 113/3/2 117/3/2
f 114/3/2 115/3/2 118/3/2
f 115/3/2 109/3/2 119/3/2
f 118/3/2 115/3/2 119/3/2
f 106/3/2 116/3/2 120/3/2
f 120/3/2 116/3/2 121/3/2
f 119/3/2 109/3/2 122/3/2
f 122/3/2 109/3/2 123/3/2
f 124/3/2 125/3/2 126/3/2
f 126/3/2 125/3/2 127/3/2
f 128/3/2 129/3/2 130/3/2
f 130/3/2 129/3/2 131/3/2
f 132/6/2 133/6/2 136/6/2
f 136/6/2 133/6/2 137/6/2
f 134/6/2 135/6/2 138/6/2
f 138/6/2 135/6/2 139/6/2
f 140/6/2 141/6/2 144/6/2
f 144/6/2 141/6/2 145/6/2
f 142/6/2 143/6/2 146/6/2
f 146/6/2 143/6/2 147/6/2
f 148/3/2 149/3/2 150/3/2
f 150/3/2 149/3/2 151/3/2
f 152/3/2 153/3/2 154/3/2
f 152/3/2 154/3/2 155/3/2
f 155/3/2 154/3/2 156/3/2
f 157/2/2 158/2/2 159/2/2
f 159/2/2 158/2/2 160/2/2
f 159/4/2 160/4/2 161/4/2
f 161/4/2 160/4/2 162/4/2
f 162/4/2 160/4/2 163/4/2
f 163/4/2 160/4/2 164/4/2
f 161/2/2 162/2/2 165/2/2
f 165/2/2 162/2/2 166/2/2
f 163/2/2 164/2/2 167/2/2
f 167/2/2 164/2/2 168/2/2
f 169/3/2 170/3/2 171/3/2
f 171/3/2 170/3/2 172/3/2
f 173/5/2 174/5/2 175/5/2
f 175/5/2 174/5/2 176/5/2
f 173/5/2 175/5/2 177/5/2
f 176/5/2 174/5/2 178/5/2
f 173/5/2 177/5/2 179/5/2
f 177/5/2 178/5/2 179/5/2
f 178/5/2 174/5/2 180/5/2
f 179/5/2 178/5/2 180/5/2
f 183/3/3 182/3/3 181/3/3
f 184/3/3 182/3/3 183/3/3
f 187/3/3 186/3/3 185/3/3
f 189/3/3 187/3/3 185/3/3
f 189/3/3 188/3/3 187/3/3
f 190/3/3 188/3/3 189/3/3
f 195/2/3 192/2/3 191/2/3
f 196/4/3 193/4/3 192/4/3
f 196/2/3 192/2/3 195/2/3
f 197/2/3 194/2/3 193/2/3
f 197/4/3 193/4/3 196/4/3
f 198/2/3 194/2/3 197/2/3
f 201/2/3 200/2/3 199/2/3
f 202/2/3 200/2/3 201/2/3
f 203/4/3 202/4/3 201/4/3
f 204/4/3 202/4/3 203/4/3
f 205/2/3 204/2/3 203/2/3
f 206/2/3 204/2/3 205/2/3
f 207/2/3 204/2/3 206/2/3
f 208/2/3 204/2/3 207/2/3
f 209/2/3 204/2/3 208/2/3
f 210/2/3 204/2/3 209/2/3
f 211/2/3 204/2/3 210/2/3
f 212/2/3 204/2/3 211/2/3
f 213/2/3 204/2/3 212/2/3
f 214/2/3 204/2/3 213/2/3
f 216/2/3 204/2/3 214/2/3
f 217/2/3 204/2/3 216/2/3
f 217/2/3 216/2/3 215/2/3
f 218/2/3 204/2/3 217/2/3
f 219/2/3 204/2/3 218/2/3
f 220/2/3 204/2/3 219/2/3
f 221/2/3 217/2/3 215/2/3
f 222/2/3 217/2/3 221/2/3
f 223/2/3 217/2/3 222/2/3
f 224/4/3 218/4/3 217/4/3
f 224/2/3 217/2/3 223/2/3
f 225/2/3 219/2/3 218/2/3
f 225/4/3 218/4/3 224/4/3
f 226/2/3 219/2/3 225/2/3
f 233/5/3 231/5/3 230/5/3
f 233/5/3 232/5/3 231/5/3
f 235/5/3 234/5/3 233/5/3
f 237/6/3 236/6/3 235/6/3
f 238/6/3 236/6/3 237/6/3
f 239/5/3 233/5/3 230/5/3
f 239/5/3 235/5/3 233/5/3
f 240/5/3 235/5/3 239/5/3
f 241/6/3 237/6/3 235/6/3
f 241/5/3 235/5/3 240/5/3
f 242/6/3 237/6/3 241/6/3
f 243/4/3 228/4/3 227/4/3
f 244/5/3 229/5/3 228/5/3
f 244/4/3 228/4/3 243/4/3
f 245/5/3 241/5/3 240/5/3
f 246/5/3 241/5/3 245/5/3
f 247/3/3 244/3/3 243/3/3
f 248/5/3 229/5/3 244/5/3
f 248/3/3 244/3/3 247/3/3
f 249/5/3 239/5/3 230/5/3
f 251/5/3 248/5/3 247/5/3
f 252/5/3 229/5/3 248/5/3
f 252/5/3 248/5/3 251/5/3
f 253/5/3 229/5/3 252/5/3
f 254/5/3 250/5/3 249/5/3
f 254/5/3 249/5/3 230/5/3
f 256/5/3 250/5/3 254/5/3
f 257/5/3 256/5/3 255/5/3
f 258/5/3 250/5/3 256/5/3
f 258/5/3 256/5/3 257/5/3
f 263/3/3 262/3/3 261/3/3
f 264/3/3 262/3/3 263/3/3
f 267/3/3 266/3/3 265/3/3
f 268/3/3 266/3/3 267/3/3
f 269/3/3 263/3/3 261/3/3
f 271/3/3 269/3/3 261/3/3
f 271/3/3 270/3/3 269/3/3
f 272/3/3 270/3/3 271/3/3
f 273/3/3 260/3/3 259/3/3
f 274/3/3 260/3/3 273/3/3
f 277/6/3 276/6/3 275/6/3
f 278/6/3 276/6/3 277/6/3
f 279/6/3 277/6/3 275/6/3
f 280/6/3 277/6/3 279/6/3
f 283/5/3 282/5/3 281/5/3
f 284/5/3 282/5/3 283/5/3
f 285/3/4 286/3/4 287/3/4
f 287/3/4 286/3/4 288/3/4
f 289/6/4 290/6/4 291/6/4
f 291/6/4 290/6/4 292/6/4
f 289/6/4 291/6/4 293/6/4
f 293/6/4 291/6/4 294/6/4
f 295/5/4 296/5/4 297/5/4
f 297/5/4 296/5/4 298/5/4
f 301/3/4 302/3/4 303/3/4
f 303/3/4 302/3/4 304/3/4
f 305/3/4 306/3/4 307/3/4
f 307/3/4 306/3/4 308/3/4
f 301/3/4 303/3/4 309/3/4
f 301/3/4 309/3/4 311/3/4
f 309/3/4 310/3/4 311/3/4
f 311/3/4 310/3/4 312/3/4
f 299/3/4 300/3/4 313/3/4
f 313/3/4 300/3/4 314/3/4
f 315/2/4 316/2/4 317/2/4
f 317/2/4 316/2/4 318/2/4
f 317/4/4 318/4/4 319/4/4
f 319/4/4 318/4/4 320/4/4
f 319/2/4 320/2/4 321/2/4
f 321/2/4 320/2/4 322/2/4
f 322/2/4 320/2/4 323/2/4
f 323/2/4 320/2/4 324/2/4
f 324/2/4 320/2/4 325/2/4
f 325/2/4 320/2/4 326/2/4
f 326/2/4 320/2/4 327/2/4
f 327/2/4 320/2/4 328/2/4
f 328/2/4 320/2/4 329/2/4
f 329/2/4 320/2/4 330/2/4
f 330/2/4 320/2/4 332/2/4
f 332/2/4 320/2/4 333/2/4
f 331/2/4 332/2/4 333/2/4
f 333/2/4 320/2/4 334/2/4
f 334/2/4 320/2/4 335/2/4
f 335/2/4 320/2/4 336/2/4
f 331/2/4 333/2/4 337/2/4
f 337/2/4 333/2/4 338/2/4
f 338/2/4 333/2/4 339/2/4
f 333/4/4 334/4/4 340/4/4
f 339/2/4 333/2/4 340/2/4
f 334/2/4 335/2/4 341/2/4
f 340/4/4 334/4/4 341/4/4
f 341/2/4 335/2/4 342/2/4
f 346/5/4 347/5/4 349/5/4
f 347/5/4 348/5/4 349/5/4
f 349/5/4 350/5/4 351/5/4
f 351/6/4 352/6/4 353/6/4
f 353/6/4 352/6/4 354/6/4
f 349/5/4 351/5/4 355/5/4
f 351/6/4 353/6/4 355/6/4
f 355/6/4 353/6/4 356/6/4
f 343/4/4 344/4/4 357/4/4
f 344/5/4 345/5/4 358/5/4
f 357/4/4 344/4/4 358/4/4
f 357/3/4 358/3/4 359/3/4
f 358/5/4 345/5/4 360/5/4
f 359/3/4 358/3/4 360/3/4
f 359/5/4 360/5/4 361/5/4
f 360/5/4 345/5/4 362/5/4
f 361/5/4 360/5/4 362/5/4
f 362/5/4 345/5/4 363/5/4
f 346/5/4 349/5/4 364/5/4
f 349/5/4 355/5/4 364/5/4
f 364/5/4 355/5/4 366/5/4
f 365/5/4 366/5/4 367/5/4
f 366/5/4 355/5/4 368/5/4
f 367/5/4 366/5/4 368/5/4
f 369/3/4 370/3/4 371/3/4
f 371/3/4 370/3/4 372/3/4
f 373/2/4 374/2/4 377/2/4
f 374/4/4 375/4/4 378/4/4
f 377/2/4 374/2/4 378/2/4
f 375/2/4 376/2/4 379/2/4
f 378/4/4 375/4/4 379/4/4
f 379/2/4 376/2/4 380/2/4
f 385/2/5 382/2/5 381/2/5
f 386/4/5 383/4/5 382/4/5
f 386/2/5 382/2/5 385/2/5
f 387/2/5 384/2/5 383/2/5
f 387/4/5 383/4/5 386/4/5
f 388/2/5 384/2/5 387/2/5
f 391/2/5 390/2/5 389/2/5
f 392/2/5 390/2/5 391/2/5
f 397/3/5 396/3/5 395/3/5
f 398/3/5 396/3/5 397/3/5
f 399/2/5 394/2/5 393/2/5
f 400/2/5 394/2/5 399/2/5
f 403/2/5 402/2/5 401/2/5
f 404/2/5 402/2/5 403/2/5
f 411/3/5 410/3/5 409/3/5
f 412/3/5 410/3/5 411/3/5
f 413/2/5 406/2/5 405/2/5
f 414/2/5 406/2/5 413/2/5
f 415/2/5 408/2/5 407/2/5
f 416/2/5 408/2/5 415/2/5
f 419/2/5 418/2/5 417/2/5
f 420/2/5 418/2/5 419/2/5
f 426/3/5 422/3/5 421/3/5
f 427/3/5 422/3/5 426/3/5
f 430/2/5 424/2/5 423/2/5
f 431/4/5 428/4/5 427/4/5
f 432/4/5 428/4/5 431/4/5
f 433/4/5 428/4/5 432/4/5
f 434/4/5 428/4/5 433/4/5
f 435/4/5 428/4/5 434/4/5
f 436/3/5 429/3/5 428/3/5
f 436/4/5 428/4/5 435/4/5
f 437/4/5 431/4/5 427/4/5
f 438/4/5 433/4/5 432/4/5
f 439/4/5 433/4/5 438/4/5
f 440/4/5 435/4/5 434/4/5
f 441/4/5 435/4/5 440/4/5
f 442/3/5 429/3/5 436/3/5
f 443/2/5 426/2/5 425/2/5
f 444/3/5 427/3/5 426/3/5
f 444/2/5 426/2/5 443/2/5
f 445/4/5 439/4/5 438/4/5
f 445/3/5 427/3/5 444/3/5
f 445/4/5 442/4/5 441/4/5
f 445/4/5 441/4/5 440/4/5
f 445/4/5 437/4/5 427/4/5
f 445/4/5 440/4/5 439/4/5
f 445/4/5 438/4/5 437/4/5
f 446/3/5 429/3/5 442/3/5
f 446/4/5 442/4/5 445/4/5
f 447/5/5 430/5/5 429/5/5
f 447/3/5 429/3/5 446/3/5
f 448/2/5 424/2/5 430/2/5
f 448/5/5 430/5/5 447/5/5
f 449/3/5 445/3/5 444/3/5
f 450/3/5 445/3/5 449/3/5
f 451/2/5 424/2/5 448/2/5
f 452/2/5 424/2/5 451/2/5
f 455/5/5 454/5/5 453/5/5
f 456/5/5 454/5/5 455/5/5
f 459/5/5 458/5/5 457/5/5
f 460/5/5 458/5/5 459/5/5
f 463/5/5 462/5/5 461/5/5
f 464/5/5 462/5/5 463/5/5
f 467/3/5 466/3/5 465/3/5
f 468/3/5 466/3/5 467/3/5
f 471/5/5 470/5/5 469/5/5
f 472/5/5 470/5/5 471/5/5
f 473/3/6 474/3/6 475/3/6
f 475/3/6 474/3/6 476/3/6
f 477/5/6 478/5/6 479/5/6
f 479/5/6 478/5/6 480/5/6
f 481/5/6 482/5/6 483/5/6
f 483/5/6 482/5/6 484/5/6
f 485/2/6 486/2/6 489/2/6
f 489/2/6 486/2/6 490/2/6
f 491/5/6 492/5/6 493/5/6
f 493/5/6 492/5/6 494/5/6
f 487/2/6 488/2/6 495/2/6
f 495/2/6 488/2/6 496/2/6
f 497/2/6 498/2/6 499/2/6
f 499/2/6 498/2/6 500/2/6
f 501/3/6 502/3/6 507/3/6
f 503/2/6 504/2/6 508/2/6
f 504/4/6 505/4/6 509/4/6
f 508/2/6 504/2/6 509/2/6
f 505/2/6 506/2/6 510/2/6
f 509/4/6 505/4/6 510/4/6
f 510/2/6 506/2/6 511/2/6
f 501/3/6 507/3/6 512/3/6
f 501/3/6 512/3/6 513/3/6
f 513/3/6 512/3/6 514/3/6
f 515/3/6 516/3/6 519/3/6
f 519/3/6 516/3/6 520/3/6
f 517/5/6 518/5/6 521/5/6
f 521/5/6 518/5/6 522/5/6
f 523/5/6 524/5/6 529/5/6
f 527/5/6 528/5/6 530/5/6
f 525/5/6 526/5/6 530/5/6
f 526/5/6 527/5/6 530/5/6
f 523/5/6 529/5/6 531/5/6
f 529/5/6 530/5/6 531/5/6
f 530/5/6 528/5/6 532/5/6
f 531/5/6 530/5/6 532/5/6
f 523/5/6 531/5/6 533/5/6
f 533/5/6 531/5/6 534/5/6
f 532/5/6 528/5/6 535/5/6
f 535/5/6 528/5/6 536/5/6
f 537/3/6 538/3/6 541/3/6
f 541/3/6 538/3/6 542/3/6
f 539/6/6 540/6/6 543/6/6
f 543/6/6 540/6/6 544/6/6
f 545/6/6 546/6/6 547/6/6
f 547/6/6 546/6/6 548/6/6
f 549/6/6 550/6/6 551/6/6
f 551/6/6 550/6/6 552/6/6
f 553/6/6 554/6/6 555/6/6
f 555/6/6 554/6/6 556/6/6
