# MagicaVoxel @ Ephtracy

# group
o 

# material
mtllib jube.mtl
usemtl palette

# normals
vn -1 0 0
vn 1 0 0
vn 0 0 1
vn 0 0 -1
vn 0 -1 0
vn 0 1 0

# texcoords
vt 0.876953 0.5
vt 0.908203 0.5
vt 0.927734 0.5
vt 0.931641 0.5
vt 0.955078 0.5

# verts
v -1.6 2 0.2
v -1.6 2 -0.2
v -1.6 2.7 0.2
v -1.6 2.7 -0.2
v -1.4 0 1.6
v -1.4 0 -1.6
v -1.4 0.8 1.6
v -1.4 0.8 -1.6
v -1.4 2.1 0.5
v -1.4 2.1 0.2
v -1.4 2.1 -0.2
v -1.4 2.1 -0.5
v -1.4 2.4 0.5
v -1.4 2.4 0.2
v -1.4 2.4 -0.2
v -1.4 2.4 -0.5
v -1.4 2.7 0.2
v -1.4 2.7 -0.2
v -1.4 2.9 0.2
v -1.4 2.9 -0.2
v -1.3 2.7 1.6
v -1.3 2.7 0.5
v -1.3 2.7 -0.5
v -1.3 2.7 -1.6
v -1.3 2.9 1.6
v -1.3 2.9 0.5
v -1.3 2.9 -0.5
v -1.3 2.9 -1.6
v -1.2 0.8 1.6
v -1.2 0.8 -1.6
v -1.2 1.2 1.6
v -1.2 1.2 -1.6
v -1.2 1.9 1.6
v -1.2 1.9 -1.6
v -1.2 2 0.2
v -1.2 2 -0.2
v -1.2 2.1 0.5
v -1.2 2.1 0.4
v -1.2 2.1 -0.4
v -1.2 2.1 -0.5
v -1.2 2.2 0.4
v -1.2 2.2 0.2
v -1.2 2.2 -0.2
v -1.2 2.2 -0.4
v -1.2 2.3 1.6
v -1.2 2.3 0.9
v -1.2 2.3 -0.9
v -1.2 2.3 -1.6
v -1.2 2.4 0.5
v -1.2 2.4 0.2
v -1.2 2.4 -0.2
v -1.2 2.4 -0.5
v -1.2 2.7 0.9
v -1.2 2.7 0.5
v -1.2 2.7 -0.5
v -1.2 2.7 -0.9
v -1.2 2.9 1.6
v -1.2 2.9 0.5
v -1.2 2.9 0.2
v -1.2 2.9 -0.2
v -1.2 2.9 -0.5
v -1.2 2.9 -1.6
v -1.2 3.1 0.1
v -1.2 3.1 -0.1
v -1.2 3.2 1.6
v -1.2 3.2 0.1
v -1.2 3.2 -0.1
v -1.2 3.2 -1.6
v -1.1 1.4 0.3
v -1.1 1.4 -0.1
v -1.1 1.5 0.9
v -1.1 1.5 0.5
v -1.1 1.5 -0.1
v -1.1 1.5 -0.3
v -1.1 1.5 -0.5
v -1.1 1.5 -0.9
v -1.1 1.6 1.5
v -1.1 1.6 1.1
v -1.1 1.6 -1.1
v -1.1 1.6 -1.5
v -1.1 1.9 1.5
v -1.1 1.9 1.1
v -1.1 1.9 0.9
v -1.1 1.9 0.5
v -1.1 1.9 0.3
v -1.1 1.9 -0.3
v -1.1 1.9 -0.5
v -1.1 1.9 -0.9
v -1.1 1.9 -1.1
v -1.1 1.9 -1.5
v -1 2.3 1.4
v -1 2.3 1
v -1 2.3 -1
v -1 2.3 -1.4
v -1 2.5 1.3
v -1 2.5 1.2
v -1 2.5 -1.2
v -1 2.5 -1.3
v -1 2.6 1.3
v -1 2.6 1.2
v -1 2.6 -1.2
v -1 2.6 -1.3
v -1 2.7 1.4
v -1 2.7 1
v -1 2.7 -1
v -1 2.7 -1.4
v -0.9 1.2 0.8
v -0.9 1.2 -0.8
v -0.9 1.3 0.8
v -0.9 1.3 -0.8
v -0.9 2.3 1.5
v -0.9 2.3 1.4
v -0.9 2.3 1
v -0.9 2.3 0.9
v -0.9 2.3 -0.9
v -0.9 2.3 -1
v -0.9 2.3 -1.4
v -0.9 2.3 -1.5
v -0.9 2.7 1.5
v -0.9 2.7 1.4
v -0.9 2.7 1
v -0.9 2.7 0.9
v -0.9 2.7 -0.9
v -0.9 2.7 -1
v -0.9 2.7 -1.4
v -0.9 2.7 -1.5
v -0.8 2.3 1.6
v -0.8 2.3 1.5
v -0.8 2.3 -1.5
v -0.8 2.3 -1.6
v -0.8 2.7 1.6
v -0.8 2.7 1.5
v -0.8 2.7 -1.5
v -0.8 2.7 -1.6
v -0.7 1.6 1.5
v -0.7 1.6 1.1
v -0.7 1.6 -1.1
v -0.7 1.6 -1.5
v -0.7 1.9 1.5
v -0.7 1.9 1.1
v -0.7 1.9 -1.1
v -0.7 1.9 -1.5
v -0.6 1.3 0.8
v -0.6 1.3 -0.8
v -0.6 1.4 0.8
v -0.6 1.4 -0.8
v -0.1 1.7 1.4
v -0.1 1.7 1.2
v -0.1 1.7 -1.2
v -0.1 1.7 -1.4
v -0.1 1.9 1.4
v -0.1 1.9 1.2
v -0.1 1.9 -1.2
v -0.1 1.9 -1.4
v 0.2 1.2 1.6
v 0.2 1.2 1.5
v 0.2 1.2 0.8
v 0.2 1.2 -0.8
v 0.2 1.2 -1.5
v 0.2 1.2 -1.6
v 0.2 1.4 0.8
v 0.2 1.4 -0.8
v 0.2 1.6 1.6
v 0.2 1.6 1.5
v 0.2 1.6 -1.5
v 0.2 1.6 -1.6
v 0.8 1.6 1.6
v 0.8 1.6 1.5
v 0.8 1.6 -1.5
v 0.8 1.6 -1.6
v 0.8 2.3 1.6
v 0.8 2.3 1.5
v 0.8 2.3 -1.5
v 0.8 2.3 -1.6
v -1.3 2.1 0.4
v -1.3 2.1 0.2
v -1.3 2.1 -0.2
v -1.3 2.1 -0.4
v -1.3 2.2 0.4
v -1.3 2.2 0.2
v -1.3 2.2 -0.2
v -1.3 2.2 -0.4
v -1 1.4 0.3
v -1 1.4 -0.1
v -1 1.5 0.9
v -1 1.5 0.5
v -1 1.5 -0.1
v -1 1.5 -0.3
v -1 1.5 -0.5
v -1 1.5 -0.9
v -1 1.9 0.9
v -1 1.9 0.5
v -1 1.9 0.3
v -1 1.9 -0.3
v -1 1.9 -0.5
v -1 1.9 -0.9
v -0.9 1.6 1.5
v -0.9 1.6 1.1
v -0.9 1.6 -1.1
v -0.9 1.6 -1.5
v -0.9 1.9 1.5
v -0.9 1.9 1.1
v -0.9 1.9 -1.1
v -0.9 1.9 -1.5
v -0.3 1.6 1.5
v -0.3 1.6 1.1
v -0.3 1.6 -1.1
v -0.3 1.6 -1.5
v -0.3 1.9 1.5
v -0.3 1.9 1.1
v -0.3 1.9 -1.1
v -0.3 1.9 -1.5
v 0.1 1.7 1.4
v 0.1 1.7 1.2
v 0.1 1.7 -1.2
v 0.1 1.7 -1.4
v 0.1 1.9 1.6
v 0.1 1.9 1.5
v 0.1 1.9 1.4
v 0.1 1.9 1.2
v 0.1 1.9 1.1
v 0.1 1.9 -1.1
v 0.1 1.9 -1.2
v 0.1 1.9 -1.4
v 0.1 1.9 -1.5
v 0.1 1.9 -1.6
v 0.1 2.3 1.6
v 0.1 2.3 1.5
v 0.1 2.3 1.1
v 0.1 2.3 -1.1
v 0.1 2.3 -1.5
v 0.1 2.3 -1.6
v 1.6 0 1.6
v 1.6 0 -1.6
v 1.6 3.1 0.1
v 1.6 3.1 -0.1
v 1.6 3.2 1.6
v 1.6 3.2 0.1
v 1.6 3.2 -0.1
v 1.6 3.2 -1.6
v -1.4 0 1.6
v -1.4 0.8 1.6
v -1.3 2.7 1.6
v -1.3 2.9 1.6
v -1.2 0.8 1.6
v -1.2 1.2 1.6
v -1.2 1.9 1.6
v -1.2 2.3 1.6
v -1.2 2.9 1.6
v -1.2 3.2 1.6
v -0.8 2.3 1.6
v -0.8 2.7 1.6
v -0.7 2.7 1.6
v -0.7 2.9 1.6
v 0.1 1.9 1.6
v 0.1 2.3 1.6
v 0.2 1.2 1.6
v 0.2 1.6 1.6
v 0.8 1.6 1.6
v 0.8 2.3 1.6
v 1.6 0 1.6
v 1.6 3.2 1.6
v -1.1 1.6 1.5
v -1.1 1.9 1.5
v -0.9 1.6 1.5
v -0.9 1.9 1.5
v -0.9 2.3 1.5
v -0.9 2.7 1.5
v -0.8 2.3 1.5
v -0.8 2.7 1.5
v -0.7 1.6 1.5
v -0.7 1.9 1.5
v -0.3 1.6 1.5
v -0.3 1.9 1.5
v -1 2.3 1.4
v -1 2.7 1.4
v -0.9 2.3 1.4
v -0.9 2.7 1.4
v -0.1 1.7 1.4
v -0.1 1.9 1.4
v 0.1 1.7 1.4
v 0.1 1.9 1.4
v -1.2 2.3 0.9
v -1.2 2.7 0.9
v -1.1 1.5 0.9
v -1.1 1.9 0.9
v -1 1.5 0.9
v -1 1.9 0.9
v -0.9 2.3 0.9
v -0.9 2.7 0.9
v -0.9 1.2 0.8
v -0.9 1.3 0.8
v -0.6 1.3 0.8
v -0.6 1.4 0.8
v 0.2 1.2 0.8
v 0.2 1.4 0.8
v -1.4 2.1 0.5
v -1.4 2.4 0.5
v -1.2 2.1 0.5
v -1.2 2.4 0.5
v -1.1 1.4 0.3
v -1.1 1.9 0.3
v -1 1.4 0.3
v -1 1.9 0.3
v -1.6 2 0.2
v -1.6 2.7 0.2
v -1.4 2.1 0.2
v -1.4 2.4 0.2
v -1.4 2.7 0.2
v -1.4 2.9 0.2
v -1.3 2.1 0.2
v -1.3 2.2 0.2
v -1.2 2 0.2
v -1.2 2.2 0.2
v -1.2 2.4 0.2
v -1.2 2.9 0.2
v -1.2 3.1 -0.1
v -1.2 3.2 -0.1
v 1.6 3.1 -0.1
v 1.6 3.2 -0.1
v -1.3 2.1 -0.4
v -1.3 2.2 -0.4
v -1.2 2.1 -0.4
v -1.2 2.2 -0.4
v -1.3 2.7 -0.5
v -1.3 2.9 -0.5
v -1.2 2.7 -0.5
v -1.2 2.9 -0.5
v -1.1 1.5 -0.5
v -1.1 1.9 -0.5
v -1 1.5 -0.5
v -1 1.9 -0.5
v -1 2.3 -1
v -1 2.7 -1
v -0.9 2.3 -1
v -0.9 2.7 -1
v -1.1 1.6 -1.1
v -1.1 1.9 -1.1
v -1 1.9 -1.1
v -0.9 1.6 -1.1
v -0.9 1.9 -1.1
v -0.7 1.6 -1.1
v -0.7 1.9 -1.1
v -0.3 1.6 -1.1
v -0.3 1.9 -1.1
v -0.1 1.7 -1.2
v -0.1 1.9 -1.2
v 0.1 1.7 -1.2
v 0.1 1.9 -1.2
v -0.1 1.7 1.2
v -0.1 1.9 1.2
v 0.1 1.7 1.2
v 0.1 1.9 1.2
v -1.1 1.6 1.1
v -1.1 1.9 1.1
v -1 1.9 1.1
v -0.9 1.6 1.1
v -0.9 1.9 1.1
v -0.7 1.6 1.1
v -0.7 1.9 1.1
v -0.3 1.6 1.1
v -0.3 1.9 1.1
v -1 2.3 1
v -1 2.7 1
v -0.9 2.3 1
v -0.9 2.7 1
v -1.3 2.7 0.5
v -1.3 2.9 0.5
v -1.2 2.7 0.5
v -1.2 2.9 0.5
v -1.1 1.5 0.5
v -1.1 1.9 0.5
v -1 1.5 0.5
v -1 1.9 0.5
v -1.3 2.1 0.4
v -1.3 2.2 0.4
v -1.2 2.1 0.4
v -1.2 2.2 0.4
v -1.2 3.1 0.1
v -1.2 3.2 0.1
v 1.6 3.1 0.1
v 1.6 3.2 0.1
v -1.1 1.4 -0.1
v -1.1 1.5 -0.1
v -1 1.4 -0.1
v -1 1.5 -0.1
v -1.6 2 -0.2
v -1.6 2.7 -0.2
v -1.4 2.1 -0.2
v -1.4 2.4 -0.2
v -1.4 2.7 -0.2
v -1.4 2.9 -0.2
v -1.3 2.1 -0.2
v -1.3 2.2 -0.2
v -1.2 2 -0.2
v -1.2 2.2 -0.2
v -1.2 2.4 -0.2
v -1.2 2.9 -0.2
v -1.1 1.5 -0.3
v -1.1 1.9 -0.3
v -1 1.5 -0.3
v -1 1.9 -0.3
v -1.4 2.1 -0.5
v -1.4 2.4 -0.5
v -1.2 2.1 -0.5
v -1.2 2.4 -0.5
v -0.9 1.2 -0.8
v -0.9 1.3 -0.8
v -0.6 1.3 -0.8
v -0.6 1.4 -0.8
v 0.2 1.2 -0.8
v 0.2 1.4 -0.8
v -1.2 2.3 -0.9
v -1.2 2.7 -0.9
v -1.1 1.5 -0.9
v -1.1 1.9 -0.9
v -1 1.5 -0.9
v -1 1.9 -0.9
v -0.9 2.3 -0.9
v -0.9 2.7 -0.9
v -1 2.3 -1.4
v -1 2.7 -1.4
v -0.9 2.3 -1.4
v -0.9 2.7 -1.4
v -0.1 1.7 -1.4
v -0.1 1.9 -1.4
v 0.1 1.7 -1.4
v 0.1 1.9 -1.4
v -1.1 1.6 -1.5
v -1.1 1.9 -1.5
v -0.9 1.6 -1.5
v -0.9 1.9 -1.5
v -0.9 2.3 -1.5
v -0.9 2.7 -1.5
v -0.8 2.3 -1.5
v -0.8 2.7 -1.5
v -0.7 1.6 -1.5
v -0.7 1.9 -1.5
v -0.3 1.6 -1.5
v -0.3 1.9 -1.5
v -1.4 0 -1.6
v -1.4 0.8 -1.6
v -1.3 2.7 -1.6
v -1.3 2.9 -1.6
v -1.2 0.8 -1.6
v -1.2 1.2 -1.6
v -1.2 1.9 -1.6
v -1.2 2.3 -1.6
v -1.2 2.9 -1.6
v -1.2 3.2 -1.6
v -0.8 2.3 -1.6
v -0.8 2.7 -1.6
v -0.7 2.7 -1.6
v -0.7 2.9 -1.6
v 0.1 1.9 -1.6
v 0.1 2.3 -1.6
v 0.2 1.2 -1.6
v 0.2 1.6 -1.6
v 0.8 1.6 -1.6
v 0.8 2.3 -1.6
v 1.6 0 -1.6
v 1.6 3.2 -1.6
v -1.4 0 1.6
v 1.6 0 1.6
v -1.4 0 -1.6
v 1.6 0 -1.6
v -1.1 1.4 0.3
v -1 1.4 0.3
v -1.1 1.4 -0.1
v -1 1.4 -0.1
v -1.1 1.5 0.9
v -1 1.5 0.9
v -1.1 1.5 0.5
v -1 1.5 0.5
v -1.1 1.5 -0.1
v -1 1.5 -0.1
v -1.1 1.5 -0.3
v -1 1.5 -0.3
v -1.1 1.5 -0.5
v -1 1.5 -0.5
v -1.1 1.5 -0.9
v -1 1.5 -0.9
v -1.1 1.6 1.5
v -0.9 1.6 1.5
v -0.7 1.6 1.5
v -0.3 1.6 1.5
v -1.1 1.6 1.1
v -0.9 1.6 1.1
v -0.7 1.6 1.1
v -0.3 1.6 1.1
v -1.1 1.6 -1.1
v -0.9 1.6 -1.1
v -0.7 1.6 -1.1
v -0.3 1.6 -1.1
v -1.1 1.6 -1.5
v -0.9 1.6 -1.5
v -0.7 1.6 -1.5
v -0.3 1.6 -1.5
v -0.1 1.7 1.4
v 0.1 1.7 1.4
v -0.1 1.7 1.2
v 0.1 1.7 1.2
v -0.1 1.7 -1.2
v 0.1 1.7 -1.2
v -0.1 1.7 -1.4
v 0.1 1.7 -1.4
v -1.2 1.9 1.6
v 0.1 1.9 1.6
v -1.1 1.9 1.5
v -0.9 1.9 1.5
v -0.7 1.9 1.5
v -0.3 1.9 1.5
v 0.1 1.9 1.5
v -0.1 1.9 1.4
v 0.1 1.9 1.4
v -0.1 1.9 1.2
v 0.1 1.9 1.2
v -1.1 1.9 1.1
v -1 1.9 1.1
v -0.9 1.9 1.1
v -0.7 1.9 1.1
v -0.3 1.9 1.1
v 0.1 1.9 1.1
v -1.1 1.9 0.9
v -1 1.9 0.9
v -1.1 1.9 0.5
v -1 1.9 0.5
v -1.1 1.9 0.3
v -1 1.9 0.3
v -1.1 1.9 -0.3
v -1 1.9 -0.3
v -1.1 1.9 -0.5
v -1 1.9 -0.5
v -1.1 1.9 -0.9
v -1 1.9 -0.9
v -1.1 1.9 -1.1
v -1 1.9 -1.1
v -0.9 1.9 -1.1
v -0.7 1.9 -1.1
v -0.3 1.9 -1.1
v 0.1 1.9 -1.1
v -0.1 1.9 -1.2
v 0.1 1.9 -1.2
v -0.1 1.9 -1.4
v 0.1 1.9 -1.4
v -1.1 1.9 -1.5
v -0.9 1.9 -1.5
v -0.7 1.9 -1.5
v -0.3 1.9 -1.5
v 0.1 1.9 -1.5
v -1.2 1.9 -1.6
v 0.1 1.9 -1.6
v -1.6 2 0.2
v -1.2 2 0.2
v -1.6 2 -0.2
v -1.2 2 -0.2
v -1.4 2.1 0.5
v -1.2 2.1 0.5
v -1.3 2.1 0.4
v -1.2 2.1 0.4
v -1.4 2.1 0.2
v -1.3 2.1 0.2
v -1.4 2.1 -0.2
v -1.3 2.1 -0.2
v -1.3 2.1 -0.4
v -1.2 2.1 -0.4
v -1.4 2.1 -0.5
v -1.2 2.1 -0.5
v -1.3 2.2 0.4
v -1.2 2.2 0.4
v -1.3 2.2 0.2
v -1.2 2.2 0.2
v -1.3 2.2 -0.2
v -1.2 2.2 -0.2
v -1.3 2.2 -0.4
v -1.2 2.2 -0.4
v 0.1 2.3 1.6
v 0.8 2.3 1.6
v 0.1 2.3 1.5
v 0.8 2.3 1.5
v 0.1 2.3 1.1
v 0.1 2.3 -1.1
v 0.1 2.3 -1.5
v 0.8 2.3 -1.5
v 0.1 2.3 -1.6
v 0.8 2.3 -1.6
v -1.3 2.7 1.6
v -0.8 2.7 1.6
v -0.9 2.7 1.5
v -0.8 2.7 1.5
v -1 2.7 1.4
v -0.9 2.7 1.4
v -1 2.7 1
v -0.9 2.7 1
v -1.2 2.7 0.9
v -0.9 2.7 0.9
v -1.3 2.7 0.5
v -1.2 2.7 0.5
v -1.3 2.7 -0.5
v -1.2 2.7 -0.5
v -1.2 2.7 -0.9
v -0.9 2.7 -0.9
v -1 2.7 -1
v -0.9 2.7 -1
v -1 2.7 -1.4
v -0.9 2.7 -1.4
v -0.9 2.7 -1.5
v -0.8 2.7 -1.5
v -1.3 2.7 -1.6
v -0.8 2.7 -1.6
v -1.4 0.8 1.6
v -1.2 0.8 1.6
v -1.4 0.8 -1.6
v -1.2 0.8 -1.6
v -1.2 1.2 1.6
v 0.2 1.2 1.6
v -1.1 1.2 1.5
v 0.2 1.2 1.5
v -0.9 1.2 0.8
v 0.2 1.2 0.8
v -0.9 1.2 -0.8
v 0.2 1.2 -0.8
v -1.1 1.2 -1.5
v 0.2 1.2 -1.5
v -1.2 1.2 -1.6
v 0.2 1.2 -1.6
v -0.9 1.3 0.8
v -0.6 1.3 0.8
v -0.9 1.3 -0.8
v -0.6 1.3 -0.8
v -0.6 1.4 0.8
v 0.2 1.4 0.8
v -0.6 1.4 -0.8
v 0.2 1.4 -0.8
v 0.2 1.6 1.6
v 0.8 1.6 1.6
v 0.2 1.6 1.5
v 0.8 1.6 1.5
v 0.2 1.6 -1.5
v 0.8 1.6 -1.5
v 0.2 1.6 -1.6
v 0.8 1.6 -1.6
v -1.2 2.3 1.6
v -0.8 2.3 1.6
v -0.9 2.3 1.5
v -0.8 2.3 1.5
v -1 2.3 1.4
v -0.9 2.3 1.4
v -1 2.3 1
v -0.9 2.3 1
v -1.2 2.3 0.9
v -0.9 2.3 0.9
v -1.2 2.3 -0.9
v -0.9 2.3 -0.9
v -1 2.3 -1
v -0.9 2.3 -1
v -1 2.3 -1.4
v -0.9 2.3 -1.4
v -0.9 2.3 -1.5
v -0.8 2.3 -1.5
v -1.2 2.3 -1.6
v -0.8 2.3 -1.6
v -1.4 2.4 0.5
v -1.2 2.4 0.5
v -1.4 2.4 0.2
v -1.2 2.4 0.2
v -1.4 2.4 -0.2
v -1.2 2.4 -0.2
v -1.4 2.4 -0.5
v -1.2 2.4 -0.5
v -1.6 2.7 0.2
v -1.4 2.7 0.2
v -1.6 2.7 -0.2
v -1.4 2.7 -0.2
v -1.3 2.9 1.6
v -1.2 2.9 1.6
v -1.3 2.9 0.5
v -1.2 2.9 0.5
v -1.4 2.9 0.2
v -1.2 2.9 0.2
v -1.4 2.9 -0.2
v -1.2 2.9 -0.2
v -1.3 2.9 -0.5
v -1.2 2.9 -0.5
v -1.3 2.9 -1.6
v -1.2 2.9 -1.6
v -1.2 3.1 0.1
v 1.6 3.1 0.1
v -1.2 3.1 -0.1
v 1.6 3.1 -0.1
v -1.2 3.2 1.6
v 1.6 3.2 1.6
v -1.2 3.2 0.1
v 1.6 3.2 0.1
v -1.2 3.2 -0.1
v 1.6 3.2 -0.1
v -1.2 3.2 -1.6
v 1.6 3.2 -1.6

# faces
f 3/5/1 2/5/1 1/5/1
f 4/5/1 2/5/1 3/5/1
f 7/5/1 6/5/1 5/5/1
f 8/5/1 6/5/1 7/5/1
f 13/5/1 10/5/1 9/5/1
f 14/5/1 10/5/1 13/5/1
f 15/5/1 12/5/1 11/5/1
f 16/5/1 12/5/1 15/5/1
f 19/5/1 18/5/1 17/5/1
f 20/5/1 18/5/1 19/5/1
f 25/2/1 22/2/1 21/2/1
f 26/2/1 22/2/1 25/2/1
f 27/2/1 24/2/1 23/2/1
f 28/2/1 24/2/1 27/2/1
f 31/5/1 30/5/1 29/5/1
f 32/5/1 30/5/1 31/5/1
f 35/5/1 34/5/1 33/5/1
f 36/5/1 34/5/1 35/5/1
f 37/5/1 35/5/1 33/5/1
f 38/5/1 35/5/1 37/5/1
f 39/5/1 34/5/1 36/5/1
f 40/5/1 34/5/1 39/5/1
f 41/5/1 35/5/1 38/5/1
f 42/5/1 35/5/1 41/5/1
f 43/5/1 39/5/1 36/5/1
f 44/5/1 39/5/1 43/5/1
f 45/5/1 37/5/1 33/5/1
f 46/5/1 37/5/1 45/5/1
f 47/5/1 34/5/1 40/5/1
f 48/5/1 34/5/1 47/5/1
f 49/5/1 37/5/1 46/5/1
f 52/5/1 47/5/1 40/5/1
f 53/5/1 50/5/1 49/5/1
f 53/5/1 49/5/1 46/5/1
f 54/5/1 50/5/1 53/5/1
f 55/5/1 52/5/1 51/5/1
f 55/5/1 47/5/1 52/5/1
f 56/5/1 47/5/1 55/5/1
f 58/5/1 50/5/1 54/5/1
f 59/5/1 50/5/1 58/5/1
f 60/5/1 55/5/1 51/5/1
f 61/5/1 55/5/1 60/5/1
f 63/5/1 59/5/1 58/5/1
f 63/5/1 62/5/1 61/5/1
f 63/5/1 60/5/1 59/5/1
f 63/5/1 61/5/1 60/5/1
f 63/5/1 58/5/1 57/5/1
f 64/5/1 62/5/1 63/5/1
f 65/5/1 63/5/1 57/5/1
f 66/5/1 63/5/1 65/5/1
f 67/5/1 62/5/1 64/5/1
f 68/5/1 62/5/1 67/5/1
f 73/1/1 70/1/1 69/1/1
f 81/1/1 78/1/1 77/1/1
f 82/1/1 78/1/1 81/1/1
f 83/1/1 72/1/1 71/1/1
f 84/1/1 72/1/1 83/1/1
f 85/1/1 73/1/1 69/1/1
f 85/1/1 74/1/1 73/1/1
f 86/1/1 74/1/1 85/1/1
f 87/1/1 76/1/1 75/1/1
f 88/1/1 76/1/1 87/1/1
f 89/1/1 80/1/1 79/1/1
f 90/1/1 80/1/1 89/1/1
f 95/1/1 92/1/1 91/1/1
f 96/1/1 92/1/1 95/1/1
f 97/1/1 94/1/1 93/1/1
f 98/1/1 94/1/1 97/1/1
f 99/1/1 95/1/1 91/1/1
f 99/2/1 96/2/1 95/2/1
f 100/1/1 92/1/1 96/1/1
f 100/2/1 96/2/1 99/2/1
f 101/2/1 98/2/1 97/2/1
f 101/1/1 97/1/1 93/1/1
f 102/1/1 94/1/1 98/1/1
f 102/2/1 98/2/1 101/2/1
f 103/1/1 99/1/1 91/1/1
f 103/1/1 100/1/1 99/1/1
f 104/1/1 92/1/1 100/1/1
f 104/1/1 100/1/1 103/1/1
f 105/1/1 101/1/1 93/1/1
f 105/1/1 102/1/1 101/1/1
f 106/1/1 94/1/1 102/1/1
f 106/1/1 102/1/1 105/1/1
f 109/3/1 108/3/1 107/3/1
f 110/3/1 108/3/1 109/3/1
f 119/1/1 112/1/1 111/1/1
f 120/1/1 112/1/1 119/1/1
f 121/1/1 114/1/1 113/1/1
f 122/1/1 114/1/1 121/1/1
f 123/1/1 116/1/1 115/1/1
f 124/1/1 116/1/1 123/1/1
f 125/1/1 118/1/1 117/1/1
f 126/1/1 118/1/1 125/1/1
f 131/5/1 128/5/1 127/5/1
f 132/5/1 128/5/1 131/5/1
f 133/5/1 130/5/1 129/5/1
f 134/5/1 130/5/1 133/5/1
f 139/1/1 136/1/1 135/1/1
f 140/1/1 136/1/1 139/1/1
f 141/1/1 138/1/1 137/1/1
f 142/1/1 138/1/1 141/1/1
f 145/3/1 144/3/1 143/3/1
f 146/3/1 144/3/1 145/3/1
f 151/1/1 148/1/1 147/1/1
f 152/1/1 148/1/1 151/1/1
f 153/1/1 150/1/1 149/1/1
f 154/1/1 150/1/1 153/1/1
f 161/4/1 157/4/1 156/4/1
f 162/4/1 159/4/1 158/4/1
f 163/5/1 156/5/1 155/5/1
f 164/4/1 162/4/1 161/4/1
f 164/5/1 156/5/1 163/5/1
f 164/4/1 161/4/1 156/4/1
f 165/5/1 160/5/1 159/5/1
f 165/4/1 162/4/1 164/4/1
f 165/4/1 159/4/1 162/4/1
f 166/5/1 160/5/1 165/5/1
f 171/5/1 168/5/1 167/5/1
f 172/4/1 169/4/1 168/4/1
f 172/5/1 168/5/1 171/5/1
f 173/5/1 170/5/1 169/5/1
f 173/4/1 169/4/1 172/4/1
f 174/5/1 170/5/1 173/5/1
f 175/5/2 176/5/2 179/5/2
f 179/5/2 176/5/2 180/5/2
f 177/5/2 178/5/2 181/5/2
f 181/5/2 178/5/2 182/5/2
f 183/1/2 184/1/2 187/1/2
f 185/1/2 186/1/2 191/1/2
f 191/1/2 186/1/2 192/1/2
f 183/1/2 187/1/2 193/1/2
f 187/1/2 188/1/2 193/1/2
f 193/1/2 188/1/2 194/1/2
f 189/1/2 190/1/2 195/1/2
f 195/1/2 190/1/2 196/1/2
f 197/1/2 198/1/2 201/1/2
f 201/1/2 198/1/2 202/1/2
f 199/1/2 200/1/2 203/1/2
f 203/1/2 200/1/2 204/1/2
f 205/1/2 206/1/2 209/1/2
f 209/1/2 206/1/2 210/1/2
f 207/1/2 208/1/2 211/1/2
f 211/1/2 208/1/2 212/1/2
f 213/1/2 214/1/2 219/1/2
f 219/1/2 214/1/2 220/1/2
f 215/1/2 216/1/2 223/1/2
f 223/1/2 216/1/2 224/1/2
f 217/5/2 218/5/2 227/5/2
f 218/3/2 219/3/2 228/3/2
f 227/5/2 218/5/2 228/5/2
f 219/3/2 220/3/2 228/3/2
f 220/3/2 221/3/2 228/3/2
f 221/4/2 222/4/2 229/4/2
f 228/3/2 221/3/2 229/3/2
f 224/3/2 225/3/2 230/3/2
f 229/4/2 222/4/2 230/4/2
f 223/3/2 224/3/2 230/3/2
f 222/3/2 223/3/2 230/3/2
f 225/5/2 226/5/2 231/5/2
f 230/3/2 225/3/2 231/3/2
f 231/5/2 226/5/2 232/5/2
f 233/5/2 234/5/2 235/5/2
f 235/5/2 234/5/2 236/5/2
f 233/5/2 235/5/2 237/5/2
f 237/5/2 235/5/2 238/5/2
f 236/5/2 234/5/2 239/5/2
f 239/5/2 234/5/2 240/5/2
f 245/5/3 242/5/3 241/5/3
f 249/2/3 244/2/3 243/2/3
f 251/5/3 248/5/3 247/5/3
f 252/2/3 249/2/3 243/2/3
f 253/2/3 249/2/3 252/2/3
f 253/5/3 252/5/3 251/5/3
f 254/5/3 250/5/3 249/5/3
f 254/2/3 249/2/3 253/2/3
f 255/5/3 253/5/3 251/5/3
f 255/5/3 251/5/3 247/5/3
f 255/5/3 254/5/3 253/5/3
f 256/5/3 254/5/3 255/5/3
f 257/5/3 246/5/3 245/5/3
f 259/5/3 258/5/3 257/5/3
f 260/5/3 254/5/3 256/5/3
f 261/5/3 245/5/3 241/5/3
f 261/5/3 260/5/3 259/5/3
f 261/5/3 259/5/3 257/5/3
f 261/5/3 257/5/3 245/5/3
f 262/5/3 250/5/3 254/5/3
f 262/5/3 260/5/3 261/5/3
f 262/5/3 254/5/3 260/5/3
f 265/1/3 264/1/3 263/1/3
f 266/1/3 264/1/3 265/1/3
f 269/1/3 268/1/3 267/1/3
f 270/1/3 268/1/3 269/1/3
f 273/1/3 272/1/3 271/1/3
f 274/1/3 272/1/3 273/1/3
f 277/1/3 276/1/3 275/1/3
f 278/1/3 276/1/3 277/1/3
f 281/1/3 280/1/3 279/1/3
f 282/1/3 280/1/3 281/1/3
f 287/1/3 286/1/3 285/1/3
f 288/1/3 286/1/3 287/1/3
f 289/5/3 284/5/3 283/5/3
f 290/5/3 284/5/3 289/5/3
f 293/3/3 292/3/3 291/3/3
f 295/3/3 293/3/3 291/3/3
f 295/3/3 294/3/3 293/3/3
f 296/3/3 294/3/3 295/3/3
f 299/5/3 298/5/3 297/5/3
f 300/5/3 298/5/3 299/5/3
f 303/1/3 302/1/3 301/1/3
f 304/1/3 302/1/3 303/1/3
f 307/5/3 306/5/3 305/5/3
f 308/5/3 306/5/3 307/5/3
f 309/5/3 306/5/3 308/5/3
f 311/5/3 307/5/3 305/5/3
f 313/5/3 311/5/3 305/5/3
f 313/5/3 312/5/3 311/5/3
f 314/5/3 312/5/3 313/5/3
f 315/5/3 310/5/3 309/5/3
f 315/5/3 309/5/3 308/5/3
f 316/5/3 310/5/3 315/5/3
f 319/5/3 318/5/3 317/5/3
f 320/5/3 318/5/3 319/5/3
f 323/5/3 322/5/3 321/5/3
f 324/5/3 322/5/3 323/5/3
f 327/2/3 326/2/3 325/2/3
f 328/2/3 326/2/3 327/2/3
f 331/1/3 330/1/3 329/1/3
f 332/1/3 330/1/3 331/1/3
f 335/1/3 334/1/3 333/1/3
f 336/1/3 334/1/3 335/1/3
f 339/1/3 338/1/3 337/1/3
f 340/1/3 339/1/3 337/1/3
f 341/1/3 339/1/3 340/1/3
f 344/1/3 343/1/3 342/1/3
f 345/1/3 343/1/3 344/1/3
f 348/1/3 347/1/3 346/1/3
f 349/1/3 347/1/3 348/1/3
f 350/1/4 351/1/4 352/1/4
f 352/1/4 351/1/4 353/1/4
f 354/1/4 355/1/4 356/1/4
f 354/1/4 356/1/4 357/1/4
f 357/1/4 356/1/4 358/1/4
f 359/1/4 360/1/4 361/1/4
f 361/1/4 360/1/4 362/1/4
f 363/1/4 364/1/4 365/1/4
f 365/1/4 364/1/4 366/1/4
f 367/2/4 368/2/4 369/2/4
f 369/2/4 368/2/4 370/2/4
f 371/1/4 372/1/4 373/1/4
f 373/1/4 372/1/4 374/1/4
f 375/5/4 376/5/4 377/5/4
f 377/5/4 376/5/4 378/5/4
f 379/5/4 380/5/4 381/5/4
f 381/5/4 380/5/4 382/5/4
f 383/1/4 384/1/4 385/1/4
f 385/1/4 384/1/4 386/1/4
f 387/5/4 388/5/4 389/5/4
f 389/5/4 388/5/4 390/5/4
f 390/5/4 388/5/4 391/5/4
f 387/5/4 389/5/4 393/5/4
f 387/5/4 393/5/4 395/5/4
f 393/5/4 394/5/4 395/5/4
f 395/5/4 394/5/4 396/5/4
f 391/5/4 392/5/4 397/5/4
f 390/5/4 391/5/4 397/5/4
f 397/5/4 392/5/4 398/5/4
f 399/1/4 400/1/4 401/1/4
f 401/1/4 400/1/4 402/1/4
f 403/5/4 404/5/4 405/5/4
f 405/5/4 404/5/4 406/5/4
f 407/3/4 408/3/4 409/3/4
f 407/3/4 409/3/4 411/3/4
f 409/3/4 410/3/4 411/3/4
f 411/3/4 410/3/4 412/3/4
f 415/1/4 416/1/4 417/1/4
f 417/1/4 416/1/4 418/1/4
f 413/5/4 414/5/4 419/5/4
f 419/5/4 414/5/4 420/5/4
f 421/1/4 422/1/4 423/1/4
f 423/1/4 422/1/4 424/1/4
f 425/1/4 426/1/4 427/1/4
f 427/1/4 426/1/4 428/1/4
f 429/1/4 430/1/4 431/1/4
f 431/1/4 430/1/4 432/1/4
f 433/1/4 434/1/4 435/1/4
f 435/1/4 434/1/4 436/1/4
f 437/1/4 438/1/4 439/1/4
f 439/1/4 438/1/4 440/1/4
f 441/5/4 442/5/4 445/5/4
f 443/2/4 444/2/4 449/2/4
f 447/5/4 448/5/4 451/5/4
f 443/2/4 449/2/4 452/2/4
f 452/2/4 449/2/4 453/2/4
f 451/5/4 452/5/4 453/5/4
f 449/5/4 450/5/4 454/5/4
f 453/2/4 449/2/4 454/2/4
f 451/5/4 453/5/4 455/5/4
f 447/5/4 451/5/4 455/5/4
f 453/5/4 454/5/4 455/5/4
f 455/5/4 454/5/4 456/5/4
f 445/5/4 446/5/4 457/5/4
f 457/5/4 458/5/4 459/5/4
f 456/5/4 454/5/4 460/5/4
f 441/5/4 445/5/4 461/5/4
f 459/5/4 460/5/4 461/5/4
f 457/5/4 459/5/4 461/5/4
f 445/5/4 457/5/4 461/5/4
f 454/5/4 450/5/4 462/5/4
f 461/5/4 460/5/4 462/5/4
f 460/5/4 454/5/4 462/5/4
f 465/5/5 464/5/5 463/5/5
f 466/5/5 464/5/5 465/5/5
f 469/1/5 468/1/5 467/1/5
f 470/1/5 468/1/5 469/1/5
f 473/1/5 472/1/5 471/1/5
f 474/1/5 472/1/5 473/1/5
f 477/1/5 476/1/5 475/1/5
f 478/1/5 476/1/5 477/1/5
f 481/1/5 480/1/5 479/1/5
f 482/1/5 480/1/5 481/1/5
f 487/1/5 484/1/5 483/1/5
f 488/1/5 484/1/5 487/1/5
f 489/1/5 486/1/5 485/1/5
f 490/1/5 486/1/5 489/1/5
f 495/1/5 492/1/5 491/1/5
f 496/1/5 492/1/5 495/1/5
f 497/1/5 494/1/5 493/1/5
f 498/1/5 494/1/5 497/1/5
f 501/1/5 500/1/5 499/1/5
f 502/1/5 500/1/5 501/1/5
f 505/1/5 504/1/5 503/1/5
f 506/1/5 504/1/5 505/1/5
f 509/5/5 508/5/5 507/5/5
f 510/5/5 508/5/5 509/5/5
f 511/5/5 508/5/5 510/5/5
f 512/5/5 508/5/5 511/5/5
f 513/5/5 508/5/5 512/5/5
f 514/3/5 513/3/5 512/3/5
f 515/3/5 513/3/5 514/3/5
f 516/3/5 514/3/5 512/3/5
f 518/5/5 509/5/5 507/5/5
f 520/3/5 511/3/5 510/3/5
f 521/3/5 511/3/5 520/3/5
f 522/3/5 517/3/5 516/3/5
f 522/3/5 516/3/5 512/3/5
f 523/3/5 517/3/5 522/3/5
f 524/3/5 519/3/5 518/3/5
f 524/5/5 518/5/5 507/5/5
f 525/4/5 521/4/5 520/4/5
f 525/3/5 519/3/5 524/3/5
f 525/4/5 520/4/5 519/4/5
f 525/4/5 522/4/5 521/4/5
f 525/4/5 523/4/5 522/4/5
f 526/5/5 524/5/5 507/5/5
f 527/4/5 523/4/5 525/4/5
f 528/5/5 526/5/5 507/5/5
f 528/3/5 527/3/5 526/3/5
f 529/4/5 523/4/5 527/4/5
f 529/3/5 527/3/5 528/3/5
f 530/5/5 528/5/5 507/5/5
f 531/4/5 523/4/5 529/4/5
f 532/5/5 530/5/5 507/5/5
f 532/3/5 531/3/5 530/3/5
f 533/4/5 523/4/5 531/4/5
f 533/3/5 531/3/5 532/3/5
f 534/5/5 532/5/5 507/5/5
f 535/4/5 523/4/5 533/4/5
f 536/5/5 534/5/5 507/5/5
f 536/3/5 535/3/5 534/3/5
f 537/4/5 523/4/5 535/4/5
f 537/3/5 535/3/5 536/3/5
f 538/4/5 523/4/5 537/4/5
f 539/4/5 523/4/5 538/4/5
f 540/4/5 523/4/5 539/4/5
f 541/4/5 523/4/5 540/4/5
f 542/3/5 541/3/5 540/3/5
f 543/3/5 541/3/5 542/3/5
f 544/3/5 542/3/5 540/3/5
f 546/5/5 536/5/5 507/5/5
f 547/3/5 539/3/5 538/3/5
f 548/3/5 539/3/5 547/3/5
f 549/3/5 545/3/5 544/3/5
f 549/3/5 544/3/5 540/3/5
f 550/3/5 545/3/5 549/3/5
f 551/5/5 548/5/5 547/5/5
f 551/5/5 546/5/5 507/5/5
f 551/5/5 550/5/5 549/5/5
f 551/5/5 549/5/5 548/5/5
f 551/5/5 547/5/5 546/5/5
f 552/5/5 550/5/5 551/5/5
f 555/5/5 554/5/5 553/5/5
f 556/5/5 554/5/5 555/5/5
f 559/5/5 558/5/5 557/5/5
f 560/5/5 558/5/5 559/5/5
f 561/5/5 559/5/5 557/5/5
f 562/5/5 559/5/5 561/5/5
f 565/5/5 564/5/5 563/5/5
f 567/5/5 565/5/5 563/5/5
f 567/5/5 566/5/5 565/5/5
f 568/5/5 566/5/5 567/5/5
f 571/2/5 570/2/5 569/2/5
f 572/2/5 570/2/5 571/2/5
f 575/2/5 574/2/5 573/2/5
f 576/2/5 574/2/5 575/2/5
f 579/5/5 578/5/5 577/5/5
f 580/5/5 578/5/5 579/5/5
f 581/4/5 580/4/5 579/4/5
f 582/4/5 580/4/5 581/4/5
f 583/4/5 580/4/5 582/4/5
f 584/4/5 580/4/5 583/4/5
f 585/5/5 584/5/5 583/5/5
f 586/5/5 584/5/5 585/5/5
f 589/2/5 588/2/5 587/2/5
f 590/2/5 588/2/5 589/2/5
f 591/2/5 589/2/5 587/2/5
f 592/2/5 589/2/5 591/2/5
f 593/2/5 591/2/5 587/2/5
f 595/2/5 593/2/5 587/2/5
f 595/2/5 594/2/5 593/2/5
f 596/2/5 594/2/5 595/2/5
f 597/2/5 595/2/5 587/2/5
f 598/2/5 595/2/5 597/2/5
f 601/2/5 600/2/5 599/2/5
f 603/2/5 602/2/5 601/2/5
f 604/2/5 602/2/5 603/2/5
f 605/2/5 603/2/5 601/2/5
f 607/2/5 606/2/5 605/2/5
f 609/2/5 607/2/5 605/2/5
f 609/2/5 608/2/5 607/2/5
f 609/2/5 601/2/5 599/2/5
f 609/2/5 605/2/5 601/2/5
f 610/2/5 608/2/5 609/2/5
f 611/5/6 612/5/6 613/5/6
f 613/5/6 612/5/6 614/5/6
f 615/5/6 616/5/6 617/5/6
f 617/5/6 616/5/6 618/5/6
f 617/4/6 618/4/6 619/4/6
f 619/4/6 618/4/6 620/4/6
f 617/4/6 619/4/6 621/4/6
f 615/5/6 617/5/6 623/5/6
f 621/4/6 622/4/6 623/4/6
f 617/4/6 621/4/6 623/4/6
f 623/4/6 622/4/6 624/4/6
f 615/5/6 623/5/6 625/5/6
f 623/5/6 624/5/6 625/5/6
f 625/5/6 624/5/6 626/5/6
f 627/3/6 628/3/6 629/3/6
f 629/3/6 628/3/6 630/3/6
f 631/3/6 632/3/6 633/3/6
f 633/3/6 632/3/6 634/3/6
f 635/5/6 636/5/6 637/5/6
f 637/5/6 636/5/6 638/5/6
f 637/4/6 638/4/6 639/4/6
f 639/4/6 638/4/6 640/4/6
f 639/5/6 640/5/6 641/5/6
f 641/5/6 640/5/6 642/5/6
f 643/5/6 644/5/6 645/5/6
f 645/5/6 644/5/6 646/5/6
f 643/5/6 645/5/6 647/5/6
f 647/5/6 645/5/6 648/5/6
f 643/5/6 647/5/6 649/5/6
f 643/5/6 649/5/6 651/5/6
f 649/5/6 650/5/6 651/5/6
f 651/5/6 650/5/6 652/5/6
f 653/5/6 654/5/6 655/5/6
f 655/5/6 654/5/6 656/5/6
f 653/5/6 655/5/6 657/5/6
f 657/5/6 658/5/6 659/5/6
f 657/5/6 659/5/6 661/5/6
f 659/5/6 660/5/6 661/5/6
f 653/5/6 657/5/6 661/5/6
f 661/5/6 660/5/6 662/5/6
f 663/5/6 664/5/6 665/5/6
f 665/5/6 664/5/6 666/5/6
f 667/5/6 668/5/6 669/5/6
f 669/5/6 668/5/6 670/5/6
f 671/5/6 672/5/6 673/5/6
f 673/5/6 672/5/6 674/5/6
f 675/2/6 676/2/6 677/2/6
f 677/2/6 676/2/6 678/2/6
f 679/5/6 680/5/6 681/5/6
f 681/5/6 680/5/6 682/5/6
f 683/2/6 684/2/6 685/2/6
f 685/2/6 684/2/6 686/2/6
f 687/5/6 688/5/6 689/5/6
f 689/5/6 688/5/6 690/5/6
f 691/5/6 692/5/6 693/5/6
f 693/5/6 692/5/6 694/5/6
f 695/5/6 696/5/6 697/5/6
f 697/5/6 696/5/6 698/5/6
