# MagicaVoxel @ Ephtracy

# group
o 

# material
mtllib long_gun-part.mtl
usemtl palette

# normals
vn -1 0 0
vn 1 0 0
vn 0 0 1
vn 0 0 -1
vn 0 -1 0
vn 0 1 0

# texcoords
vt 0.306641 0.5
vt 0.970703 0.5
vt 0.974609 0.5
vt 0.978516 0.5
vt 0.982422 0.5
vt 0.986328 0.5

# verts
v -4.5 -0.8 0.2
v -4.5 -0.8 -0.2
v -4.5 0.3 0.2
v -4.5 0.3 -0.2
v -1.8 -0.4 0.2
v -1.8 -0.4 -0.2
v -1.8 -0.3 0.2
v -1.8 -0.3 -0.2
v -0.7 -0.2 0.3
v -0.7 -0.2 0.2
v -0.7 -0.2 -0.2
v -0.7 -0.2 -0.3
v -0.7 0 0.2
v -0.7 0 -0.2
v -0.7 0.1 0.2
v -0.7 0.1 -0.2
v -0.7 0.2 0.2
v -0.7 0.2 -0.2
v -0.7 0.3 0.3
v -0.7 0.3 -0.3
v -0.3 0.3 0.2
v -0.3 0.3 -0.2
v -0.3 0.4 0.2
v -0.3 0.4 -0.2
v -0.2 -0.6 0.1
v -0.2 -0.6 -0.1
v -0.2 -0.2 0.1
v -0.2 -0.2 -0.1
v 0 -0.4 0.1
v 0 -0.4 -0.1
v 0 -0.2 0.1
v 0 -0.2 -0.1
v 0.1 0.4 0.2
v 0.1 0.4 -0.2
v 0.1 0.5 0.2
v 0.1 0.5 -0.2
v 0.2 0.5 0.2
v 0.2 0.5 0.1
v 0.2 0.5 -0.1
v 0.2 0.5 -0.2
v 0.2 0.7 0.2
v 0.2 0.7 0.1
v 0.2 0.7 -0.1
v 0.2 0.7 -0.2
v 0.4 -0.5 0.1
v 0.4 -0.5 -0.1
v 0.4 -0.2 0.1
v 0.4 -0.2 -0.1
v 0.4 0.3 0.3
v 0.4 0.3 0.2
v 0.4 0.4 0.3
v 0.4 0.4 0.2
v 0.5 0.4 0.3
v 0.5 0.4 0.2
v 0.5 0.5 0.2
v 0.5 0.6 0.3
v 0.5 0.6 0.2
v 2 0.1 0.2
v 2 0.1 0.1
v 2 0.1 -0.1
v 2 0.1 -0.2
v 2 0.2 0.2
v 2 0.2 0.1
v 2 0.2 -0.1
v 2 0.2 -0.2
v -3.7 -0.8 0.2
v -3.7 -0.8 -0.2
v -3.7 -0.7 0.2
v -3.7 -0.7 -0.2
v -3.3 -0.7 0.2
v -3.3 -0.7 -0.2
v -3.3 -0.6 0.2
v -3.3 -0.6 -0.2
v -2.9 -0.6 0.2
v -2.9 -0.6 -0.2
v -2.9 -0.5 0.2
v -2.9 -0.5 -0.2
v -2.5 -0.5 0.2
v -2.5 -0.5 -0.2
v -2.5 -0.4 0.2
v -2.5 -0.4 -0.2
v -2.1 -0.4 0.2
v -2.1 -0.4 -0.2
v -2.1 -0.3 0.2
v -2.1 -0.3 -0.2
v -1.6 0.2 0.2
v -1.6 0.2 -0.2
v -1.6 0.3 0.2
v -1.6 0.3 -0.2
v -1.4 -0.4 0.2
v -1.4 -0.4 -0.2
v -1.4 -0.2 0.2
v -1.4 -0.2 -0.2
v -0.3 -0.2 0.3
v -0.3 -0.2 0.2
v -0.3 -0.2 -0.2
v -0.3 -0.2 -0.3
v -0.3 0 0.2
v -0.3 0 -0.2
v -0.3 0.1 0.2
v -0.3 0.1 0.1
v -0.3 0.1 -0.1
v -0.3 0.1 -0.2
v -0.3 0.2 0.2
v -0.3 0.2 0.1
v -0.3 0.2 -0.1
v -0.3 0.2 -0.2
v -0.3 0.3 0.3
v -0.3 0.3 0.2
v -0.3 0.3 -0.2
v -0.3 0.3 -0.3
v -0.0999999 -0.5 0.1
v -0.0999999 -0.5 -0.1
v -0.0999999 -0.2 0.1
v -0.0999999 -0.2 -0.1
v 0.1 -0.4 0.1
v 0.1 -0.4 -0.1
v 0.1 -0.2 0.1
v 0.1 -0.2 -0.1
v 0.3 0.6 0.2
v 0.3 0.6 0.1
v 0.3 0.6 -0.1
v 0.3 0.6 -0.2
v 0.3 0.7 0.2
v 0.3 0.7 0.1
v 0.3 0.7 -0.1
v 0.3 0.7 -0.2
v 0.4 0.5 0.2
v 0.4 0.5 0.1
v 0.4 0.5 -0.1
v 0.4 0.5 -0.2
v 0.4 0.6 0.2
v 0.4 0.6 0.1
v 0.4 0.6 -0.1
v 0.4 0.6 -0.2
v 0.5 -0.6 0.1
v 0.5 -0.6 -0.1
v 0.5 -0.2 0.1
v 0.5 -0.2 -0.1
v 0.6 -0.2 0.2
v 0.6 -0.2 -0.2
v 0.6 -0.1 0.2
v 0.6 -0.1 -0.2
v 0.7 0.3 0.3
v 0.7 0.3 0.2
v 0.7 0.5 0.2
v 0.7 0.6 0.3
v 0.7 0.6 0.2
v 3.7 -0.1 0.2
v 3.7 -0.1 -0.2
v 3.7 0.1 0.2
v 3.7 0.1 -0.2
v 8 0.2 0.1
v 8 0.2 -0.1
v 8 0.4 0.1
v 8 0.4 -0.1
v 8.1 0.1 0.2
v 8.1 0.1 -0.2
v 8.1 0.2 0.1
v 8.1 0.2 -0.1
v 8.1 0.4 0.1
v 8.1 0.4 -0.1
v 8.1 0.5 0.2
v 8.1 0.5 -0.2
v -0.7 -0.2 0.3
v -0.7 0.3 0.3
v -0.3 -0.2 0.3
v -0.3 0.3 0.3
v 0.4 0.3 0.3
v 0.4 0.4 0.3
v 0.5 0.4 0.3
v 0.5 0.6 0.3
v 0.7 0.3 0.3
v 0.7 0.6 0.3
v -4.5 -0.8 0.2
v -4.5 0.3 0.2
v -4.4 -0.8 0.2
v -4.4 0.3 0.2
v -4.2 -0.8 0.2
v -4.2 0.3 0.2
v -3.7 -0.8 0.2
v -3.7 -0.7 0.2
v -3.3 -0.7 0.2
v -3.3 -0.6 0.2
v -2.9 -0.6 0.2
v -2.9 -0.5 0.2
v -2.5 -0.5 0.2
v -2.5 -0.4 0.2
v -2.1 -0.4 0.2
v -2.1 -0.3 0.2
v -1.8 -0.4 0.2
v -1.8 -0.3 0.2
v -1.6 0 0.2
v -1.6 0.1 0.2
v -1.6 0.2 0.2
v -1.6 0.3 0.2
v -1.4 -0.4 0.2
v -1.4 -0.2 0.2
v -0.7 -0.2 0.2
v -0.7 0 0.2
v -0.7 0.1 0.2
v -0.7 0.2 0.2
v -0.3 -0.2 0.2
v -0.3 0 0.2
v -0.3 0.1 0.2
v -0.3 0.2 0.2
v -0.3 0.3 0.2
v -0.3 0.4 0.2
v 0.1 0.4 0.2
v 0.1 0.5 0.2
v 0.2 0.5 0.2
v 0.2 0.7 0.2
v 0.3 0.6 0.2
v 0.3 0.7 0.2
v 0.4 0.3 0.2
v 0.4 0.4 0.2
v 0.4 0.5 0.2
v 0.4 0.6 0.2
v 0.5 -0.2 0.2
v 0.5 0 0.2
v 0.5 0.4 0.2
v 0.5 0.5 0.2
v 0.6 -0.2 0.2
v 0.6 -0.1 0.2
v 0.6 0 0.2
v 0.7 0.3 0.2
v 0.7 0.5 0.2
v 2 0.1 0.2
v 2 0.2 0.2
v 3.7 -0.1 0.2
v 3.7 0.1 0.2
v 8.1 0.1 0.2
v 8.1 0.5 0.2
v -0.3 0.1 0.1
v -0.3 0.2 0.1
v -0.2 -0.6 0.1
v -0.2 -0.2 0.1
v -0.0999999 -0.5 0.1
v -0.0999999 -0.2 0.1
v 0 -0.4 0.1
v 0 -0.2 0.1
v 0.1 -0.4 0.1
v 0.1 -0.2 0.1
v 0.4 -0.5 0.1
v 0.4 -0.2 0.1
v 0.5 -0.6 0.1
v 0.5 -0.2 0.1
v 2 0.1 0.1
v 2 0.2 0.1
v 0.2 0.5 -0.1
v 0.2 0.7 -0.1
v 0.3 0.6 -0.1
v 0.3 0.7 -0.1
v 0.4 0.5 -0.1
v 0.4 0.6 -0.1
v 8 0.2 -0.1
v 8 0.4 -0.1
v 8.1 0.2 -0.1
v 8.1 0.4 -0.1
v 0.5 0.5 0.2
v 0.5 0.6 0.2
v 0.7 0.5 0.2
v 0.7 0.6 0.2
v 0.2 0.5 0.1
v 0.2 0.7 0.1
v 0.3 0.6 0.1
v 0.3 0.7 0.1
v 0.4 0.5 0.1
v 0.4 0.6 0.1
v 8 0.2 0.1
v 8 0.4 0.1
v 8.1 0.2 0.1
v 8.1 0.4 0.1
v -0.3 0.1 -0.1
v -0.3 0.2 -0.1
v -0.2 -0.6 -0.1
v -0.2 -0.2 -0.1
v -0.0999999 -0.5 -0.1
v -0.0999999 -0.2 -0.1
v 0 -0.4 -0.1
v 0 -0.2 -0.1
v 0.1 -0.4 -0.1
v 0.1 -0.2 -0.1
v 0.4 -0.5 -0.1
v 0.4 -0.2 -0.1
v 0.5 -0.6 -0.1
v 0.5 -0.2 -0.1
v 2 0.1 -0.1
v 2 0.2 -0.1
v -4.5 -0.8 -0.2
v -4.5 0.3 -0.2
v -4.4 -0.8 -0.2
v -4.4 0.3 -0.2
v -4.2 -0.8 -0.2
v -4.2 0.3 -0.2
v -3.7 -0.8 -0.2
v -3.7 -0.7 -0.2
v -3.3 -0.7 -0.2
v -3.3 -0.6 -0.2
v -2.9 -0.6 -0.2
v -2.9 -0.5 -0.2
v -2.5 -0.5 -0.2
v -2.5 -0.4 -0.2
v -2.1 -0.4 -0.2
v -2.1 -0.3 -0.2
v -1.8 -0.4 -0.2
v -1.8 -0.3 -0.2
v -1.6 0 -0.2
v -1.6 0.1 -0.2
v -1.6 0.2 -0.2
v -1.6 0.3 -0.2
v -1.4 -0.4 -0.2
v -1.4 -0.2 -0.2
v -0.7 -0.2 -0.2
v -0.7 0 -0.2
v -0.7 0.1 -0.2
v -0.7 0.2 -0.2
v -0.3 -0.2 -0.2
v -0.3 0 -0.2
v -0.3 0.1 -0.2
v -0.3 0.2 -0.2
v -0.3 0.3 -0.2
v -0.3 0.4 -0.2
v 0.1 0.4 -0.2
v 0.1 0.5 -0.2
v 0.2 0.5 -0.2
v 0.2 0.7 -0.2
v 0.3 0.6 -0.2
v 0.3 0.7 -0.2
v 0.4 0.5 -0.2
v 0.4 0.6 -0.2
v 0.5 -0.2 -0.2
v 0.5 0 -0.2
v 0.6 -0.2 -0.2
v 0.6 -0.1 -0.2
v 0.6 0 -0.2
v 2 0.1 -0.2
v 2 0.2 -0.2
v 3.7 -0.1 -0.2
v 3.7 0.1 -0.2
v 8.1 0.1 -0.2
v 8.1 0.5 -0.2
v -0.7 -0.2 -0.3
v -0.7 0.3 -0.3
v -0.3 -0.2 -0.3
v -0.3 0.3 -0.3
v -4.5 -0.8 0.2
v -4.4 -0.8 0.2
v -4.2 -0.8 0.2
v -3.7 -0.8 0.2
v -4.5 -0.8 -0.2
v -4.4 -0.8 -0.2
v -4.2 -0.8 -0.2
v -3.7 -0.8 -0.2
v -3.7 -0.7 0.2
v -3.3 -0.7 0.2
v -3.7 -0.7 -0.2
v -3.3 -0.7 -0.2
v -3.3 -0.6 0.2
v -2.9 -0.6 0.2
v -0.2 -0.6 0.1
v 0.5 -0.6 0.1
v -0.2 -0.6 -0.1
v 0.5 -0.6 -0.1
v -3.3 -0.6 -0.2
v -2.9 -0.6 -0.2
v -2.9 -0.5 0.2
v -2.5 -0.5 0.2
v -2.9 -0.5 -0.2
v -2.5 -0.5 -0.2
v -2.5 -0.4 0.2
v -2.1 -0.4 0.2
v -1.8 -0.4 0.2
v -1.4 -0.4 0.2
v 0 -0.4 0.1
v 0.1 -0.4 0.1
v 0 -0.4 -0.1
v 0.1 -0.4 -0.1
v -2.5 -0.4 -0.2
v -2.1 -0.4 -0.2
v -1.8 -0.4 -0.2
v -1.4 -0.4 -0.2
v -2.1 -0.3 0.2
v -1.8 -0.3 0.2
v -2.1 -0.3 -0.2
v -1.8 -0.3 -0.2
v -0.7 -0.2 0.3
v -0.3 -0.2 0.3
v -1.4 -0.2 0.2
v -0.7 -0.2 0.2
v -0.3 -0.2 0.2
v 0.5 -0.2 0.2
v 0.6 -0.2 0.2
v -0.2 -0.2 0.1
v -0.0999999 -0.2 0.1
v 0 -0.2 0.1
v 0.1 -0.2 0.1
v 0.4 -0.2 0.1
v 0.5 -0.2 0.1
v -0.2 -0.2 -0.1
v -0.0999999 -0.2 -0.1
v 0 -0.2 -0.1
v 0.1 -0.2 -0.1
v 0.4 -0.2 -0.1
v 0.5 -0.2 -0.1
v -1.4 -0.2 -0.2
v -0.7 -0.2 -0.2
v -0.3 -0.2 -0.2
v 0.5 -0.2 -0.2
v 0.6 -0.2 -0.2
v -0.7 -0.2 -0.3
v -0.3 -0.2 -0.3
v 0.6 -0.1 0.2
v 3.7 -0.1 0.2
v 0.6 -0.1 -0.2
v 3.7 -0.1 -0.2
v 3.7 0.1 0.2
v 8.1 0.1 0.2
v 3.7 0.1 -0.2
v 8.1 0.1 -0.2
v -0.3 0.2 0.2
v 2 0.2 0.2
v -0.3 0.2 0.1
v 2 0.2 0.1
v -0.3 0.2 -0.1
v 2 0.2 -0.1
v -0.3 0.2 -0.2
v 2 0.2 -0.2
v 0.4 0.3 0.3
v 0.7 0.3 0.3
v 0.4 0.3 0.2
v 0.7 0.3 0.2
v 8 0.4 0.1
v 8.1 0.4 0.1
v 8 0.4 -0.1
v 8.1 0.4 -0.1
v -0.0999999 -0.5 0.1
v 0.4 -0.5 0.1
v -0.0999999 -0.5 -0.1
v 0.4 -0.5 -0.1
v -0.3 0.1 0.2
v 2 0.1 0.2
v -0.3 0.1 0.1
v 2 0.1 0.1
v -0.3 0.1 -0.1
v 2 0.1 -0.1
v -0.3 0.1 -0.2
v 2 0.1 -0.2
v -1.6 0.2 0.2
v -0.7 0.2 0.2
v 8 0.2 0.1
v 8.1 0.2 0.1
v 8 0.2 -0.1
v 8.1 0.2 -0.1
v -1.6 0.2 -0.2
v -0.7 0.2 -0.2
v -0.7 0.3 0.3
v -0.3 0.3 0.3
v -4.5 0.3 0.2
v -4.4 0.3 0.2
v -4.2 0.3 0.2
v -1.6 0.3 0.2
v -0.3 0.3 0.2
v -4.5 0.3 -0.2
v -4.4 0.3 -0.2
v -4.2 0.3 -0.2
v -1.6 0.3 -0.2
v -0.3 0.3 -0.2
v -0.7 0.3 -0.3
v -0.3 0.3 -0.3
v 0.4 0.4 0.3
v 0.5 0.4 0.3
v -0.3 0.4 0.2
v 0.1 0.4 0.2
v 0.4 0.4 0.2
v 0.5 0.4 0.2
v -0.3 0.4 -0.2
v 0.1 0.4 -0.2
v 0.1 0.5 0.2
v 0.2 0.5 0.2
v 0.4 0.5 0.2
v 0.5 0.5 0.2
v 0.7 0.5 0.2
v 8.1 0.5 0.2
v 0.2 0.5 0.1
v 0.4 0.5 0.1
v 0.2 0.5 -0.1
v 0.4 0.5 -0.1
v 0.1 0.5 -0.2
v 0.2 0.5 -0.2
v 0.4 0.5 -0.2
v 8.1 0.5 -0.2
v 0.5 0.6 0.3
v 0.7 0.6 0.3
v 0.3 0.6 0.2
v 0.4 0.6 0.2
v 0.5 0.6 0.2
v 0.7 0.6 0.2
v 0.3 0.6 0.1
v 0.4 0.6 0.1
v 0.3 0.6 -0.1
v 0.4 0.6 -0.1
v 0.3 0.6 -0.2
v 0.4 0.6 -0.2
v 0.2 0.7 0.2
v 0.3 0.7 0.2
v 0.2 0.7 0.1
v 0.3 0.7 0.1
v 0.2 0.7 -0.1
v 0.3 0.7 -0.1
v 0.2 0.7 -0.2
v 0.3 0.7 -0.2

# faces
f 3/2/1 2/2/1 1/2/1
f 4/2/1 2/2/1 3/2/1
f 7/2/1 6/2/1 5/2/1
f 8/2/1 6/2/1 7/2/1
f 13/3/1 10/3/1 9/3/1
f 14/3/1 12/3/1 11/3/1
f 15/3/1 13/3/1 9/3/1
f 16/3/1 12/3/1 14/3/1
f 17/3/1 15/3/1 9/3/1
f 18/3/1 12/3/1 16/3/1
f 19/3/1 17/3/1 9/3/1
f 19/3/1 18/3/1 17/3/1
f 20/3/1 12/3/1 18/3/1
f 20/3/1 18/3/1 19/3/1
f 23/5/1 22/5/1 21/5/1
f 24/5/1 22/5/1 23/5/1
f 27/3/1 26/3/1 25/3/1
f 28/3/1 26/3/1 27/3/1
f 31/3/1 30/3/1 29/3/1
f 32/3/1 30/3/1 31/3/1
f 35/5/1 34/5/1 33/5/1
f 36/5/1 34/5/1 35/5/1
f 41/6/1 38/6/1 37/6/1
f 42/6/1 38/6/1 41/6/1
f 43/6/1 40/6/1 39/6/1
f 44/6/1 40/6/1 43/6/1
f 47/3/1 46/3/1 45/3/1
f 48/3/1 46/3/1 47/3/1
f 51/3/1 50/3/1 49/3/1
f 52/3/1 50/3/1 51/3/1
f 55/3/1 54/3/1 53/3/1
f 56/3/1 55/3/1 53/3/1
f 57/3/1 55/3/1 56/3/1
f 62/5/1 59/5/1 58/5/1
f 63/5/1 59/5/1 62/5/1
f 64/5/1 61/5/1 60/5/1
f 65/5/1 61/5/1 64/5/1
f 66/2/2 67/2/2 68/2/2
f 68/2/2 67/2/2 69/2/2
f 70/2/2 71/2/2 72/2/2
f 72/2/2 71/2/2 73/2/2
f 74/2/2 75/2/2 76/2/2
f 76/2/2 75/2/2 77/2/2
f 78/2/2 79/2/2 80/2/2
f 80/2/2 79/2/2 81/2/2
f 82/2/2 83/2/2 84/2/2
f 84/2/2 83/2/2 85/2/2
f 86/2/2 87/2/2 88/2/2
f 88/2/2 87/2/2 89/2/2
f 90/2/2 91/2/2 92/2/2
f 92/2/2 91/2/2 93/2/2
f 94/3/2 95/3/2 98/3/2
f 96/3/2 97/3/2 99/3/2
f 94/3/2 98/3/2 100/3/2
f 99/3/2 97/3/2 103/3/2
f 100/3/2 101/3/2 104/3/2
f 94/3/2 100/3/2 104/3/2
f 104/3/2 101/3/2 105/3/2
f 102/3/2 103/3/2 106/3/2
f 103/3/2 97/3/2 107/3/2
f 106/3/2 103/3/2 107/3/2
f 94/3/2 104/3/2 108/3/2
f 108/3/2 104/3/2 109/3/2
f 107/3/2 97/3/2 110/3/2
f 110/3/2 97/3/2 111/3/2
f 112/3/2 113/3/2 114/3/2
f 114/3/2 113/3/2 115/3/2
f 116/3/2 117/3/2 118/3/2
f 118/3/2 117/3/2 119/3/2
f 120/6/2 121/6/2 124/6/2
f 124/6/2 121/6/2 125/6/2
f 122/6/2 123/6/2 126/6/2
f 126/6/2 123/6/2 127/6/2
f 128/6/2 129/6/2 132/6/2
f 132/6/2 129/6/2 133/6/2
f 130/6/2 131/6/2 134/6/2
f 134/6/2 131/6/2 135/6/2
f 136/3/2 137/3/2 138/3/2
f 138/3/2 137/3/2 139/3/2
f 140/3/2 141/3/2 142/3/2
f 142/3/2 141/3/2 143/3/2
f 144/3/2 145/3/2 146/3/2
f 144/3/2 146/3/2 147/3/2
f 147/3/2 146/3/2 148/3/2
f 149/5/2 150/5/2 151/5/2
f 151/5/2 150/5/2 152/5/2
f 153/3/2 154/3/2 155/3/2
f 155/3/2 154/3/2 156/3/2
f 157/5/2 158/5/2 159/5/2
f 159/5/2 158/5/2 160/5/2
f 157/5/2 159/5/2 161/5/2
f 160/5/2 158/5/2 162/5/2
f 157/5/2 161/5/2 163/5/2
f 161/5/2 162/5/2 163/5/2
f 162/5/2 158/5/2 164/5/2
f 163/5/2 162/5/2 164/5/2
f 167/3/3 166/3/3 165/3/3
f 168/3/3 166/3/3 167/3/3
f 171/3/3 170/3/3 169/3/3
f 173/3/3 171/3/3 169/3/3
f 173/3/3 172/3/3 171/3/3
f 174/3/3 172/3/3 173/3/3
f 177/2/3 176/2/3 175/2/3
f 178/2/3 176/2/3 177/2/3
f 179/4/3 178/4/3 177/4/3
f 180/4/3 178/4/3 179/4/3
f 181/2/3 180/2/3 179/2/3
f 182/2/3 180/2/3 181/2/3
f 183/2/3 180/2/3 182/2/3
f 184/2/3 180/2/3 183/2/3
f 185/2/3 180/2/3 184/2/3
f 186/2/3 180/2/3 185/2/3
f 187/2/3 180/2/3 186/2/3
f 188/2/3 180/2/3 187/2/3
f 189/2/3 180/2/3 188/2/3
f 190/2/3 180/2/3 189/2/3
f 192/2/3 180/2/3 190/2/3
f 193/2/3 180/2/3 192/2/3
f 193/2/3 192/2/3 191/2/3
f 194/2/3 180/2/3 193/2/3
f 195/2/3 180/2/3 194/2/3
f 196/2/3 180/2/3 195/2/3
f 197/2/3 193/2/3 191/2/3
f 198/2/3 193/2/3 197/2/3
f 199/2/3 193/2/3 198/2/3
f 200/4/3 194/4/3 193/4/3
f 200/2/3 193/2/3 199/2/3
f 201/2/3 195/2/3 194/2/3
f 201/4/3 194/4/3 200/4/3
f 202/2/3 195/2/3 201/2/3
f 209/5/3 207/5/3 206/5/3
f 209/5/3 208/5/3 207/5/3
f 211/5/3 210/5/3 209/5/3
f 213/6/3 212/6/3 211/6/3
f 214/6/3 212/6/3 213/6/3
f 215/5/3 209/5/3 206/5/3
f 215/5/3 211/5/3 209/5/3
f 216/5/3 211/5/3 215/5/3
f 217/6/3 213/6/3 211/6/3
f 217/5/3 211/5/3 216/5/3
f 218/6/3 213/6/3 217/6/3
f 219/4/3 204/4/3 203/4/3
f 220/5/3 205/5/3 204/5/3
f 220/4/3 204/4/3 219/4/3
f 221/5/3 217/5/3 216/5/3
f 222/5/3 217/5/3 221/5/3
f 223/3/3 220/3/3 219/3/3
f 224/3/3 220/3/3 223/3/3
f 225/5/3 205/5/3 220/5/3
f 225/3/3 220/3/3 224/3/3
f 226/5/3 215/5/3 206/5/3
f 228/5/3 205/5/3 225/5/3
f 228/5/3 225/5/3 224/5/3
f 229/5/3 227/5/3 226/5/3
f 229/5/3 226/5/3 206/5/3
f 230/5/3 228/5/3 224/5/3
f 230/5/3 229/5/3 228/5/3
f 231/5/3 229/5/3 230/5/3
f 232/5/3 229/5/3 231/5/3
f 233/5/3 227/5/3 229/5/3
f 233/5/3 229/5/3 232/5/3
f 238/3/3 237/3/3 236/3/3
f 239/3/3 237/3/3 238/3/3
f 242/3/3 241/3/3 240/3/3
f 243/3/3 241/3/3 242/3/3
f 244/3/3 238/3/3 236/3/3
f 246/3/3 244/3/3 236/3/3
f 246/3/3 245/3/3 244/3/3
f 247/3/3 245/3/3 246/3/3
f 248/3/3 235/3/3 234/3/3
f 249/3/3 235/3/3 248/3/3
f 252/6/3 251/6/3 250/6/3
f 253/6/3 251/6/3 252/6/3
f 254/6/3 252/6/3 250/6/3
f 255/6/3 252/6/3 254/6/3
f 258/5/3 257/5/3 256/5/3
f 259/5/3 257/5/3 258/5/3
f 260/3/4 261/3/4 262/3/4
f 262/3/4 261/3/4 263/3/4
f 264/6/4 265/6/4 266/6/4
f 266/6/4 265/6/4 267/6/4
f 264/6/4 266/6/4 268/6/4
f 268/6/4 266/6/4 269/6/4
f 270/5/4 271/5/4 272/5/4
f 272/5/4 271/5/4 273/5/4
f 276/3/4 277/3/4 278/3/4
f 278/3/4 277/3/4 279/3/4
f 280/3/4 281/3/4 282/3/4
f 282/3/4 281/3/4 283/3/4
f 276/3/4 278/3/4 284/3/4
f 276/3/4 284/3/4 286/3/4
f 284/3/4 285/3/4 286/3/4
f 286/3/4 285/3/4 287/3/4
f 274/3/4 275/3/4 288/3/4
f 288/3/4 275/3/4 289/3/4
f 290/2/4 291/2/4 292/2/4
f 292/2/4 291/2/4 293/2/4
f 292/4/4 293/4/4 294/4/4
f 294/4/4 293/4/4 295/4/4
f 294/2/4 295/2/4 296/2/4
f 296/2/4 295/2/4 297/2/4
f 297/2/4 295/2/4 298/2/4
f 298/2/4 295/2/4 299/2/4
f 299/2/4 295/2/4 300/2/4
f 300/2/4 295/2/4 301/2/4
f 301/2/4 295/2/4 302/2/4
f 302/2/4 295/2/4 303/2/4
f 303/2/4 295/2/4 304/2/4
f 304/2/4 295/2/4 305/2/4
f 305/2/4 295/2/4 307/2/4
f 307/2/4 295/2/4 308/2/4
f 306/2/4 307/2/4 308/2/4
f 308/2/4 295/2/4 309/2/4
f 309/2/4 295/2/4 310/2/4
f 310/2/4 295/2/4 311/2/4
f 306/2/4 308/2/4 312/2/4
f 312/2/4 308/2/4 313/2/4
f 313/2/4 308/2/4 314/2/4
f 308/4/4 309/4/4 315/4/4
f 314/2/4 308/2/4 315/2/4
f 309/2/4 310/2/4 316/2/4
f 315/4/4 309/4/4 316/4/4
f 316/2/4 310/2/4 317/2/4
f 321/5/4 322/5/4 324/5/4
f 322/5/4 323/5/4 324/5/4
f 324/5/4 325/5/4 326/5/4
f 326/6/4 327/6/4 328/6/4
f 328/6/4 327/6/4 329/6/4
f 324/5/4 326/5/4 330/5/4
f 326/6/4 328/6/4 330/6/4
f 330/6/4 328/6/4 331/6/4
f 318/4/4 319/4/4 332/4/4
f 319/5/4 320/5/4 333/5/4
f 332/4/4 319/4/4 333/4/4
f 332/3/4 333/3/4 334/3/4
f 334/3/4 333/3/4 335/3/4
f 333/5/4 320/5/4 336/5/4
f 335/3/4 333/3/4 336/3/4
f 336/5/4 320/5/4 337/5/4
f 335/5/4 336/5/4 337/5/4
f 321/5/4 324/5/4 338/5/4
f 324/5/4 330/5/4 338/5/4
f 335/5/4 337/5/4 339/5/4
f 337/5/4 338/5/4 339/5/4
f 339/5/4 338/5/4 340/5/4
f 340/5/4 338/5/4 341/5/4
f 338/5/4 330/5/4 342/5/4
f 341/5/4 338/5/4 342/5/4
f 343/3/4 344/3/4 345/3/4
f 345/3/4 344/3/4 346/3/4
f 351/2/5 348/2/5 347/2/5
f 352/4/5 349/4/5 348/4/5
f 352/2/5 348/2/5 351/2/5
f 353/2/5 350/2/5 349/2/5
f 353/4/5 349/4/5 352/4/5
f 354/2/5 350/2/5 353/2/5
f 357/2/5 356/2/5 355/2/5
f 358/2/5 356/2/5 357/2/5
f 363/3/5 362/3/5 361/3/5
f 364/3/5 362/3/5 363/3/5
f 365/2/5 360/2/5 359/2/5
f 366/2/5 360/2/5 365/2/5
f 369/2/5 368/2/5 367/2/5
f 370/2/5 368/2/5 369/2/5
f 377/3/5 376/3/5 375/3/5
f 378/3/5 376/3/5 377/3/5
f 379/2/5 372/2/5 371/2/5
f 380/2/5 372/2/5 379/2/5
f 381/2/5 374/2/5 373/2/5
f 382/2/5 374/2/5 381/2/5
f 385/2/5 384/2/5 383/2/5
f 386/2/5 384/2/5 385/2/5
f 390/3/5 388/3/5 387/3/5
f 391/3/5 388/3/5 390/3/5
f 394/4/5 392/4/5 391/4/5
f 395/4/5 392/4/5 394/4/5
f 396/4/5 392/4/5 395/4/5
f 397/4/5 392/4/5 396/4/5
f 398/4/5 392/4/5 397/4/5
f 399/3/5 393/3/5 392/3/5
f 399/4/5 392/4/5 398/4/5
f 400/4/5 394/4/5 391/4/5
f 401/4/5 396/4/5 395/4/5
f 402/4/5 396/4/5 401/4/5
f 403/4/5 398/4/5 397/4/5
f 404/4/5 398/4/5 403/4/5
f 405/3/5 393/3/5 399/3/5
f 406/2/5 390/2/5 389/2/5
f 407/3/5 391/3/5 390/3/5
f 407/2/5 390/2/5 406/2/5
f 408/4/5 405/4/5 404/4/5
f 408/3/5 391/3/5 407/3/5
f 408/4/5 402/4/5 401/4/5
f 408/4/5 404/4/5 403/4/5
f 408/4/5 400/4/5 391/4/5
f 408/4/5 403/4/5 402/4/5
f 408/4/5 401/4/5 400/4/5
f 409/3/5 393/3/5 405/3/5
f 409/4/5 405/4/5 408/4/5
f 410/3/5 393/3/5 409/3/5
f 411/3/5 408/3/5 407/3/5
f 412/3/5 408/3/5 411/3/5
f 415/5/5 414/5/5 413/5/5
f 416/5/5 414/5/5 415/5/5
f 419/5/5 418/5/5 417/5/5
f 420/5/5 418/5/5 419/5/5
f 423/5/5 422/5/5 421/5/5
f 424/5/5 422/5/5 423/5/5
f 427/5/5 426/5/5 425/5/5
f 428/5/5 426/5/5 427/5/5
f 431/3/5 430/3/5 429/3/5
f 432/3/5 430/3/5 431/3/5
f 435/5/5 434/5/5 433/5/5
f 436/5/5 434/5/5 435/5/5
f 437/3/6 438/3/6 439/3/6
f 439/3/6 438/3/6 440/3/6
f 441/5/6 442/5/6 443/5/6
f 443/5/6 442/5/6 444/5/6
f 445/5/6 446/5/6 447/5/6
f 447/5/6 446/5/6 448/5/6
f 451/5/6 452/5/6 453/5/6
f 453/5/6 452/5/6 454/5/6
f 449/2/6 450/2/6 455/2/6
f 455/2/6 450/2/6 456/2/6
f 457/3/6 458/3/6 463/3/6
f 459/2/6 460/2/6 464/2/6
f 460/4/6 461/4/6 465/4/6
f 464/2/6 460/2/6 465/2/6
f 461/2/6 462/2/6 466/2/6
f 465/4/6 461/4/6 466/4/6
f 466/2/6 462/2/6 467/2/6
f 457/3/6 463/3/6 468/3/6
f 457/3/6 468/3/6 469/3/6
f 469/3/6 468/3/6 470/3/6
f 471/3/6 472/3/6 475/3/6
f 475/3/6 472/3/6 476/3/6
f 473/5/6 474/5/6 477/5/6
f 477/5/6 474/5/6 478/5/6
f 479/5/6 480/5/6 485/5/6
f 483/5/6 484/5/6 486/5/6
f 481/5/6 482/5/6 486/5/6
f 482/5/6 483/5/6 486/5/6
f 479/5/6 485/5/6 487/5/6
f 485/5/6 486/5/6 487/5/6
f 486/5/6 484/5/6 488/5/6
f 487/5/6 486/5/6 488/5/6
f 479/5/6 487/5/6 489/5/6
f 489/5/6 487/5/6 490/5/6
f 488/5/6 484/5/6 491/5/6
f 491/5/6 484/5/6 492/5/6
f 493/3/6 494/3/6 497/3/6
f 497/3/6 494/3/6 498/3/6
f 495/6/6 496/6/6 499/6/6
f 499/6/6 496/6/6 500/6/6
f 501/6/6 502/6/6 503/6/6
f 503/6/6 502/6/6 504/6/6
f 505/6/6 506/6/6 507/6/6
f 507/6/6 506/6/6 508/6/6
f 509/6/6 510/6/6 511/6/6
f 511/6/6 510/6/6 512/6/6
